<ttFont>
    <TTGlyph name="A" xMin="8" yMin="0" xMax="1542" yMax="1462">
      <contour>
        <pt x="446" y="481" on="1"/>
        <pt x="387" y="305" on="1"/>
        <pt x="379" y="280" on="0"/>
        <pt x="362" y="213" on="0"/>
        <pt x="362" y="188" on="1"/>
        <pt x="362" y="168" on="0"/>
        <pt x="378" y="138" on="0"/>
        <pt x="404" y="119" on="0"/>
        <pt x="437" y="109" on="0"/>
        <pt x="455" y="109" on="1"/>
        <pt x="541" y="109" on="1"/>
        <pt x="541" y="0" on="1"/>
        <pt x="8" y="0" on="1"/>
        <pt x="8" y="109" on="1"/>
        <pt x="33" y="109" on="1"/>
        <pt x="60" y="109" on="0"/>
        <pt x="105" y="121" on="0"/>
        <pt x="144" y="154" on="0"/>
        <pt x="179" y="212" on="0"/>
        <pt x="197" y="258" on="1"/>
        <pt x="641" y="1462" on="1"/>
        <pt x="922" y="1462" on="1"/>
        <pt x="1350" y="256" on="1"/>
        <pt x="1365" y="213" on="0"/>
        <pt x="1398" y="156" on="0"/>
        <pt x="1437" y="123" on="0"/>
        <pt x="1481" y="109" on="0"/>
        <pt x="1505" y="109" on="1"/>
        <pt x="1542" y="109" on="1"/>
        <pt x="1542" y="0" on="1"/>
        <pt x="866" y="0" on="1"/>
        <pt x="866" y="109" on="1"/>
        <pt x="946" y="109" on="1"/>
        <pt x="961" y="109" on="0"/>
        <pt x="993" y="118" on="0"/>
        <pt x="1018" y="137" on="0"/>
        <pt x="1034" y="167" on="0"/>
        <pt x="1034" y="188" on="1"/>
        <pt x="1034" y="213" on="0"/>
        <pt x="1022" y="259" on="0"/>
        <pt x="1016" y="276" on="1"/>
        <pt x="944" y="481" on="1"/>
      </contour>
      <contour>
        <pt x="795" y="942" on="1"/>
        <pt x="784" y="977" on="0"/>
        <pt x="761" y="1054" on="0"/>
        <pt x="738" y="1134" on="0"/>
        <pt x="717" y="1213" on="0"/>
        <pt x="709" y="1249" on="1"/>
        <pt x="700" y="1218" on="0"/>
        <pt x="676" y="1144" on="0"/>
        <pt x="649" y="1066" on="0"/>
        <pt x="622" y="988" on="0"/>
        <pt x="610" y="952" on="1"/>
        <pt x="489" y="606" on="1"/>
        <pt x="903" y="606" on="1"/>
      </contour>
    </TTGlyph>
    <TTGlyph name="AE" xMin="0" yMin="0" xMax="1968" yMax="1462">
      <contour>
        <pt x="1270" y="125" on="1"/>
        <pt x="1679" y="125" on="1"/>
        <pt x="1710" y="125" on="0"/>
        <pt x="1754" y="148" on="0"/>
        <pt x="1786" y="190" on="0"/>
        <pt x="1805" y="247" on="0"/>
        <pt x="1810" y="281" on="1"/>
        <pt x="1827" y="377" on="1"/>
        <pt x="1968" y="377" on="1"/>
        <pt x="1954" y="0" on="1"/>
        <pt x="754" y="0" on="1"/>
        <pt x="754" y="109" on="1"/>
        <pt x="840" y="109" on="1"/>
        <pt x="896" y="109" on="0"/>
        <pt x="944" y="178" on="0"/>
        <pt x="944" y="231" on="1"/>
        <pt x="944" y="469" on="1"/>
        <pt x="473" y="469" on="1"/>
        <pt x="387" y="297" on="1"/>
        <pt x="370" y="265" on="0"/>
        <pt x="354" y="207" on="0"/>
        <pt x="354" y="188" on="1"/>
        <pt x="354" y="146" on="0"/>
        <pt x="417" y="109" on="0"/>
        <pt x="477" y="109" on="1"/>
        <pt x="512" y="109" on="1"/>
        <pt x="512" y="0" on="1"/>
        <pt x="0" y="0" on="1"/>
        <pt x="0" y="109" on="1"/>
        <pt x="25" y="109" on="1"/>
        <pt x="78" y="109" on="0"/>
        <pt x="162" y="186" on="0"/>
        <pt x="207" y="268" on="1"/>
        <pt x="782" y="1343" on="1"/>
        <pt x="647" y="1354" on="1"/>
        <pt x="647" y="1462" on="1"/>
        <pt x="1890" y="1462" on="1"/>
        <pt x="1898" y="1085" on="1"/>
        <pt x="1755" y="1085" on="1"/>
        <pt x="1745" y="1182" on="1"/>
        <pt x="1737" y="1257" on="0"/>
        <pt x="1677" y="1337" on="0"/>
        <pt x="1614" y="1337" on="1"/>
        <pt x="1270" y="1337" on="1"/>
        <pt x="1270" y="825" on="1"/>
        <pt x="1755" y="825" on="1"/>
        <pt x="1755" y="702" on="1"/>
        <pt x="1270" y="702" on="1"/>
      </contour>
      <contour>
        <pt x="924" y="1337" on="1"/>
        <pt x="539" y="592" on="1"/>
        <pt x="944" y="592" on="1"/>
        <pt x="944" y="1337" on="1"/>
      </contour>
    </TTGlyph>
    <TTGlyph name="Aacute" xMin="8" yMin="0" xMax="1542" yMax="1907">
      <component glyphName="A" x="0" y="0" flags="0x1204"/>
      <component glyphName="acute" x="311" y="338" flags="0x1004"/>
    </TTGlyph>
    <TTGlyph name="Acircumflex" xMin="8" yMin="0" xMax="1542" yMax="1907">
      <component glyphName="A" x="0" y="0" flags="0x1204"/>
      <component glyphName="circumflex" x="188" y="338" flags="0x1004"/>
    </TTGlyph>
    <TTGlyph name="Adieresis" xMin="8" yMin="0" xMax="1542" yMax="1874">
      <component glyphName="A" x="0" y="0" flags="0x1204"/>
      <component glyphName="dieresis" x="178" y="338" flags="0x1004"/>
    </TTGlyph>
    <TTGlyph name="Agrave" xMin="8" yMin="0" xMax="1542" yMax="1907">
      <component glyphName="A" x="0" y="0" flags="0x1204"/>
      <component glyphName="grave" x="45" y="338" flags="0x1004"/>
    </TTGlyph>
    <TTGlyph name="Aring" xMin="8" yMin="0" xMax="1542" yMax="1796">
      <component glyphName="A" x="0" y="0" flags="0x1204"/>
      <component glyphName="ring" x="438" y="129" flags="0x1004"/>
    </TTGlyph>
    <TTGlyph name="Atilde" xMin="8" yMin="0" xMax="1542" yMax="1903">
      <component glyphName="A" x="0" y="0" flags="0x1204"/>
      <component glyphName="tilde" x="180" y="338" flags="0x1004"/>
    </TTGlyph>
    <TTGlyph name="B" xMin="57" yMin="0" xMax="1303" yMax="1462">
      <contour>
        <pt x="1241" y="1090" on="1"/>
        <pt x="1241" y="1022" on="0"/>
        <pt x="1204" y="921" on="0"/>
        <pt x="1136" y="848" on="0"/>
        <pt x="1041" y="796" on="0"/>
        <pt x="983" y="778" on="1"/>
        <pt x="983" y="768" on="1"/>
        <pt x="1054" y="750" on="0"/>
        <pt x="1171" y="687" on="0"/>
        <pt x="1256" y="596" on="0"/>
        <pt x="1303" y="476" on="0"/>
        <pt x="1303" y="401" on="1"/>
        <pt x="1303" y="199" on="0"/>
        <pt x="1009" y="0" on="0"/>
        <pt x="717" y="0" on="1"/>
        <pt x="57" y="0" on="1"/>
        <pt x="57" y="109" on="1"/>
        <pt x="141" y="109" on="1"/>
        <pt x="164" y="109" on="0"/>
        <pt x="203" y="118" on="0"/>
        <pt x="231" y="146" on="0"/>
        <pt x="248" y="198" on="0"/>
        <pt x="248" y="242" on="1"/>
        <pt x="248" y="1223" on="1"/>
        <pt x="248" y="1264" on="0"/>
        <pt x="231" y="1315" on="0"/>
        <pt x="202" y="1343" on="0"/>
        <pt x="163" y="1354" on="0"/>
        <pt x="141" y="1354" on="1"/>
        <pt x="57" y="1354" on="1"/>
        <pt x="57" y="1462" on="1"/>
        <pt x="655" y="1462" on="1"/>
        <pt x="947" y="1462" on="0"/>
        <pt x="1241" y="1282" on="0"/>
      </contour>
      <contour>
        <pt x="571" y="125" on="1"/>
        <pt x="707" y="125" on="1"/>
        <pt x="775" y="125" on="0"/>
        <pt x="871" y="155" on="0"/>
        <pt x="931" y="222" on="0"/>
        <pt x="958" y="330" on="0"/>
        <pt x="958" y="408" on="1"/>
        <pt x="958" y="483" on="0"/>
        <pt x="934" y="594" on="0"/>
        <pt x="876" y="666" on="0"/>
        <pt x="782" y="702" on="0"/>
        <pt x="711" y="702" on="1"/>
        <pt x="571" y="702" on="1"/>
      </contour>
      <contour>
        <pt x="571" y="827" on="1"/>
        <pt x="649" y="827" on="1"/>
        <pt x="721" y="827" on="0"/>
        <pt x="816" y="857" on="0"/>
        <pt x="873" y="920" on="0"/>
        <pt x="897" y="1020" on="0"/>
        <pt x="897" y="1090" on="1"/>
        <pt x="897" y="1160" on="0"/>
        <pt x="870" y="1254" on="0"/>
        <pt x="810" y="1312" on="0"/>
        <pt x="714" y="1337" on="0"/>
        <pt x="645" y="1337" on="1"/>
        <pt x="571" y="1337" on="1"/>
      </contour>
    </TTGlyph>
    <TTGlyph name="C" xMin="113" yMin="-20" xMax="1286" yMax="1483">
      <contour>
        <pt x="870" y="143" on="1"/>
        <pt x="945" y="143" on="0"/>
        <pt x="1062" y="178" on="0"/>
        <pt x="1154" y="234" on="0"/>
        <pt x="1223" y="304" on="0"/>
        <pt x="1249" y="338" on="1"/>
        <pt x="1265" y="326" on="0"/>
        <pt x="1284" y="276" on="0"/>
        <pt x="1284" y="250" on="1"/>
        <pt x="1284" y="207" on="0"/>
        <pt x="1238" y="112" on="0"/>
        <pt x="1130" y="32" on="0"/>
        <pt x="952" y="-20" on="0"/>
        <pt x="821" y="-20" on="1"/>
        <pt x="643" y="-20" on="0"/>
        <pt x="377" y="88" on="0"/>
        <pt x="201" y="286" on="0"/>
        <pt x="113" y="564" on="0"/>
        <pt x="113" y="733" on="1"/>
        <pt x="113" y="899" on="0"/>
        <pt x="203" y="1175" on="0"/>
        <pt x="380" y="1373" on="0"/>
        <pt x="645" y="1483" on="0"/>
        <pt x="819" y="1483" on="1"/>
        <pt x="937" y="1483" on="0"/>
        <pt x="1112" y="1446" on="0"/>
        <pt x="1228" y="1382" on="0"/>
        <pt x="1286" y="1295" on="0"/>
        <pt x="1286" y="1245" on="1"/>
        <pt x="1286" y="1207" on="0"/>
        <pt x="1253" y="1142" on="0"/>
        <pt x="1188" y="1094" on="0"/>
        <pt x="1092" y="1067" on="0"/>
        <pt x="1030" y="1067" on="1"/>
        <pt x="1030" y="1118" on="0"/>
        <pt x="1008" y="1219" on="0"/>
        <pt x="955" y="1301" on="0"/>
        <pt x="869" y="1352" on="0"/>
        <pt x="805" y="1352" on="1"/>
        <pt x="708" y="1352" on="0"/>
        <pt x="574" y="1270" on="0"/>
        <pt x="493" y="1112" on="0"/>
        <pt x="457" y="881" on="0"/>
        <pt x="457" y="733" on="1"/>
        <pt x="457" y="585" on="0"/>
        <pt x="501" y="363" on="0"/>
        <pt x="599" y="216" on="0"/>
        <pt x="756" y="143" on="0"/>
      </contour>
    </TTGlyph>
    <TTGlyph name="Ccedilla" xMin="113" yMin="-492" xMax="1286" yMax="1483">
      <component glyphName="C" x="0" y="0" flags="0x1204"/>
      <component glyphName="cedilla" x="391" y="0" flags="0x1004"/>
    </TTGlyph>
    <TTGlyph name="D" xMin="57" yMin="0" xMax="1458" yMax="1462">
      <contour>
        <pt x="1458" y="758" on="1"/>
        <pt x="1458" y="590" on="0"/>
        <pt x="1366" y="311" on="0"/>
        <pt x="1183" y="111" on="0"/>
        <pt x="912" y="0" on="0"/>
        <pt x="733" y="0" on="1"/>
        <pt x="57" y="0" on="1"/>
        <pt x="57" y="109" on="1"/>
        <pt x="143" y="109" on="1"/>
        <pt x="166" y="109" on="0"/>
        <pt x="204" y="118" on="0"/>
        <pt x="232" y="146" on="0"/>
        <pt x="248" y="198" on="0"/>
        <pt x="248" y="242" on="1"/>
        <pt x="248" y="1229" on="1"/>
        <pt x="248" y="1270" on="0"/>
        <pt x="232" y="1319" on="0"/>
        <pt x="203" y="1345" on="0"/>
        <pt x="165" y="1354" on="0"/>
        <pt x="143" y="1354" on="1"/>
        <pt x="57" y="1354" on="1"/>
        <pt x="57" y="1462" on="1"/>
        <pt x="733" y="1462" on="1"/>
        <pt x="903" y="1462" on="0"/>
        <pt x="1172" y="1373" on="0"/>
        <pt x="1359" y="1196" on="0"/>
        <pt x="1458" y="932" on="0"/>
      </contour>
      <contour>
        <pt x="1112" y="758" on="1"/>
        <pt x="1112" y="1051" on="0"/>
        <pt x="897" y="1337" on="0"/>
        <pt x="688" y="1337" on="1"/>
        <pt x="571" y="1337" on="1"/>
        <pt x="571" y="127" on="1"/>
        <pt x="686" y="127" on="1"/>
        <pt x="791" y="127" on="0"/>
        <pt x="951" y="214" on="0"/>
        <pt x="1058" y="378" on="0"/>
        <pt x="1112" y="611" on="0"/>
      </contour>
    </TTGlyph>
    <TTGlyph name="E" xMin="57" yMin="0" xMax="1272" yMax="1462">
      <contour>
        <pt x="573" y="125" on="1"/>
        <pt x="983" y="125" on="1"/>
        <pt x="1014" y="125" on="0"/>
        <pt x="1058" y="148" on="0"/>
        <pt x="1090" y="190" on="0"/>
        <pt x="1109" y="247" on="0"/>
        <pt x="1114" y="281" on="1"/>
        <pt x="1130" y="377" on="1"/>
        <pt x="1272" y="377" on="1"/>
        <pt x="1257" y="0" on="1"/>
        <pt x="57" y="0" on="1"/>
        <pt x="57" y="109" on="1"/>
        <pt x="143" y="109" on="1"/>
        <pt x="165" y="109" on="0"/>
        <pt x="203" y="117" on="0"/>
        <pt x="232" y="142" on="0"/>
        <pt x="248" y="191" on="0"/>
        <pt x="248" y="231" on="1"/>
        <pt x="248" y="1221" on="1"/>
        <pt x="248" y="1265" on="0"/>
        <pt x="232" y="1317" on="0"/>
        <pt x="204" y="1345" on="0"/>
        <pt x="166" y="1354" on="0"/>
        <pt x="143" y="1354" on="1"/>
        <pt x="57" y="1354" on="1"/>
        <pt x="57" y="1462" on="1"/>
        <pt x="1194" y="1462" on="1"/>
        <pt x="1202" y="1085" on="1"/>
        <pt x="1059" y="1085" on="1"/>
        <pt x="1049" y="1182" on="1"/>
        <pt x="1041" y="1257" on="0"/>
        <pt x="981" y="1337" on="0"/>
        <pt x="918" y="1337" on="1"/>
        <pt x="573" y="1337" on="1"/>
        <pt x="573" y="825" on="1"/>
        <pt x="1059" y="825" on="1"/>
        <pt x="1059" y="702" on="1"/>
        <pt x="573" y="702" on="1"/>
      </contour>
    </TTGlyph>
    <TTGlyph name="Eacute" xMin="57" yMin="0" xMax="1272" yMax="1907">
      <component glyphName="E" x="0" y="0" flags="0x1204"/>
      <component glyphName="acute" x="193" y="338" flags="0x1004"/>
    </TTGlyph>
    <TTGlyph name="Ecircumflex" xMin="57" yMin="0" xMax="1272" yMax="1907">
      <component glyphName="E" x="0" y="0" flags="0x1204"/>
      <component glyphName="circumflex" x="61" y="338" flags="0x1004"/>
    </TTGlyph>
    <TTGlyph name="Edieresis" xMin="57" yMin="0" xMax="1272" yMax="1874">
      <component glyphName="E" x="0" y="0" flags="0x1204"/>
      <component glyphName="dieresis" x="98" y="338" flags="0x1004"/>
    </TTGlyph>
    <TTGlyph name="Egrave" xMin="57" yMin="0" xMax="1272" yMax="1907">
      <component glyphName="E" x="0" y="0" flags="0x1204"/>
      <component glyphName="grave" x="-24" y="338" flags="0x1004"/>
    </TTGlyph>
    <TTGlyph name="Eth" xMin="57" yMin="0" xMax="1458" yMax="1462">
      <contour>
        <pt x="1458" y="758" on="1"/>
        <pt x="1458" y="590" on="0"/>
        <pt x="1366" y="311" on="0"/>
        <pt x="1183" y="111" on="0"/>
        <pt x="912" y="0" on="0"/>
        <pt x="733" y="0" on="1"/>
        <pt x="57" y="0" on="1"/>
        <pt x="57" y="109" on="1"/>
        <pt x="143" y="109" on="1"/>
        <pt x="166" y="109" on="0"/>
        <pt x="204" y="118" on="0"/>
        <pt x="232" y="146" on="0"/>
        <pt x="248" y="198" on="0"/>
        <pt x="248" y="242" on="1"/>
        <pt x="248" y="702" on="1"/>
        <pt x="78" y="702" on="1"/>
        <pt x="78" y="827" on="1"/>
        <pt x="248" y="827" on="1"/>
        <pt x="248" y="1229" on="1"/>
        <pt x="248" y="1270" on="0"/>
        <pt x="232" y="1319" on="0"/>
        <pt x="203" y="1345" on="0"/>
        <pt x="165" y="1354" on="0"/>
        <pt x="143" y="1354" on="1"/>
        <pt x="57" y="1354" on="1"/>
        <pt x="57" y="1462" on="1"/>
        <pt x="733" y="1462" on="1"/>
        <pt x="903" y="1462" on="0"/>
        <pt x="1172" y="1373" on="0"/>
        <pt x="1359" y="1196" on="0"/>
        <pt x="1458" y="932" on="0"/>
      </contour>
      <contour>
        <pt x="1112" y="758" on="1"/>
        <pt x="1112" y="1051" on="0"/>
        <pt x="897" y="1337" on="0"/>
        <pt x="688" y="1337" on="1"/>
        <pt x="571" y="1337" on="1"/>
        <pt x="571" y="827" on="1"/>
        <pt x="827" y="827" on="1"/>
        <pt x="827" y="702" on="1"/>
        <pt x="571" y="702" on="1"/>
        <pt x="571" y="127" on="1"/>
        <pt x="686" y="127" on="1"/>
        <pt x="791" y="127" on="0"/>
        <pt x="951" y="214" on="0"/>
        <pt x="1058" y="378" on="0"/>
        <pt x="1112" y="611" on="0"/>
      </contour>
    </TTGlyph>
    <TTGlyph name="F" xMin="57" yMin="0" xMax="1202" yMax="1462">
      <contour>
        <pt x="1059" y="1085" on="1"/>
        <pt x="1049" y="1184" on="1"/>
        <pt x="1039" y="1265" on="0"/>
        <pt x="960" y="1337" on="0"/>
        <pt x="897" y="1337" on="1"/>
        <pt x="571" y="1337" on="1"/>
        <pt x="571" y="778" on="1"/>
        <pt x="1057" y="778" on="1"/>
        <pt x="1057" y="657" on="1"/>
        <pt x="571" y="657" on="1"/>
        <pt x="571" y="242" on="1"/>
        <pt x="571" y="198" on="0"/>
        <pt x="588" y="146" on="0"/>
        <pt x="616" y="118" on="0"/>
        <pt x="656" y="109" on="0"/>
        <pt x="678" y="109" on="1"/>
        <pt x="805" y="109" on="1"/>
        <pt x="805" y="0" on="1"/>
        <pt x="57" y="0" on="1"/>
        <pt x="57" y="109" on="1"/>
        <pt x="143" y="109" on="1"/>
        <pt x="165" y="109" on="0"/>
        <pt x="203" y="117" on="0"/>
        <pt x="232" y="142" on="0"/>
        <pt x="248" y="191" on="0"/>
        <pt x="248" y="231" on="1"/>
        <pt x="248" y="1229" on="1"/>
        <pt x="248" y="1270" on="0"/>
        <pt x="232" y="1319" on="0"/>
        <pt x="203" y="1345" on="0"/>
        <pt x="165" y="1354" on="0"/>
        <pt x="143" y="1354" on="1"/>
        <pt x="57" y="1354" on="1"/>
        <pt x="57" y="1462" on="1"/>
        <pt x="1192" y="1462" on="1"/>
        <pt x="1202" y="1085" on="1"/>
      </contour>
    </TTGlyph>
    <TTGlyph name="G" xMin="113" yMin="-20" xMax="1518" yMax="1483">
      <contour>
        <pt x="866" y="-20" on="1"/>
        <pt x="676" y="-20" on="0"/>
        <pt x="393" y="88" on="0"/>
        <pt x="205" y="286" on="0"/>
        <pt x="113" y="564" on="0"/>
        <pt x="113" y="733" on="1"/>
        <pt x="113" y="899" on="0"/>
        <pt x="211" y="1175" on="0"/>
        <pt x="403" y="1373" on="0"/>
        <pt x="689" y="1483" on="0"/>
        <pt x="877" y="1483" on="1"/>
        <pt x="1005" y="1483" on="0"/>
        <pt x="1196" y="1446" on="0"/>
        <pt x="1325" y="1382" on="0"/>
        <pt x="1389" y="1295" on="0"/>
        <pt x="1389" y="1245" on="1"/>
        <pt x="1389" y="1209" on="0"/>
        <pt x="1355" y="1146" on="0"/>
        <pt x="1287" y="1098" on="0"/>
        <pt x="1189" y="1071" on="0"/>
        <pt x="1124" y="1071" on="1"/>
        <pt x="1124" y="1133" on="0"/>
        <pt x="1094" y="1237" on="0"/>
        <pt x="1031" y="1311" on="0"/>
        <pt x="935" y="1352" on="0"/>
        <pt x="870" y="1352" on="1"/>
        <pt x="758" y="1352" on="0"/>
        <pt x="601" y="1270" on="0"/>
        <pt x="502" y="1112" on="0"/>
        <pt x="457" y="881" on="0"/>
        <pt x="457" y="733" on="1"/>
        <pt x="457" y="585" on="0"/>
        <pt x="504" y="356" on="0"/>
        <pt x="609" y="200" on="0"/>
        <pt x="776" y="119" on="0"/>
        <pt x="897" y="119" on="1"/>
        <pt x="935" y="119" on="0"/>
        <pt x="1011" y="125" on="0"/>
        <pt x="1047" y="133" on="1"/>
        <pt x="1047" y="434" on="1"/>
        <pt x="1047" y="516" on="0"/>
        <pt x="973" y="580" on="0"/>
        <pt x="901" y="580" on="1"/>
        <pt x="874" y="580" on="1"/>
        <pt x="874" y="688" on="1"/>
        <pt x="1518" y="688" on="1"/>
        <pt x="1518" y="580" on="1"/>
        <pt x="1491" y="580" on="1"/>
        <pt x="1460" y="580" on="0"/>
        <pt x="1414" y="565" on="0"/>
        <pt x="1384" y="529" on="0"/>
        <pt x="1370" y="470" on="0"/>
        <pt x="1370" y="426" on="1"/>
        <pt x="1370" y="90" on="1"/>
        <pt x="1250" y="35" on="0"/>
        <pt x="1006" y="-20" on="0"/>
      </contour>
    </TTGlyph>
    <TTGlyph name="H" xMin="57" yMin="0" xMax="1620" yMax="1462">
      <contour>
        <pt x="913" y="0" on="1"/>
        <pt x="913" y="109" on="1"/>
        <pt x="1001" y="109" on="1"/>
        <pt x="1023" y="109" on="0"/>
        <pt x="1061" y="118" on="0"/>
        <pt x="1090" y="146" on="0"/>
        <pt x="1106" y="198" on="0"/>
        <pt x="1106" y="242" on="1"/>
        <pt x="1106" y="700" on="1"/>
        <pt x="571" y="700" on="1"/>
        <pt x="571" y="242" on="1"/>
        <pt x="571" y="198" on="0"/>
        <pt x="588" y="146" on="0"/>
        <pt x="616" y="118" on="0"/>
        <pt x="654" y="109" on="0"/>
        <pt x="676" y="109" on="1"/>
        <pt x="764" y="109" on="1"/>
        <pt x="764" y="0" on="1"/>
        <pt x="57" y="0" on="1"/>
        <pt x="57" y="109" on="1"/>
        <pt x="143" y="109" on="1"/>
        <pt x="165" y="109" on="0"/>
        <pt x="203" y="118" on="0"/>
        <pt x="232" y="146" on="0"/>
        <pt x="248" y="198" on="0"/>
        <pt x="248" y="242" on="1"/>
        <pt x="248" y="1228" on="1"/>
        <pt x="248" y="1269" on="0"/>
        <pt x="231" y="1318" on="0"/>
        <pt x="202" y="1344" on="0"/>
        <pt x="164" y="1353" on="0"/>
        <pt x="143" y="1353" on="1"/>
        <pt x="57" y="1353" on="1"/>
        <pt x="57" y="1462" on="1"/>
        <pt x="764" y="1462" on="1"/>
        <pt x="764" y="1353" on="1"/>
        <pt x="676" y="1353" on="1"/>
        <pt x="654" y="1353" on="0"/>
        <pt x="616" y="1344" on="0"/>
        <pt x="588" y="1316" on="0"/>
        <pt x="571" y="1264" on="0"/>
        <pt x="571" y="1220" on="1"/>
        <pt x="571" y="825" on="1"/>
        <pt x="1106" y="825" on="1"/>
        <pt x="1106" y="1220" on="1"/>
        <pt x="1106" y="1264" on="0"/>
        <pt x="1090" y="1316" on="0"/>
        <pt x="1061" y="1344" on="0"/>
        <pt x="1023" y="1353" on="0"/>
        <pt x="1001" y="1353" on="1"/>
        <pt x="913" y="1353" on="1"/>
        <pt x="913" y="1462" on="1"/>
        <pt x="1620" y="1462" on="1"/>
        <pt x="1620" y="1353" on="1"/>
        <pt x="1534" y="1353" on="1"/>
        <pt x="1513" y="1353" on="0"/>
        <pt x="1475" y="1344" on="0"/>
        <pt x="1446" y="1316" on="0"/>
        <pt x="1430" y="1264" on="0"/>
        <pt x="1430" y="1220" on="1"/>
        <pt x="1430" y="231" on="1"/>
        <pt x="1430" y="191" on="0"/>
        <pt x="1447" y="142" on="0"/>
        <pt x="1476" y="117" on="0"/>
        <pt x="1513" y="109" on="0"/>
        <pt x="1534" y="109" on="1"/>
        <pt x="1620" y="109" on="1"/>
        <pt x="1620" y="0" on="1"/>
      </contour>
    </TTGlyph>
    <TTGlyph name="I" xMin="57" yMin="0" xMax="764" yMax="1462">
      <contour>
        <pt x="57" y="0" on="1"/>
        <pt x="57" y="109" on="1"/>
        <pt x="143" y="109" on="1"/>
        <pt x="166" y="109" on="0"/>
        <pt x="204" y="118" on="0"/>
        <pt x="232" y="146" on="0"/>
        <pt x="248" y="198" on="0"/>
        <pt x="248" y="242" on="1"/>
        <pt x="248" y="1220" on="1"/>
        <pt x="248" y="1264" on="0"/>
        <pt x="232" y="1316" on="0"/>
        <pt x="204" y="1344" on="0"/>
        <pt x="166" y="1353" on="0"/>
        <pt x="143" y="1353" on="1"/>
        <pt x="57" y="1353" on="1"/>
        <pt x="57" y="1462" on="1"/>
        <pt x="764" y="1462" on="1"/>
        <pt x="764" y="1353" on="1"/>
        <pt x="678" y="1353" on="1"/>
        <pt x="656" y="1353" on="0"/>
        <pt x="617" y="1344" on="0"/>
        <pt x="589" y="1316" on="0"/>
        <pt x="573" y="1264" on="0"/>
        <pt x="573" y="1220" on="1"/>
        <pt x="573" y="242" on="1"/>
        <pt x="573" y="198" on="0"/>
        <pt x="589" y="146" on="0"/>
        <pt x="617" y="118" on="0"/>
        <pt x="656" y="109" on="0"/>
        <pt x="678" y="109" on="1"/>
        <pt x="764" y="109" on="1"/>
        <pt x="764" y="0" on="1"/>
      </contour>
    </TTGlyph>
    <TTGlyph name="Iacute" xMin="57" yMin="0" xMax="773" yMax="1907">
      <component glyphName="I" x="0" y="0" flags="0x1204"/>
      <component glyphName="acute" x="-77" y="338" flags="0x1004"/>
    </TTGlyph>
    <TTGlyph name="Icircumflex" xMin="48" yMin="0" xMax="775" yMax="1907">
      <component glyphName="I" x="0" y="0" flags="0x1204"/>
      <component glyphName="circumflex" x="-179" y="338" flags="0x1004"/>
    </TTGlyph>
    <TTGlyph name="Idieresis" xMin="57" yMin="0" xMax="764" yMax="1874">
      <component glyphName="I" x="0" y="0" flags="0x1204"/>
      <component glyphName="dieresis" x="-179" y="338" flags="0x1004"/>
    </TTGlyph>
    <TTGlyph name="Igrave" xMin="48" yMin="0" xMax="764" yMax="1907">
      <component glyphName="I" x="0" y="0" flags="0x1204"/>
      <component glyphName="grave" x="-284" y="338" flags="0x1004"/>
    </TTGlyph>
    <TTGlyph name="J" xMin="-80" yMin="-492" xMax="731" yMax="1462">
      <contour>
        <pt x="731" y="1354" on="1"/>
        <pt x="645" y="1354" on="1"/>
        <pt x="623" y="1354" on="0"/>
        <pt x="584" y="1345" on="0"/>
        <pt x="556" y="1317" on="0"/>
        <pt x="539" y="1265" on="0"/>
        <pt x="539" y="1221" on="1"/>
        <pt x="539" y="-4" on="1"/>
        <pt x="539" y="-97" on="0"/>
        <pt x="497" y="-241" on="0"/>
        <pt x="423" y="-350" on="0"/>
        <pt x="320" y="-425" on="0"/>
        <pt x="199" y="-471" on="0"/>
        <pt x="64" y="-492" on="0"/>
        <pt x="-6" y="-492" on="1"/>
        <pt x="-80" y="-492" on="1"/>
        <pt x="-80" y="-373" on="1"/>
        <pt x="-43" y="-373" on="1"/>
        <pt x="6" y="-373" on="0"/>
        <pt x="99" y="-336" on="0"/>
        <pt x="171" y="-250" on="0"/>
        <pt x="215" y="-109" on="0"/>
        <pt x="215" y="-6" on="1"/>
        <pt x="215" y="1229" on="1"/>
        <pt x="215" y="1270" on="0"/>
        <pt x="199" y="1319" on="0"/>
        <pt x="170" y="1345" on="0"/>
        <pt x="132" y="1354" on="0"/>
        <pt x="111" y="1354" on="1"/>
        <pt x="25" y="1354" on="1"/>
        <pt x="25" y="1462" on="1"/>
        <pt x="731" y="1462" on="1"/>
      </contour>
    </TTGlyph>
    <TTGlyph name="K" xMin="57" yMin="0" xMax="1503" yMax="1462">
      <contour>
        <pt x="889" y="1090" on="1"/>
        <pt x="922" y="1125" on="0"/>
        <pt x="967" y="1182" on="0"/>
        <pt x="994" y="1231" on="0"/>
        <pt x="1006" y="1275" on="0"/>
        <pt x="1006" y="1296" on="1"/>
        <pt x="1006" y="1330" on="0"/>
        <pt x="954" y="1356" on="0"/>
        <pt x="891" y="1356" on="1"/>
        <pt x="891" y="1462" on="1"/>
        <pt x="1446" y="1462" on="1"/>
        <pt x="1446" y="1356" on="1"/>
        <pt x="1404" y="1356" on="0"/>
        <pt x="1329" y="1330" on="0"/>
        <pt x="1257" y="1282" on="0"/>
        <pt x="1187" y="1216" on="0"/>
        <pt x="1151" y="1176" on="1"/>
        <pt x="881" y="879" on="1"/>
        <pt x="1262" y="274" on="1"/>
        <pt x="1292" y="226" on="0"/>
        <pt x="1347" y="163" on="0"/>
        <pt x="1403" y="125" on="0"/>
        <pt x="1461" y="109" on="0"/>
        <pt x="1495" y="109" on="1"/>
        <pt x="1503" y="109" on="1"/>
        <pt x="1503" y="0" on="1"/>
        <pt x="1393" y="0" on="1"/>
        <pt x="1315" y="0" on="0"/>
        <pt x="1197" y="10" on="0"/>
        <pt x="1108" y="30" on="0"/>
        <pt x="1044" y="61" on="0"/>
        <pt x="996" y="103" on="0"/>
        <pt x="957" y="156" on="0"/>
        <pt x="938" y="188" on="1"/>
        <pt x="662" y="659" on="1"/>
        <pt x="571" y="588" on="1"/>
        <pt x="571" y="242" on="1"/>
        <pt x="571" y="198" on="0"/>
        <pt x="588" y="146" on="0"/>
        <pt x="616" y="118" on="0"/>
        <pt x="656" y="109" on="0"/>
        <pt x="678" y="109" on="1"/>
        <pt x="764" y="109" on="1"/>
        <pt x="764" y="0" on="1"/>
        <pt x="57" y="0" on="1"/>
        <pt x="57" y="109" on="1"/>
        <pt x="143" y="109" on="1"/>
        <pt x="165" y="109" on="0"/>
        <pt x="203" y="117" on="0"/>
        <pt x="232" y="142" on="0"/>
        <pt x="248" y="191" on="0"/>
        <pt x="248" y="231" on="1"/>
        <pt x="248" y="1229" on="1"/>
        <pt x="248" y="1270" on="0"/>
        <pt x="232" y="1319" on="0"/>
        <pt x="203" y="1345" on="0"/>
        <pt x="165" y="1354" on="0"/>
        <pt x="143" y="1354" on="1"/>
        <pt x="57" y="1354" on="1"/>
        <pt x="57" y="1462" on="1"/>
        <pt x="764" y="1462" on="1"/>
        <pt x="764" y="1354" on="1"/>
        <pt x="678" y="1354" on="1"/>
        <pt x="656" y="1354" on="0"/>
        <pt x="616" y="1345" on="0"/>
        <pt x="588" y="1317" on="0"/>
        <pt x="571" y="1265" on="0"/>
        <pt x="571" y="1221" on="1"/>
        <pt x="571" y="743" on="1"/>
      </contour>
    </TTGlyph>
    <TTGlyph name="L" xMin="57" yMin="0" xMax="1272" yMax="1462">
      <contour>
        <pt x="57" y="0" on="1"/>
        <pt x="57" y="109" on="1"/>
        <pt x="143" y="109" on="1"/>
        <pt x="166" y="109" on="0"/>
        <pt x="204" y="118" on="0"/>
        <pt x="232" y="146" on="0"/>
        <pt x="248" y="198" on="0"/>
        <pt x="248" y="242" on="1"/>
        <pt x="248" y="1221" on="1"/>
        <pt x="248" y="1265" on="0"/>
        <pt x="232" y="1317" on="0"/>
        <pt x="204" y="1345" on="0"/>
        <pt x="166" y="1354" on="0"/>
        <pt x="143" y="1354" on="1"/>
        <pt x="57" y="1354" on="1"/>
        <pt x="57" y="1462" on="1"/>
        <pt x="764" y="1462" on="1"/>
        <pt x="764" y="1354" on="1"/>
        <pt x="678" y="1354" on="1"/>
        <pt x="657" y="1354" on="0"/>
        <pt x="618" y="1345" on="0"/>
        <pt x="590" y="1319" on="0"/>
        <pt x="573" y="1270" on="0"/>
        <pt x="573" y="1229" on="1"/>
        <pt x="573" y="125" on="1"/>
        <pt x="954" y="125" on="1"/>
        <pt x="1026" y="125" on="0"/>
        <pt x="1106" y="216" on="0"/>
        <pt x="1124" y="303" on="1"/>
        <pt x="1157" y="457" on="1"/>
        <pt x="1272" y="457" on="1"/>
        <pt x="1257" y="0" on="1"/>
      </contour>
    </TTGlyph>
    <TTGlyph name="M" xMin="57" yMin="0" xMax="1892" yMax="1462">
      <contour>
        <pt x="1237" y="0" on="1"/>
        <pt x="1237" y="109" on="1"/>
        <pt x="1257" y="109" on="1"/>
        <pt x="1289" y="109" on="0"/>
        <pt x="1338" y="117" on="0"/>
        <pt x="1370" y="141" on="0"/>
        <pt x="1386" y="186" on="0"/>
        <pt x="1386" y="223" on="1"/>
        <pt x="1386" y="1260" on="1"/>
        <pt x="973" y="0" on="1"/>
        <pt x="834" y="0" on="1"/>
        <pt x="401" y="1260" on="1"/>
        <pt x="401" y="242" on="1"/>
        <pt x="401" y="198" on="0"/>
        <pt x="422" y="146" on="0"/>
        <pt x="461" y="118" on="0"/>
        <pt x="517" y="109" on="0"/>
        <pt x="553" y="109" on="1"/>
        <pt x="565" y="109" on="1"/>
        <pt x="565" y="0" on="1"/>
        <pt x="57" y="0" on="1"/>
        <pt x="57" y="109" on="1"/>
        <pt x="143" y="109" on="1"/>
        <pt x="165" y="109" on="0"/>
        <pt x="203" y="117" on="0"/>
        <pt x="232" y="142" on="0"/>
        <pt x="248" y="191" on="0"/>
        <pt x="248" y="231" on="1"/>
        <pt x="248" y="1229" on="1"/>
        <pt x="248" y="1270" on="0"/>
        <pt x="232" y="1319" on="0"/>
        <pt x="203" y="1345" on="0"/>
        <pt x="165" y="1354" on="0"/>
        <pt x="143" y="1354" on="1"/>
        <pt x="57" y="1354" on="1"/>
        <pt x="57" y="1462" on="1"/>
        <pt x="647" y="1462" on="1"/>
        <pt x="987" y="473" on="1"/>
        <pt x="1313" y="1462" on="1"/>
        <pt x="1892" y="1462" on="1"/>
        <pt x="1892" y="1354" on="1"/>
        <pt x="1806" y="1354" on="1"/>
        <pt x="1784" y="1354" on="0"/>
        <pt x="1746" y="1345" on="0"/>
        <pt x="1718" y="1317" on="0"/>
        <pt x="1702" y="1265" on="0"/>
        <pt x="1702" y="1221" on="1"/>
        <pt x="1702" y="242" on="1"/>
        <pt x="1702" y="198" on="0"/>
        <pt x="1718" y="146" on="0"/>
        <pt x="1746" y="118" on="0"/>
        <pt x="1784" y="109" on="0"/>
        <pt x="1806" y="109" on="1"/>
        <pt x="1892" y="109" on="1"/>
        <pt x="1892" y="0" on="1"/>
      </contour>
    </TTGlyph>
    <TTGlyph name="N" xMin="57" yMin="0" xMax="1579" yMax="1462">
      <contour>
        <pt x="1200" y="0" on="1"/>
        <pt x="401" y="1128" on="1"/>
        <pt x="401" y="242" on="1"/>
        <pt x="401" y="198" on="0"/>
        <pt x="418" y="146" on="0"/>
        <pt x="446" y="118" on="0"/>
        <pt x="485" y="109" on="0"/>
        <pt x="506" y="109" on="1"/>
        <pt x="592" y="109" on="1"/>
        <pt x="592" y="0" on="1"/>
        <pt x="57" y="0" on="1"/>
        <pt x="57" y="109" on="1"/>
        <pt x="143" y="109" on="1"/>
        <pt x="165" y="109" on="0"/>
        <pt x="203" y="118" on="0"/>
        <pt x="232" y="146" on="0"/>
        <pt x="248" y="198" on="0"/>
        <pt x="248" y="242" on="1"/>
        <pt x="248" y="1229" on="1"/>
        <pt x="248" y="1270" on="0"/>
        <pt x="231" y="1319" on="0"/>
        <pt x="202" y="1345" on="0"/>
        <pt x="164" y="1354" on="0"/>
        <pt x="143" y="1354" on="1"/>
        <pt x="57" y="1354" on="1"/>
        <pt x="57" y="1462" on="1"/>
        <pt x="512" y="1462" on="1"/>
        <pt x="1235" y="440" on="1"/>
        <pt x="1235" y="1229" on="1"/>
        <pt x="1235" y="1270" on="0"/>
        <pt x="1218" y="1319" on="0"/>
        <pt x="1189" y="1345" on="0"/>
        <pt x="1151" y="1354" on="0"/>
        <pt x="1130" y="1354" on="1"/>
        <pt x="1044" y="1354" on="1"/>
        <pt x="1044" y="1462" on="1"/>
        <pt x="1579" y="1462" on="1"/>
        <pt x="1579" y="1354" on="1"/>
        <pt x="1493" y="1354" on="1"/>
        <pt x="1472" y="1354" on="0"/>
        <pt x="1434" y="1345" on="0"/>
        <pt x="1405" y="1317" on="0"/>
        <pt x="1389" y="1265" on="0"/>
        <pt x="1389" y="1221" on="1"/>
        <pt x="1389" y="0" on="1"/>
      </contour>
    </TTGlyph>
    <TTGlyph name="Ntilde" xMin="57" yMin="0" xMax="1579" yMax="1903">
      <component glyphName="N" x="0" y="0" flags="0x1204"/>
      <component glyphName="tilde" x="236" y="338" flags="0x1004"/>
    </TTGlyph>
    <TTGlyph name="O" xMin="113" yMin="-20" xMax="1499" yMax="1485">
      <contour>
        <pt x="1499" y="733" on="1"/>
        <pt x="1499" y="564" on="0"/>
        <pt x="1408" y="286" on="0"/>
        <pt x="1231" y="88" on="0"/>
        <pt x="974" y="-20" on="0"/>
        <pt x="807" y="-20" on="1"/>
        <pt x="632" y="-20" on="0"/>
        <pt x="371" y="88" on="0"/>
        <pt x="199" y="286" on="0"/>
        <pt x="113" y="565" on="0"/>
        <pt x="113" y="735" on="1"/>
        <pt x="113" y="905" on="0"/>
        <pt x="199" y="1182" on="0"/>
        <pt x="372" y="1378" on="0"/>
        <pt x="633" y="1485" on="0"/>
        <pt x="809" y="1485" on="1"/>
        <pt x="975" y="1485" on="0"/>
        <pt x="1232" y="1378" on="0"/>
        <pt x="1408" y="1181" on="0"/>
        <pt x="1499" y="904" on="0"/>
      </contour>
      <contour>
        <pt x="457" y="733" on="1"/>
        <pt x="457" y="586" on="0"/>
        <pt x="495" y="356" on="0"/>
        <pt x="579" y="197" on="0"/>
        <pt x="712" y="113" on="0"/>
        <pt x="807" y="113" on="1"/>
        <pt x="903" y="113" on="0"/>
        <pt x="1036" y="197" on="0"/>
        <pt x="1118" y="356" on="0"/>
        <pt x="1155" y="586" on="0"/>
        <pt x="1155" y="733" on="1"/>
        <pt x="1155" y="880" on="0"/>
        <pt x="1118" y="1110" on="0"/>
        <pt x="1036" y="1269" on="0"/>
        <pt x="904" y="1352" on="0"/>
        <pt x="809" y="1352" on="1"/>
        <pt x="713" y="1352" on="0"/>
        <pt x="579" y="1269" on="0"/>
        <pt x="495" y="1110" on="0"/>
        <pt x="457" y="880" on="0"/>
      </contour>
    </TTGlyph>
    <TTGlyph name="Oacute" xMin="113" yMin="-20" xMax="1499" yMax="1907">
      <component glyphName="O" x="0" y="0" flags="0x1204"/>
      <component glyphName="acute" x="336" y="338" flags="0x1004"/>
    </TTGlyph>
    <TTGlyph name="Ocircumflex" xMin="113" yMin="-20" xMax="1499" yMax="1907">
      <component glyphName="O" x="0" y="0" flags="0x1204"/>
      <component glyphName="circumflex" x="213" y="338" flags="0x1004"/>
    </TTGlyph>
    <TTGlyph name="Odieresis" xMin="113" yMin="-20" xMax="1499" yMax="1874">
      <component glyphName="O" x="0" y="0" flags="0x1204"/>
      <component glyphName="dieresis" x="205" y="338" flags="0x1004"/>
    </TTGlyph>
    <TTGlyph name="Ograve" xMin="113" yMin="-20" xMax="1499" yMax="1907">
      <component glyphName="O" x="0" y="0" flags="0x1204"/>
      <component glyphName="grave" x="100" y="338" flags="0x1004"/>
    </TTGlyph>
    <TTGlyph name="Oslash" xMin="113" yMin="-82" xMax="1499" yMax="1546">
      <contour>
        <pt x="1499" y="733" on="1"/>
        <pt x="1499" y="564" on="0"/>
        <pt x="1408" y="286" on="0"/>
        <pt x="1231" y="88" on="0"/>
        <pt x="974" y="-20" on="0"/>
        <pt x="807" y="-20" on="1"/>
        <pt x="634" y="-20" on="0"/>
        <pt x="504" y="33" on="1"/>
        <pt x="442" y="-82" on="1"/>
        <pt x="297" y="-82" on="1"/>
        <pt x="391" y="92" on="1"/>
        <pt x="251" y="188" on="0"/>
        <pt x="113" y="517" on="0"/>
        <pt x="113" y="735" on="1"/>
        <pt x="113" y="905" on="0"/>
        <pt x="199" y="1182" on="0"/>
        <pt x="372" y="1378" on="0"/>
        <pt x="633" y="1485" on="0"/>
        <pt x="809" y="1485" on="1"/>
        <pt x="894" y="1485" on="0"/>
        <pt x="1044" y="1455" on="0"/>
        <pt x="1110" y="1427" on="1"/>
        <pt x="1174" y="1546" on="1"/>
        <pt x="1317" y="1546" on="1"/>
        <pt x="1221" y="1368" on="1"/>
        <pt x="1357" y="1272" on="0"/>
        <pt x="1499" y="948" on="0"/>
      </contour>
      <contour>
        <pt x="457" y="733" on="1"/>
        <pt x="457" y="605" on="0"/>
        <pt x="485" y="401" on="0"/>
        <pt x="516" y="324" on="1"/>
        <pt x="1022" y="1266" on="1"/>
        <pt x="984" y="1308" on="0"/>
        <pt x="877" y="1352" on="0"/>
        <pt x="809" y="1352" on="1"/>
        <pt x="713" y="1352" on="0"/>
        <pt x="579" y="1269" on="0"/>
        <pt x="495" y="1110" on="0"/>
        <pt x="457" y="880" on="0"/>
      </contour>
      <contour>
        <pt x="1155" y="733" on="1"/>
        <pt x="1155" y="860" on="0"/>
        <pt x="1127" y="1063" on="0"/>
        <pt x="1098" y="1141" on="1"/>
        <pt x="592" y="197" on="1"/>
        <pt x="632" y="155" on="0"/>
        <pt x="738" y="113" on="0"/>
        <pt x="807" y="113" on="1"/>
        <pt x="903" y="113" on="0"/>
        <pt x="1036" y="197" on="0"/>
        <pt x="1118" y="356" on="0"/>
        <pt x="1155" y="586" on="0"/>
      </contour>
    </TTGlyph>
    <TTGlyph name="Otilde" xMin="113" yMin="-20" xMax="1499" yMax="1903">
      <component glyphName="O" x="0" y="0" flags="0x1204"/>
      <component glyphName="tilde" x="213" y="338" flags="0x1004"/>
    </TTGlyph>
    <TTGlyph name="P" xMin="57" yMin="0" xMax="1245" yMax="1462">
      <contour>
        <pt x="1245" y="1028" on="1"/>
        <pt x="1245" y="936" on="0"/>
        <pt x="1181" y="766" on="0"/>
        <pt x="1037" y="636" on="0"/>
        <pt x="807" y="559" on="0"/>
        <pt x="641" y="559" on="1"/>
        <pt x="571" y="559" on="1"/>
        <pt x="571" y="231" on="1"/>
        <pt x="571" y="191" on="0"/>
        <pt x="589" y="142" on="0"/>
        <pt x="619" y="117" on="0"/>
        <pt x="659" y="109" on="0"/>
        <pt x="680" y="109" on="1"/>
        <pt x="805" y="109" on="1"/>
        <pt x="805" y="0" on="1"/>
        <pt x="57" y="0" on="1"/>
        <pt x="57" y="109" on="1"/>
        <pt x="143" y="109" on="1"/>
        <pt x="166" y="109" on="0"/>
        <pt x="204" y="118" on="0"/>
        <pt x="232" y="146" on="0"/>
        <pt x="248" y="198" on="0"/>
        <pt x="248" y="242" on="1"/>
        <pt x="248" y="1229" on="1"/>
        <pt x="248" y="1270" on="0"/>
        <pt x="232" y="1319" on="0"/>
        <pt x="203" y="1345" on="0"/>
        <pt x="165" y="1354" on="0"/>
        <pt x="143" y="1354" on="1"/>
        <pt x="57" y="1354" on="1"/>
        <pt x="57" y="1462" on="1"/>
        <pt x="686" y="1462" on="1"/>
        <pt x="828" y="1462" on="0"/>
        <pt x="1038" y="1402" on="0"/>
        <pt x="1177" y="1289" on="0"/>
        <pt x="1245" y="1129" on="0"/>
      </contour>
      <contour>
        <pt x="571" y="678" on="1"/>
        <pt x="621" y="678" on="1"/>
        <pt x="697" y="678" on="0"/>
        <pt x="803" y="716" on="0"/>
        <pt x="870" y="798" on="0"/>
        <pt x="901" y="928" on="0"/>
        <pt x="901" y="1020" on="1"/>
        <pt x="901" y="1102" on="0"/>
        <pt x="874" y="1223" on="0"/>
        <pt x="815" y="1302" on="0"/>
        <pt x="720" y="1341" on="0"/>
        <pt x="651" y="1341" on="1"/>
        <pt x="571" y="1341" on="1"/>
      </contour>
    </TTGlyph>
    <TTGlyph name="Q" xMin="113" yMin="-492" xMax="1499" yMax="1485">
      <contour>
        <pt x="1499" y="733" on="1"/>
        <pt x="1499" y="589" on="0"/>
        <pt x="1434" y="346" on="0"/>
        <pt x="1308" y="158" on="0"/>
        <pt x="1122" y="29" on="0"/>
        <pt x="1001" y="0" on="1"/>
        <pt x="1010" y="-113" on="0"/>
        <pt x="1066" y="-258" on="0"/>
        <pt x="1147" y="-341" on="0"/>
        <pt x="1245" y="-373" on="0"/>
        <pt x="1296" y="-373" on="1"/>
        <pt x="1329" y="-373" on="1"/>
        <pt x="1329" y="-492" on="1"/>
        <pt x="1182" y="-492" on="1"/>
        <pt x="1090" y="-492" on="0"/>
        <pt x="911" y="-438" on="0"/>
        <pt x="766" y="-321" on="0"/>
        <pt x="669" y="-138" on="0"/>
        <pt x="659" y="-8" on="1"/>
        <pt x="521" y="13" on="0"/>
        <pt x="316" y="138" on="0"/>
        <pt x="180" y="330" on="0"/>
        <pt x="113" y="584" on="0"/>
        <pt x="113" y="735" on="1"/>
        <pt x="113" y="905" on="0"/>
        <pt x="199" y="1182" on="0"/>
        <pt x="372" y="1378" on="0"/>
        <pt x="633" y="1485" on="0"/>
        <pt x="809" y="1485" on="1"/>
        <pt x="975" y="1485" on="0"/>
        <pt x="1232" y="1378" on="0"/>
        <pt x="1408" y="1181" on="0"/>
        <pt x="1499" y="904" on="0"/>
      </contour>
      <contour>
        <pt x="457" y="733" on="1"/>
        <pt x="457" y="586" on="0"/>
        <pt x="495" y="356" on="0"/>
        <pt x="579" y="197" on="0"/>
        <pt x="712" y="113" on="0"/>
        <pt x="807" y="113" on="1"/>
        <pt x="903" y="113" on="0"/>
        <pt x="1036" y="197" on="0"/>
        <pt x="1118" y="356" on="0"/>
        <pt x="1155" y="586" on="0"/>
        <pt x="1155" y="733" on="1"/>
        <pt x="1155" y="880" on="0"/>
        <pt x="1118" y="1110" on="0"/>
        <pt x="1036" y="1269" on="0"/>
        <pt x="904" y="1352" on="0"/>
        <pt x="809" y="1352" on="1"/>
        <pt x="713" y="1352" on="0"/>
        <pt x="579" y="1269" on="0"/>
        <pt x="495" y="1110" on="0"/>
        <pt x="457" y="880" on="0"/>
      </contour>
    </TTGlyph>
    <TTGlyph name="R" xMin="57" yMin="0" xMax="1456" yMax="1462">
      <contour>
        <pt x="57" y="109" on="1"/>
        <pt x="143" y="109" on="1"/>
        <pt x="164" y="109" on="0"/>
        <pt x="202" y="117" on="0"/>
        <pt x="231" y="142" on="0"/>
        <pt x="248" y="191" on="0"/>
        <pt x="248" y="231" on="1"/>
        <pt x="248" y="1229" on="1"/>
        <pt x="248" y="1270" on="0"/>
        <pt x="231" y="1319" on="0"/>
        <pt x="202" y="1345" on="0"/>
        <pt x="164" y="1354" on="0"/>
        <pt x="143" y="1354" on="1"/>
        <pt x="57" y="1354" on="1"/>
        <pt x="57" y="1462" on="1"/>
        <pt x="717" y="1462" on="1"/>
        <pt x="1007" y="1462" on="0"/>
        <pt x="1278" y="1268" on="0"/>
        <pt x="1278" y="1083" on="1"/>
        <pt x="1278" y="1002" on="0"/>
        <pt x="1230" y="876" on="0"/>
        <pt x="1151" y="782" on="0"/>
        <pt x="1051" y="717" on="0"/>
        <pt x="999" y="696" on="1"/>
        <pt x="1243" y="276" on="1"/>
        <pt x="1269" y="232" on="0"/>
        <pt x="1318" y="169" on="0"/>
        <pt x="1367" y="128" on="0"/>
        <pt x="1419" y="109" on="0"/>
        <pt x="1448" y="109" on="1"/>
        <pt x="1456" y="109" on="1"/>
        <pt x="1456" y="0" on="1"/>
        <pt x="1389" y="0" on="1"/>
        <pt x="1297" y="0" on="0"/>
        <pt x="1160" y="14" on="0"/>
        <pt x="1057" y="55" on="0"/>
        <pt x="982" y="127" on="0"/>
        <pt x="950" y="184" on="1"/>
        <pt x="707" y="635" on="1"/>
        <pt x="571" y="635" on="1"/>
        <pt x="571" y="231" on="1"/>
        <pt x="571" y="191" on="0"/>
        <pt x="588" y="142" on="0"/>
        <pt x="617" y="117" on="0"/>
        <pt x="655" y="109" on="0"/>
        <pt x="676" y="109" on="1"/>
        <pt x="764" y="109" on="1"/>
        <pt x="764" y="0" on="1"/>
        <pt x="57" y="0" on="1"/>
      </contour>
      <contour>
        <pt x="571" y="754" on="1"/>
        <pt x="686" y="754" on="1"/>
        <pt x="757" y="754" on="0"/>
        <pt x="852" y="792" on="0"/>
        <pt x="909" y="867" on="0"/>
        <pt x="934" y="980" on="0"/>
        <pt x="934" y="1055" on="1"/>
        <pt x="934" y="1133" on="0"/>
        <pt x="906" y="1241" on="0"/>
        <pt x="846" y="1310" on="0"/>
        <pt x="750" y="1341" on="0"/>
        <pt x="682" y="1341" on="1"/>
        <pt x="571" y="1341" on="1"/>
      </contour>
    </TTGlyph>
    <TTGlyph name="S" xMin="61" yMin="-20" xMax="1098" yMax="1483">
      <contour>
        <pt x="541" y="-20" on="1"/>
        <pt x="403" y="-20" on="0"/>
        <pt x="219" y="32" on="0"/>
        <pt x="108" y="114" on="0"/>
        <pt x="61" y="216" on="0"/>
        <pt x="61" y="266" on="1"/>
        <pt x="61" y="319" on="0"/>
        <pt x="100" y="391" on="0"/>
        <pt x="165" y="437" on="0"/>
        <pt x="248" y="457" on="0"/>
        <pt x="293" y="457" on="1"/>
        <pt x="293" y="369" on="0"/>
        <pt x="335" y="236" on="0"/>
        <pt x="409" y="147" on="0"/>
        <pt x="512" y="102" on="0"/>
        <pt x="573" y="102" on="1"/>
        <pt x="633" y="102" on="0"/>
        <pt x="727" y="136" on="0"/>
        <pt x="793" y="196" on="0"/>
        <pt x="827" y="277" on="0"/>
        <pt x="827" y="324" on="1"/>
        <pt x="827" y="376" on="0"/>
        <pt x="785" y="457" on="0"/>
        <pt x="700" y="526" on="0"/>
        <pt x="571" y="589" on="0"/>
        <pt x="485" y="625" on="1"/>
        <pt x="378" y="669" on="0"/>
        <pt x="231" y="762" on="0"/>
        <pt x="141" y="870" on="0"/>
        <pt x="102" y="996" on="0"/>
        <pt x="102" y="1071" on="1"/>
        <pt x="102" y="1165" on="0"/>
        <pt x="178" y="1317" on="0"/>
        <pt x="312" y="1425" on="0"/>
        <pt x="496" y="1483" on="0"/>
        <pt x="604" y="1483" on="1"/>
        <pt x="717" y="1483" on="0"/>
        <pt x="881" y="1446" on="0"/>
        <pt x="988" y="1382" on="0"/>
        <pt x="1040" y="1295" on="0"/>
        <pt x="1040" y="1245" on="1"/>
        <pt x="1040" y="1209" on="0"/>
        <pt x="1009" y="1147" on="0"/>
        <pt x="946" y="1101" on="0"/>
        <pt x="851" y="1075" on="0"/>
        <pt x="788" y="1075" on="1"/>
        <pt x="788" y="1118" on="0"/>
        <pt x="765" y="1217" on="0"/>
        <pt x="713" y="1302" on="0"/>
        <pt x="630" y="1358" on="0"/>
        <pt x="571" y="1358" on="1"/>
        <pt x="530" y="1358" on="0"/>
        <pt x="456" y="1334" on="0"/>
        <pt x="401" y="1286" on="0"/>
        <pt x="369" y="1215" on="0"/>
        <pt x="369" y="1169" on="1"/>
        <pt x="369" y="1126" on="0"/>
        <pt x="397" y="1050" on="0"/>
        <pt x="472" y="977" on="0"/>
        <pt x="603" y="904" on="0"/>
        <pt x="707" y="862" on="1"/>
        <pt x="812" y="819" on="0"/>
        <pt x="960" y="729" on="0"/>
        <pt x="1055" y="626" on="0"/>
        <pt x="1098" y="503" on="0"/>
        <pt x="1098" y="428" on="1"/>
        <pt x="1098" y="329" on="0"/>
        <pt x="1020" y="164" on="0"/>
        <pt x="874" y="46" on="0"/>
        <pt x="669" y="-20" on="0"/>
      </contour>
    </TTGlyph>
    <TTGlyph name="T" xMin="20" yMin="0" xMax="1317" yMax="1462">
      <contour>
        <pt x="831" y="242" on="1"/>
        <pt x="831" y="198" on="0"/>
        <pt x="847" y="146" on="0"/>
        <pt x="876" y="118" on="0"/>
        <pt x="914" y="109" on="0"/>
        <pt x="936" y="109" on="1"/>
        <pt x="1022" y="109" on="1"/>
        <pt x="1022" y="0" on="1"/>
        <pt x="315" y="0" on="1"/>
        <pt x="315" y="109" on="1"/>
        <pt x="401" y="109" on="1"/>
        <pt x="424" y="109" on="0"/>
        <pt x="462" y="118" on="0"/>
        <pt x="490" y="146" on="0"/>
        <pt x="506" y="198" on="0"/>
        <pt x="506" y="242" on="1"/>
        <pt x="506" y="1337" on="1"/>
        <pt x="342" y="1337" on="1"/>
        <pt x="296" y="1337" on="0"/>
        <pt x="234" y="1317" on="0"/>
        <pt x="195" y="1280" on="0"/>
        <pt x="176" y="1226" on="0"/>
        <pt x="172" y="1192" on="1"/>
        <pt x="158" y="1065" on="1"/>
        <pt x="20" y="1065" on="1"/>
        <pt x="31" y="1462" on="1"/>
        <pt x="1307" y="1462" on="1"/>
        <pt x="1317" y="1065" on="1"/>
        <pt x="1180" y="1065" on="1"/>
        <pt x="1165" y="1192" on="1"/>
        <pt x="1161" y="1226" on="0"/>
        <pt x="1142" y="1280" on="0"/>
        <pt x="1103" y="1317" on="0"/>
        <pt x="1041" y="1337" on="0"/>
        <pt x="995" y="1337" on="1"/>
        <pt x="831" y="1337" on="1"/>
      </contour>
    </TTGlyph>
    <TTGlyph name="Thorn" xMin="57" yMin="0" xMax="1245" yMax="1462">
      <contour>
        <pt x="571" y="410" on="1"/>
        <pt x="621" y="410" on="1"/>
        <pt x="697" y="410" on="0"/>
        <pt x="803" y="448" on="0"/>
        <pt x="870" y="530" on="0"/>
        <pt x="901" y="660" on="0"/>
        <pt x="901" y="752" on="1"/>
        <pt x="901" y="834" on="0"/>
        <pt x="874" y="955" on="0"/>
        <pt x="815" y="1034" on="0"/>
        <pt x="720" y="1073" on="0"/>
        <pt x="651" y="1073" on="1"/>
        <pt x="571" y="1073" on="1"/>
      </contour>
      <contour>
        <pt x="1245" y="760" on="1"/>
        <pt x="1245" y="668" on="0"/>
        <pt x="1181" y="498" on="0"/>
        <pt x="1037" y="368" on="0"/>
        <pt x="807" y="291" on="0"/>
        <pt x="641" y="291" on="1"/>
        <pt x="571" y="291" on="1"/>
        <pt x="571" y="231" on="1"/>
        <pt x="573" y="191" on="0"/>
        <pt x="591" y="142" on="0"/>
        <pt x="620" y="117" on="0"/>
        <pt x="659" y="109" on="0"/>
        <pt x="680" y="109" on="1"/>
        <pt x="764" y="109" on="1"/>
        <pt x="764" y="0" on="1"/>
        <pt x="57" y="0" on="1"/>
        <pt x="57" y="109" on="1"/>
        <pt x="143" y="109" on="1"/>
        <pt x="166" y="109" on="0"/>
        <pt x="204" y="118" on="0"/>
        <pt x="232" y="146" on="0"/>
        <pt x="248" y="198" on="0"/>
        <pt x="248" y="242" on="1"/>
        <pt x="248" y="1221" on="1"/>
        <pt x="248" y="1265" on="0"/>
        <pt x="232" y="1317" on="0"/>
        <pt x="204" y="1345" on="0"/>
        <pt x="166" y="1354" on="0"/>
        <pt x="143" y="1354" on="1"/>
        <pt x="57" y="1354" on="1"/>
        <pt x="57" y="1462" on="1"/>
        <pt x="764" y="1462" on="1"/>
        <pt x="764" y="1354" on="1"/>
        <pt x="680" y="1354" on="1"/>
        <pt x="659" y="1354" on="0"/>
        <pt x="619" y="1346" on="0"/>
        <pt x="589" y="1320" on="0"/>
        <pt x="571" y="1272" on="0"/>
        <pt x="571" y="1231" on="1"/>
        <pt x="571" y="1194" on="1"/>
        <pt x="686" y="1194" on="1"/>
        <pt x="828" y="1192" on="0"/>
        <pt x="1038" y="1131" on="0"/>
        <pt x="1177" y="1020" on="0"/>
        <pt x="1245" y="861" on="0"/>
      </contour>
    </TTGlyph>
    <TTGlyph name="U" xMin="33" yMin="-20" xMax="1497" yMax="1462">
      <contour>
        <pt x="1497" y="1354" on="1"/>
        <pt x="1409" y="1354" on="1"/>
        <pt x="1388" y="1354" on="0"/>
        <pt x="1350" y="1345" on="0"/>
        <pt x="1321" y="1317" on="0"/>
        <pt x="1305" y="1265" on="0"/>
        <pt x="1305" y="1221" on="1"/>
        <pt x="1305" y="422" on="1"/>
        <pt x="1305" y="319" on="0"/>
        <pt x="1246" y="155" on="0"/>
        <pt x="1121" y="41" on="0"/>
        <pt x="927" y="-20" on="0"/>
        <pt x="793" y="-20" on="1"/>
        <pt x="659" y="-20" on="0"/>
        <pt x="448" y="31" on="0"/>
        <pt x="302" y="143" on="0"/>
        <pt x="225" y="320" on="0"/>
        <pt x="225" y="446" on="1"/>
        <pt x="225" y="1229" on="1"/>
        <pt x="225" y="1270" on="0"/>
        <pt x="208" y="1319" on="0"/>
        <pt x="179" y="1345" on="0"/>
        <pt x="142" y="1354" on="0"/>
        <pt x="121" y="1354" on="1"/>
        <pt x="33" y="1354" on="1"/>
        <pt x="33" y="1462" on="1"/>
        <pt x="739" y="1462" on="1"/>
        <pt x="739" y="1354" on="1"/>
        <pt x="653" y="1354" on="1"/>
        <pt x="632" y="1354" on="0"/>
        <pt x="594" y="1345" on="0"/>
        <pt x="565" y="1317" on="0"/>
        <pt x="549" y="1265" on="0"/>
        <pt x="549" y="1221" on="1"/>
        <pt x="549" y="430" on="1"/>
        <pt x="549" y="344" on="0"/>
        <pt x="592" y="227" on="0"/>
        <pt x="672" y="156" on="0"/>
        <pt x="784" y="125" on="0"/>
        <pt x="854" y="125" on="1"/>
        <pt x="922" y="125" on="0"/>
        <pt x="1032" y="160" on="0"/>
        <pt x="1109" y="234" on="0"/>
        <pt x="1151" y="348" on="0"/>
        <pt x="1151" y="426" on="1"/>
        <pt x="1151" y="1229" on="1"/>
        <pt x="1151" y="1270" on="0"/>
        <pt x="1135" y="1319" on="0"/>
        <pt x="1106" y="1345" on="0"/>
        <pt x="1068" y="1354" on="0"/>
        <pt x="1047" y="1354" on="1"/>
        <pt x="961" y="1354" on="1"/>
        <pt x="961" y="1462" on="1"/>
        <pt x="1497" y="1462" on="1"/>
      </contour>
    </TTGlyph>
    <TTGlyph name="Uacute" xMin="33" yMin="-20" xMax="1497" yMax="1907">
      <component glyphName="U" x="0" y="0" flags="0x1204"/>
      <component glyphName="acute" x="313" y="338" flags="0x1004"/>
    </TTGlyph>
    <TTGlyph name="Ucircumflex" xMin="33" yMin="-20" xMax="1497" yMax="1907">
      <component glyphName="U" x="0" y="0" flags="0x1204"/>
      <component glyphName="circumflex" x="227" y="338" flags="0x1004"/>
    </TTGlyph>
    <TTGlyph name="Udieresis" xMin="33" yMin="-20" xMax="1497" yMax="1874">
      <component glyphName="U" x="0" y="0" flags="0x1204"/>
      <component glyphName="dieresis" x="236" y="338" flags="0x1004"/>
    </TTGlyph>
    <TTGlyph name="Ugrave" xMin="33" yMin="-20" xMax="1497" yMax="1907">
      <component glyphName="U" x="0" y="0" flags="0x1204"/>
      <component glyphName="grave" x="100" y="338" flags="0x1004"/>
    </TTGlyph>
    <TTGlyph name="V" xMin="0" yMin="0" xMax="1430" yMax="1462">
      <contour>
        <pt x="1430" y="1354" on="1"/>
        <pt x="1331" y="1354" on="1"/>
        <pt x="1317" y="1354" on="0"/>
        <pt x="1295" y="1342" on="0"/>
        <pt x="1273" y="1309" on="0"/>
        <pt x="1249" y="1251" on="0"/>
        <pt x="1233" y="1204" on="1"/>
        <pt x="815" y="0" on="1"/>
        <pt x="610" y="0" on="1"/>
        <pt x="174" y="1255" on="1"/>
        <pt x="164" y="1284" on="0"/>
        <pt x="133" y="1323" on="0"/>
        <pt x="98" y="1345" on="0"/>
        <pt x="62" y="1354" on="0"/>
        <pt x="47" y="1354" on="1"/>
        <pt x="0" y="1354" on="1"/>
        <pt x="0" y="1462" on="1"/>
        <pt x="676" y="1462" on="1"/>
        <pt x="676" y="1354" on="1"/>
        <pt x="582" y="1354" on="1"/>
        <pt x="567" y="1354" on="0"/>
        <pt x="539" y="1347" on="0"/>
        <pt x="516" y="1331" on="0"/>
        <pt x="502" y="1305" on="0"/>
        <pt x="502" y="1286" on="1"/>
        <pt x="502" y="1266" on="0"/>
        <pt x="514" y="1215" on="0"/>
        <pt x="520" y="1198" on="1"/>
        <pt x="729" y="567" on="1"/>
        <pt x="737" y="544" on="0"/>
        <pt x="754" y="482" on="0"/>
        <pt x="770" y="414" on="0"/>
        <pt x="783" y="347" on="0"/>
        <pt x="786" y="319" on="1"/>
        <pt x="789" y="336" on="0"/>
        <pt x="804" y="395" on="0"/>
        <pt x="824" y="464" on="0"/>
        <pt x="845" y="533" on="0"/>
        <pt x="854" y="561" on="1"/>
        <pt x="1065" y="1184" on="1"/>
        <pt x="1069" y="1195" on="0"/>
        <pt x="1078" y="1222" on="0"/>
        <pt x="1085" y="1250" on="0"/>
        <pt x="1090" y="1276" on="0"/>
        <pt x="1090" y="1284" on="1"/>
        <pt x="1090" y="1318" on="0"/>
        <pt x="1045" y="1354" on="0"/>
        <pt x="1008" y="1354" on="1"/>
        <pt x="901" y="1354" on="1"/>
        <pt x="901" y="1462" on="1"/>
        <pt x="1430" y="1462" on="1"/>
      </contour>
    </TTGlyph>
    <TTGlyph name="W" xMin="0" yMin="0" xMax="2185" yMax="1462">
      <contour>
        <pt x="1237" y="1448" on="1"/>
        <pt x="1520" y="666" on="1"/>
        <pt x="1538" y="618" on="0"/>
        <pt x="1569" y="519" on="0"/>
        <pt x="1595" y="429" on="0"/>
        <pt x="1615" y="353" on="0"/>
        <pt x="1620" y="326" on="1"/>
        <pt x="1628" y="363" on="0"/>
        <pt x="1646" y="453" on="0"/>
        <pt x="1667" y="552" on="0"/>
        <pt x="1690" y="656" on="0"/>
        <pt x="1702" y="705" on="1"/>
        <pt x="1810" y="1147" on="1"/>
        <pt x="1813" y="1159" on="0"/>
        <pt x="1820" y="1191" on="0"/>
        <pt x="1826" y="1222" on="0"/>
        <pt x="1829" y="1249" on="0"/>
        <pt x="1829" y="1257" on="1"/>
        <pt x="1829" y="1310" on="0"/>
        <pt x="1766" y="1354" on="0"/>
        <pt x="1698" y="1354" on="1"/>
        <pt x="1651" y="1354" on="1"/>
        <pt x="1651" y="1462" on="1"/>
        <pt x="2185" y="1462" on="1"/>
        <pt x="2185" y="1354" on="1"/>
        <pt x="2146" y="1354" on="1"/>
        <pt x="2116" y="1354" on="0"/>
        <pt x="2070" y="1342" on="0"/>
        <pt x="2034" y="1307" on="0"/>
        <pt x="2005" y="1245" on="0"/>
        <pt x="1991" y="1194" on="1"/>
        <pt x="1673" y="0" on="1"/>
        <pt x="1440" y="0" on="1"/>
        <pt x="1096" y="961" on="1"/>
        <pt x="801" y="0" on="1"/>
        <pt x="547" y="0" on="1"/>
        <pt x="172" y="1245" on="1"/>
        <pt x="163" y="1277" on="0"/>
        <pt x="137" y="1319" on="0"/>
        <pt x="102" y="1344" on="0"/>
        <pt x="57" y="1354" on="0"/>
        <pt x="27" y="1354" on="1"/>
        <pt x="0" y="1354" on="1"/>
        <pt x="0" y="1462" on="1"/>
        <pt x="684" y="1462" on="1"/>
        <pt x="684" y="1354" on="1"/>
        <pt x="637" y="1354" on="1"/>
        <pt x="575" y="1354" on="0"/>
        <pt x="514" y="1306" on="0"/>
        <pt x="514" y="1255" on="1"/>
        <pt x="514" y="1238" on="0"/>
        <pt x="527" y="1173" on="0"/>
        <pt x="535" y="1145" on="1"/>
        <pt x="672" y="672" on="1"/>
        <pt x="683" y="633" on="0"/>
        <pt x="708" y="542" on="0"/>
        <pt x="730" y="449" on="0"/>
        <pt x="748" y="363" on="0"/>
        <pt x="752" y="330" on="1"/>
        <pt x="766" y="396" on="0"/>
        <pt x="799" y="511" on="0"/>
        <pt x="817" y="571" on="1"/>
        <pt x="1087" y="1448" on="1"/>
      </contour>
    </TTGlyph>
    <TTGlyph name="X" xMin="20" yMin="0" xMax="1479" yMax="1462">
      <contour>
        <pt x="1071" y="1294" on="1"/>
        <pt x="1071" y="1312" on="0"/>
        <pt x="1053" y="1336" on="0"/>
        <pt x="1022" y="1349" on="0"/>
        <pt x="980" y="1354" on="0"/>
        <pt x="956" y="1354" on="1"/>
        <pt x="950" y="1354" on="1"/>
        <pt x="950" y="1462" on="1"/>
        <pt x="1430" y="1462" on="1"/>
        <pt x="1430" y="1354" on="1"/>
        <pt x="1411" y="1354" on="1"/>
        <pt x="1381" y="1354" on="0"/>
        <pt x="1333" y="1339" on="0"/>
        <pt x="1286" y="1304" on="0"/>
        <pt x="1238" y="1248" on="0"/>
        <pt x="1208" y="1206" on="1"/>
        <pt x="911" y="801" on="1"/>
        <pt x="1288" y="217" on="1"/>
        <pt x="1328" y="154" on="0"/>
        <pt x="1414" y="109" on="0"/>
        <pt x="1452" y="109" on="1"/>
        <pt x="1479" y="109" on="1"/>
        <pt x="1479" y="0" on="1"/>
        <pt x="803" y="0" on="1"/>
        <pt x="803" y="109" on="1"/>
        <pt x="813" y="109" on="1"/>
        <pt x="936" y="109" on="0"/>
        <pt x="936" y="176" on="1"/>
        <pt x="936" y="188" on="0"/>
        <pt x="932" y="210" on="0"/>
        <pt x="917" y="240" on="0"/>
        <pt x="891" y="284" on="0"/>
        <pt x="868" y="317" on="1"/>
        <pt x="680" y="602" on="1"/>
        <pt x="459" y="303" on="1"/>
        <pt x="440" y="277" on="0"/>
        <pt x="406" y="210" on="0"/>
        <pt x="406" y="178" on="1"/>
        <pt x="406" y="144" on="0"/>
        <pt x="462" y="109" on="0"/>
        <pt x="530" y="109" on="1"/>
        <pt x="537" y="109" on="1"/>
        <pt x="537" y="0" on="1"/>
        <pt x="20" y="0" on="1"/>
        <pt x="20" y="109" on="1"/>
        <pt x="33" y="109" on="1"/>
        <pt x="70" y="109" on="0"/>
        <pt x="126" y="129" on="0"/>
        <pt x="175" y="166" on="0"/>
        <pt x="221" y="219" on="0"/>
        <pt x="246" y="252" on="1"/>
        <pt x="604" y="719" on="1"/>
        <pt x="266" y="1245" on="1"/>
        <pt x="249" y="1272" on="0"/>
        <pt x="216" y="1313" on="0"/>
        <pt x="175" y="1340" on="0"/>
        <pt x="125" y="1354" on="0"/>
        <pt x="90" y="1354" on="1"/>
        <pt x="63" y="1354" on="1"/>
        <pt x="63" y="1462" on="1"/>
        <pt x="741" y="1462" on="1"/>
        <pt x="741" y="1354" on="1"/>
        <pt x="735" y="1354" on="1"/>
        <pt x="700" y="1354" on="0"/>
        <pt x="653" y="1345" on="0"/>
        <pt x="625" y="1328" on="0"/>
        <pt x="614" y="1306" on="0"/>
        <pt x="614" y="1294" on="1"/>
        <pt x="614" y="1273" on="0"/>
        <pt x="645" y="1209" on="0"/>
        <pt x="668" y="1174" on="1"/>
        <pt x="838" y="920" on="1"/>
        <pt x="1016" y="1169" on="1"/>
        <pt x="1034" y="1197" on="0"/>
        <pt x="1071" y="1266" on="0"/>
      </contour>
    </TTGlyph>
    <TTGlyph name="Y" xMin="0" yMin="0" xMax="1419" yMax="1462">
      <contour>
        <pt x="336" y="0" on="1"/>
        <pt x="336" y="109" on="1"/>
        <pt x="432" y="109" on="1"/>
        <pt x="457" y="109" on="0"/>
        <pt x="500" y="115" on="0"/>
        <pt x="532" y="140" on="0"/>
        <pt x="551" y="190" on="0"/>
        <pt x="551" y="233" on="1"/>
        <pt x="551" y="518" on="1"/>
        <pt x="172" y="1245" on="1"/>
        <pt x="157" y="1275" on="0"/>
        <pt x="130" y="1317" on="0"/>
        <pt x="98" y="1342" on="0"/>
        <pt x="57" y="1354" on="0"/>
        <pt x="27" y="1354" on="1"/>
        <pt x="0" y="1354" on="1"/>
        <pt x="0" y="1462" on="1"/>
        <pt x="686" y="1462" on="1"/>
        <pt x="686" y="1354" on="1"/>
        <pt x="651" y="1354" on="1"/>
        <pt x="589" y="1354" on="0"/>
        <pt x="528" y="1304" on="0"/>
        <pt x="528" y="1262" on="1"/>
        <pt x="528" y="1236" on="0"/>
        <pt x="547" y="1175" on="0"/>
        <pt x="559" y="1149" on="1"/>
        <pt x="711" y="848" on="1"/>
        <pt x="743" y="783" on="0"/>
        <pt x="784" y="683" on="0"/>
        <pt x="801" y="635" on="1"/>
        <pt x="822" y="689" on="0"/>
        <pt x="877" y="816" on="0"/>
        <pt x="911" y="885" on="1"/>
        <pt x="1030" y="1130" on="1"/>
        <pt x="1052" y="1175" on="0"/>
        <pt x="1065" y="1236" on="0"/>
        <pt x="1065" y="1253" on="1"/>
        <pt x="1065" y="1306" on="0"/>
        <pt x="998" y="1354" on="0"/>
        <pt x="930" y="1354" on="1"/>
        <pt x="883" y="1354" on="1"/>
        <pt x="883" y="1462" on="1"/>
        <pt x="1419" y="1462" on="1"/>
        <pt x="1419" y="1354" on="1"/>
        <pt x="1380" y="1354" on="1"/>
        <pt x="1354" y="1354" on="0"/>
        <pt x="1317" y="1340" on="0"/>
        <pt x="1284" y="1304" on="0"/>
        <pt x="1249" y="1242" on="0"/>
        <pt x="1225" y="1194" on="1"/>
        <pt x="877" y="516" on="1"/>
        <pt x="877" y="236" on="1"/>
        <pt x="877" y="191" on="0"/>
        <pt x="895" y="141" on="0"/>
        <pt x="926" y="115" on="0"/>
        <pt x="967" y="109" on="0"/>
        <pt x="991" y="109" on="1"/>
        <pt x="1092" y="109" on="1"/>
        <pt x="1092" y="0" on="1"/>
      </contour>
    </TTGlyph>
    <TTGlyph name="Yacute" xMin="0" yMin="0" xMax="1419" yMax="1907">
      <component glyphName="Y" x="0" y="0" flags="0x1204"/>
      <component glyphName="acute" x="272" y="338" flags="0x1004"/>
    </TTGlyph>
    <TTGlyph name="Z" xMin="86" yMin="0" xMax="1274" yMax="1462">
      <contour>
        <pt x="1229" y="1358" on="1"/>
        <pt x="459" y="125" on="1"/>
        <pt x="901" y="125" on="1"/>
        <pt x="964" y="125" on="0"/>
        <pt x="1044" y="160" on="0"/>
        <pt x="1091" y="218" on="0"/>
        <pt x="1112" y="291" on="0"/>
        <pt x="1116" y="330" on="1"/>
        <pt x="1126" y="422" on="1"/>
        <pt x="1274" y="422" on="1"/>
        <pt x="1264" y="0" on="1"/>
        <pt x="86" y="0" on="1"/>
        <pt x="86" y="102" on="1"/>
        <pt x="854" y="1337" on="1"/>
        <pt x="451" y="1337" on="1"/>
        <pt x="403" y="1337" on="0"/>
        <pt x="341" y="1311" on="0"/>
        <pt x="304" y="1262" on="0"/>
        <pt x="287" y="1193" on="0"/>
        <pt x="283" y="1151" on="1"/>
        <pt x="272" y="1040" on="1"/>
        <pt x="125" y="1040" on="1"/>
        <pt x="135" y="1462" on="1"/>
        <pt x="1229" y="1462" on="1"/>
      </contour>
    </TTGlyph>
    <TTGlyph name="a" xMin="92" yMin="-20" xMax="1161" yMax="1124">
      <contour>
        <pt x="410" y="305" on="1"/>
        <pt x="410" y="217" on="0"/>
        <pt x="466" y="129" on="0"/>
        <pt x="526" y="129" on="1"/>
        <pt x="570" y="129" on="0"/>
        <pt x="641" y="166" on="0"/>
        <pt x="692" y="234" on="0"/>
        <pt x="719" y="331" on="0"/>
        <pt x="719" y="391" on="1"/>
        <pt x="719" y="545" on="1"/>
        <pt x="627" y="539" on="1"/>
        <pt x="566" y="536" on="0"/>
        <pt x="482" y="503" on="0"/>
        <pt x="432" y="445" on="0"/>
        <pt x="410" y="361" on="0"/>
      </contour>
      <contour>
        <pt x="592" y="999" on="1"/>
        <pt x="553" y="999" on="0"/>
        <pt x="500" y="966" on="0"/>
        <pt x="468" y="907" on="0"/>
        <pt x="455" y="826" on="0"/>
        <pt x="455" y="778" on="1"/>
        <pt x="317" y="778" on="0"/>
        <pt x="178" y="840" on="0"/>
        <pt x="178" y="915" on="1"/>
        <pt x="178" y="971" on="0"/>
        <pt x="245" y="1051" on="0"/>
        <pt x="360" y="1101" on="0"/>
        <pt x="513" y="1124" on="0"/>
        <pt x="600" y="1124" on="1"/>
        <pt x="708" y="1124" on="0"/>
        <pt x="869" y="1087" on="0"/>
        <pt x="976" y="1005" on="0"/>
        <pt x="1030" y="872" on="0"/>
        <pt x="1030" y="776" on="1"/>
        <pt x="1030" y="254" on="1"/>
        <pt x="1030" y="212" on="0"/>
        <pt x="1043" y="156" on="0"/>
        <pt x="1071" y="123" on="0"/>
        <pt x="1119" y="109" on="0"/>
        <pt x="1153" y="109" on="1"/>
        <pt x="1161" y="109" on="1"/>
        <pt x="1161" y="0" on="1"/>
        <pt x="780" y="0" on="1"/>
        <pt x="737" y="141" on="1"/>
        <pt x="719" y="141" on="1"/>
        <pt x="685" y="100" on="0"/>
        <pt x="625" y="39" on="0"/>
        <pt x="557" y="-1" on="0"/>
        <pt x="472" y="-20" on="0"/>
        <pt x="414" y="-20" on="1"/>
        <pt x="346" y="-20" on="0"/>
        <pt x="229" y="20" on="0"/>
        <pt x="142" y="103" on="0"/>
        <pt x="92" y="228" on="0"/>
        <pt x="92" y="313" on="1"/>
        <pt x="92" y="480" on="0"/>
        <pt x="321" y="640" on="0"/>
        <pt x="551" y="647" on="1"/>
        <pt x="719" y="653" on="1"/>
        <pt x="719" y="766" on="1"/>
        <pt x="719" y="817" on="0"/>
        <pt x="711" y="903" on="0"/>
        <pt x="685" y="965" on="0"/>
        <pt x="634" y="999" on="0"/>
      </contour>
    </TTGlyph>
    <TTGlyph name="aacute" xMin="92" yMin="-20" xMax="1161" yMax="1569">
      <component glyphName="a" x="0" y="0" flags="0x1204"/>
      <component glyphName="acute" x="137" y="0" flags="0x1004"/>
    </TTGlyph>
    <TTGlyph name="acircumflex" xMin="92" yMin="-20" xMax="1161" yMax="1569">
      <component glyphName="a" x="0" y="0" flags="0x1204"/>
      <component glyphName="circumflex" x="29" y="0" flags="0x1004"/>
    </TTGlyph>
    <TTGlyph name="acute" xMin="330" yMin="1241" xMax="850" yMax="1569">
      <contour>
        <pt x="330" y="1268" on="1"/>
        <pt x="352" y="1297" on="0"/>
        <pt x="407" y="1373" on="0"/>
        <pt x="463" y="1454" on="0"/>
        <pt x="512" y="1535" on="0"/>
        <pt x="528" y="1569" on="1"/>
        <pt x="850" y="1569" on="1"/>
        <pt x="850" y="1548" on="1"/>
        <pt x="831" y="1521" on="0"/>
        <pt x="743" y="1440" on="0"/>
        <pt x="634" y="1352" on="0"/>
        <pt x="517" y="1269" on="0"/>
        <pt x="469" y="1241" on="1"/>
        <pt x="330" y="1241" on="1"/>
      </contour>
    </TTGlyph>
    <TTGlyph name="adieresis" xMin="92" yMin="-20" xMax="1161" yMax="1536">
      <component glyphName="a" x="0" y="0" flags="0x1204"/>
      <component glyphName="dieresis" x="20" y="0" flags="0x1004"/>
    </TTGlyph>
    <TTGlyph name="ae" xMin="92" yMin="-20" xMax="1706" yMax="1124">
      <contour>
        <pt x="410" y="305" on="1"/>
        <pt x="410" y="217" on="0"/>
        <pt x="466" y="129" on="0"/>
        <pt x="526" y="129" on="1"/>
        <pt x="570" y="129" on="0"/>
        <pt x="641" y="166" on="0"/>
        <pt x="692" y="234" on="0"/>
        <pt x="719" y="331" on="0"/>
        <pt x="719" y="391" on="1"/>
        <pt x="719" y="545" on="1"/>
        <pt x="627" y="539" on="1"/>
        <pt x="566" y="536" on="0"/>
        <pt x="482" y="503" on="0"/>
        <pt x="432" y="445" on="0"/>
        <pt x="410" y="361" on="0"/>
      </contour>
      <contour>
        <pt x="1231" y="991" on="1"/>
        <pt x="1146" y="991" on="0"/>
        <pt x="1043" y="821" on="0"/>
        <pt x="1038" y="657" on="1"/>
        <pt x="1393" y="657" on="1"/>
        <pt x="1393" y="817" on="0"/>
        <pt x="1315" y="991" on="0"/>
      </contour>
      <contour>
        <pt x="1253" y="-20" on="1"/>
        <pt x="1102" y="-20" on="0"/>
        <pt x="883" y="80" on="0"/>
        <pt x="817" y="176" on="1"/>
        <pt x="748" y="73" on="0"/>
        <pt x="544" y="-20" on="0"/>
        <pt x="414" y="-20" on="1"/>
        <pt x="346" y="-20" on="0"/>
        <pt x="229" y="20" on="0"/>
        <pt x="142" y="103" on="0"/>
        <pt x="92" y="228" on="0"/>
        <pt x="92" y="313" on="1"/>
        <pt x="92" y="480" on="0"/>
        <pt x="321" y="640" on="0"/>
        <pt x="551" y="647" on="1"/>
        <pt x="719" y="653" on="1"/>
        <pt x="719" y="766" on="1"/>
        <pt x="719" y="817" on="0"/>
        <pt x="711" y="903" on="0"/>
        <pt x="685" y="965" on="0"/>
        <pt x="634" y="999" on="0"/>
        <pt x="592" y="999" on="1"/>
        <pt x="553" y="999" on="0"/>
        <pt x="500" y="966" on="0"/>
        <pt x="468" y="907" on="0"/>
        <pt x="455" y="826" on="0"/>
        <pt x="455" y="778" on="1"/>
        <pt x="317" y="778" on="0"/>
        <pt x="178" y="840" on="0"/>
        <pt x="178" y="915" on="1"/>
        <pt x="178" y="971" on="0"/>
        <pt x="245" y="1051" on="0"/>
        <pt x="360" y="1101" on="0"/>
        <pt x="513" y="1124" on="0"/>
        <pt x="600" y="1124" on="1"/>
        <pt x="709" y="1124" on="0"/>
        <pt x="872" y="1070" on="0"/>
        <pt x="926" y="1008" on="1"/>
        <pt x="986" y="1065" on="0"/>
        <pt x="1136" y="1124" on="0"/>
        <pt x="1227" y="1124" on="1"/>
        <pt x="1338" y="1124" on="0"/>
        <pt x="1516" y="1061" on="0"/>
        <pt x="1640" y="937" on="0"/>
        <pt x="1706" y="753" on="0"/>
        <pt x="1706" y="631" on="1"/>
        <pt x="1706" y="526" on="1"/>
        <pt x="1034" y="526" on="1"/>
        <pt x="1037" y="423" on="0"/>
        <pt x="1076" y="275" on="0"/>
        <pt x="1146" y="179" on="0"/>
        <pt x="1245" y="133" on="0"/>
        <pt x="1309" y="133" on="1"/>
        <pt x="1362" y="133" on="0"/>
        <pt x="1452" y="158" on="0"/>
        <pt x="1525" y="203" on="0"/>
        <pt x="1579" y="264" on="0"/>
        <pt x="1597" y="299" on="1"/>
        <pt x="1653" y="269" on="0"/>
        <pt x="1653" y="199" on="1"/>
        <pt x="1653" y="155" on="0"/>
        <pt x="1606" y="76" on="0"/>
        <pt x="1508" y="16" on="0"/>
        <pt x="1357" y="-20" on="0"/>
      </contour>
    </TTGlyph>
    <TTGlyph name="agrave" xMin="92" yMin="-20" xMax="1161" yMax="1569">
      <component glyphName="a" x="0" y="0" flags="0x1204"/>
      <component glyphName="grave" x="-95" y="0" flags="0x1004"/>
    </TTGlyph>
    <TTGlyph name="ampersand" xMin="96" yMin="-20" xMax="1614" yMax="1483">
      <contour>
        <pt x="1208" y="0" on="1"/>
        <pt x="1067" y="150" on="1"/>
        <pt x="1029" y="112" on="0"/>
        <pt x="936" y="50" on="0"/>
        <pt x="824" y="5" on="0"/>
        <pt x="693" y="-20" on="0"/>
        <pt x="616" y="-20" on="1"/>
        <pt x="490" y="-20" on="0"/>
        <pt x="296" y="39" on="0"/>
        <pt x="164" y="151" on="0"/>
        <pt x="96" y="313" on="0"/>
        <pt x="96" y="416" on="1"/>
        <pt x="96" y="506" on="0"/>
        <pt x="153" y="633" on="0"/>
        <pt x="249" y="726" on="0"/>
        <pt x="376" y="791" on="0"/>
        <pt x="446" y="819" on="1"/>
        <pt x="406" y="867" on="0"/>
        <pt x="347" y="954" on="0"/>
        <pt x="309" y="1040" on="0"/>
        <pt x="291" y="1130" on="0"/>
        <pt x="291" y="1182" on="1"/>
        <pt x="291" y="1250" on="0"/>
        <pt x="343" y="1360" on="0"/>
        <pt x="446" y="1440" on="0"/>
        <pt x="600" y="1483" on="0"/>
        <pt x="702" y="1483" on="1"/>
        <pt x="801" y="1483" on="0"/>
        <pt x="948" y="1437" on="0"/>
        <pt x="1045" y="1357" on="0"/>
        <pt x="1094" y="1251" on="0"/>
        <pt x="1094" y="1192" on="1"/>
        <pt x="1094" y="1130" on="0"/>
        <pt x="1056" y="1030" on="0"/>
        <pt x="979" y="945" on="0"/>
        <pt x="862" y="871" on="0"/>
        <pt x="782" y="834" on="1"/>
        <pt x="787" y="826" on="0"/>
        <pt x="797" y="819" on="1"/>
        <pt x="1087" y="514" on="1"/>
        <pt x="1100" y="585" on="0"/>
        <pt x="1108" y="724" on="0"/>
        <pt x="1108" y="782" on="1"/>
        <pt x="1108" y="872" on="1"/>
        <pt x="1556" y="872" on="1"/>
        <pt x="1556" y="764" on="1"/>
        <pt x="1524" y="764" on="1"/>
        <pt x="1490" y="764" on="0"/>
        <pt x="1425" y="756" on="0"/>
        <pt x="1369" y="727" on="0"/>
        <pt x="1326" y="672" on="0"/>
        <pt x="1313" y="625" on="1"/>
        <pt x="1297" y="568" on="0"/>
        <pt x="1254" y="439" on="0"/>
        <pt x="1223" y="373" on="1"/>
        <pt x="1427" y="160" on="1"/>
        <pt x="1456" y="129" on="0"/>
        <pt x="1540" y="109" on="0"/>
        <pt x="1595" y="109" on="1"/>
        <pt x="1614" y="109" on="1"/>
        <pt x="1614" y="0" on="1"/>
      </contour>
      <contour>
        <pt x="397" y="406" on="1"/>
        <pt x="397" y="345" on="0"/>
        <pt x="436" y="240" on="0"/>
        <pt x="506" y="162" on="0"/>
        <pt x="607" y="117" on="0"/>
        <pt x="668" y="117" on="1"/>
        <pt x="777" y="117" on="0"/>
        <pt x="927" y="188" on="0"/>
        <pt x="977" y="248" on="1"/>
        <pt x="539" y="715" on="1"/>
        <pt x="496" y="684" on="0"/>
        <pt x="441" y="615" on="0"/>
        <pt x="409" y="538" on="0"/>
        <pt x="397" y="453" on="0"/>
      </contour>
      <contour>
        <pt x="846" y="1190" on="1"/>
        <pt x="846" y="1226" on="0"/>
        <pt x="833" y="1288" on="0"/>
        <pt x="801" y="1334" on="0"/>
        <pt x="745" y="1360" on="0"/>
        <pt x="702" y="1360" on="1"/>
        <pt x="668" y="1360" on="0"/>
        <pt x="617" y="1334" on="0"/>
        <pt x="585" y="1288" on="0"/>
        <pt x="569" y="1225" on="0"/>
        <pt x="569" y="1188" on="1"/>
        <pt x="569" y="1153" on="0"/>
        <pt x="585" y="1089" on="0"/>
        <pt x="616" y="1026" on="0"/>
        <pt x="664" y="962" on="0"/>
        <pt x="696" y="926" on="1"/>
        <pt x="739" y="950" on="0"/>
        <pt x="797" y="1004" on="0"/>
        <pt x="831" y="1067" on="0"/>
        <pt x="846" y="1143" on="0"/>
      </contour>
    </TTGlyph>
    <TTGlyph name="aring" xMin="92" yMin="-20" xMax="1161" yMax="1667">
      <component glyphName="a" x="0" y="0" flags="0x1204"/>
      <component glyphName="ring" x="279" y="0" flags="0x1004"/>
    </TTGlyph>
    <TTGlyph name="asciicircum" xMin="94" yMin="537" xMax="1049" yMax="1462">
      <contour>
        <pt x="526" y="1462" on="1"/>
        <pt x="614" y="1462" on="1"/>
        <pt x="1049" y="537" on="1"/>
        <pt x="889" y="537" on="1"/>
        <pt x="569" y="1239" on="1"/>
        <pt x="254" y="537" on="1"/>
        <pt x="94" y="537" on="1"/>
      </contour>
    </TTGlyph>
    <TTGlyph name="asciitilde" xMin="113" yMin="598" xMax="1036" yMax="866">
      <contour>
        <pt x="541" y="664" on="1"/>
        <pt x="504" y="680" on="0"/>
        <pt x="448" y="701" on="0"/>
        <pt x="403" y="714" on="0"/>
        <pt x="362" y="719" on="0"/>
        <pt x="340" y="719" on="1"/>
        <pt x="312" y="719" on="0"/>
        <pt x="252" y="700" on="0"/>
        <pt x="193" y="668" on="0"/>
        <pt x="137" y="624" on="0"/>
        <pt x="113" y="598" on="1"/>
        <pt x="113" y="756" on="1"/>
        <pt x="212" y="864" on="0"/>
        <pt x="360" y="864" on="1"/>
        <pt x="389" y="864" on="0"/>
        <pt x="439" y="859" on="0"/>
        <pt x="494" y="846" on="0"/>
        <pt x="561" y="821" on="0"/>
        <pt x="608" y="801" on="1"/>
        <pt x="645" y="785" on="0"/>
        <pt x="701" y="763" on="0"/>
        <pt x="747" y="750" on="0"/>
        <pt x="788" y="745" on="0"/>
        <pt x="809" y="745" on="1"/>
        <pt x="838" y="745" on="0"/>
        <pt x="897" y="764" on="0"/>
        <pt x="956" y="797" on="0"/>
        <pt x="1012" y="841" on="0"/>
        <pt x="1036" y="866" on="1"/>
        <pt x="1036" y="709" on="1"/>
        <pt x="938" y="600" on="0"/>
        <pt x="788" y="600" on="1"/>
        <pt x="759" y="600" on="0"/>
        <pt x="710" y="605" on="0"/>
        <pt x="655" y="619" on="0"/>
        <pt x="588" y="644" on="0"/>
      </contour>
    </TTGlyph>
    <TTGlyph name="asterisk" xMin="72" yMin="752" xMax="956" yMax="1556">
      <contour>
        <pt x="72" y="1237" on="1"/>
        <pt x="164" y="1444" on="1"/>
        <pt x="469" y="1223" on="1"/>
        <pt x="401" y="1556" on="1"/>
        <pt x="631" y="1556" on="1"/>
        <pt x="557" y="1227" on="1"/>
        <pt x="864" y="1440" on="1"/>
        <pt x="956" y="1235" on="1"/>
        <pt x="637" y="1155" on="1"/>
        <pt x="956" y="1073" on="1"/>
        <pt x="864" y="870" on="1"/>
        <pt x="557" y="1083" on="1"/>
        <pt x="629" y="752" on="1"/>
        <pt x="401" y="752" on="1"/>
        <pt x="467" y="1085" on="1"/>
        <pt x="164" y="868" on="1"/>
        <pt x="72" y="1071" on="1"/>
        <pt x="391" y="1155" on="1"/>
      </contour>
    </TTGlyph>
    <TTGlyph name="at" xMin="104" yMin="-291" xMax="1806" yMax="1462">
      <contour>
        <pt x="1806" y="803" on="1"/>
        <pt x="1806" y="650" on="0"/>
        <pt x="1732" y="410" on="0"/>
        <pt x="1612" y="245" on="0"/>
        <pt x="1461" y="158" on="0"/>
        <pt x="1384" y="158" on="1"/>
        <pt x="1293" y="158" on="0"/>
        <pt x="1167" y="247" on="0"/>
        <pt x="1133" y="350" on="1"/>
        <pt x="1120" y="350" on="1"/>
        <pt x="1099" y="310" on="0"/>
        <pt x="1045" y="240" on="0"/>
        <pt x="977" y="188" on="0"/>
        <pt x="892" y="158" on="0"/>
        <pt x="838" y="158" on="1"/>
        <pt x="774" y="158" on="0"/>
        <pt x="657" y="200" on="0"/>
        <pt x="568" y="286" on="0"/>
        <pt x="516" y="418" on="0"/>
        <pt x="516" y="508" on="1"/>
        <pt x="516" y="563" on="0"/>
        <pt x="542" y="691" on="0"/>
        <pt x="599" y="818" on="0"/>
        <pt x="686" y="937" on="0"/>
        <pt x="809" y="1028" on="0"/>
        <pt x="968" y="1083" on="0"/>
        <pt x="1067" y="1083" on="1"/>
        <pt x="1138" y="1083" on="0"/>
        <pt x="1240" y="1047" on="0"/>
        <pt x="1272" y="1022" on="1"/>
        <pt x="1358" y="1065" on="1"/>
        <pt x="1407" y="1065" on="1"/>
        <pt x="1321" y="553" on="1"/>
        <pt x="1319" y="541" on="0"/>
        <pt x="1314" y="503" on="0"/>
        <pt x="1310" y="463" on="0"/>
        <pt x="1307" y="426" on="0"/>
        <pt x="1307" y="414" on="1"/>
        <pt x="1307" y="372" on="0"/>
        <pt x="1325" y="318" on="0"/>
        <pt x="1353" y="287" on="0"/>
        <pt x="1388" y="276" on="0"/>
        <pt x="1405" y="276" on="1"/>
        <pt x="1446" y="276" on="0"/>
        <pt x="1529" y="344" on="0"/>
        <pt x="1597" y="475" on="0"/>
        <pt x="1640" y="669" on="0"/>
        <pt x="1640" y="795" on="1"/>
        <pt x="1640" y="935" on="0"/>
        <pt x="1555" y="1146" on="0"/>
        <pt x="1404" y="1287" on="0"/>
        <pt x="1195" y="1358" on="0"/>
        <pt x="1071" y="1358" on="1"/>
        <pt x="974" y="1358" on="0"/>
        <pt x="785" y="1304" on="0"/>
        <pt x="614" y="1200" on="0"/>
        <pt x="470" y="1049" on="0"/>
        <pt x="364" y="856" on="0"/>
        <pt x="305" y="622" on="0"/>
        <pt x="305" y="487" on="1"/>
        <pt x="305" y="306" on="0"/>
        <pt x="413" y="50" on="0"/>
        <pt x="598" y="-112" on="0"/>
        <pt x="845" y="-186" on="0"/>
        <pt x="983" y="-186" on="1"/>
        <pt x="1066" y="-186" on="0"/>
        <pt x="1224" y="-156" on="0"/>
        <pt x="1366" y="-108" on="0"/>
        <pt x="1488" y="-46" on="0"/>
        <pt x="1536" y="-14" on="1"/>
        <pt x="1585" y="-92" on="1"/>
        <pt x="1531" y="-133" on="0"/>
        <pt x="1394" y="-205" on="0"/>
        <pt x="1233" y="-259" on="0"/>
        <pt x="1052" y="-291" on="0"/>
        <pt x="954" y="-291" on="1"/>
        <pt x="837" y="-291" on="0"/>
        <pt x="621" y="-248" on="0"/>
        <pt x="432" y="-160" on="0"/>
        <pt x="276" y="-29" on="0"/>
        <pt x="165" y="147" on="0"/>
        <pt x="104" y="367" on="0"/>
        <pt x="104" y="500" on="1"/>
        <pt x="104" y="637" on="0"/>
        <pt x="171" y="887" on="0"/>
        <pt x="294" y="1100" on="0"/>
        <pt x="470" y="1273" on="0"/>
        <pt x="688" y="1396" on="0"/>
        <pt x="943" y="1462" on="0"/>
        <pt x="1085" y="1462" on="1"/>
        <pt x="1263" y="1462" on="0"/>
        <pt x="1533" y="1360" on="0"/>
        <pt x="1714" y="1183" on="0"/>
        <pt x="1806" y="942" on="0"/>
      </contour>
      <contour>
        <pt x="768" y="487" on="1"/>
        <pt x="768" y="385" on="0"/>
        <pt x="840" y="276" on="0"/>
        <pt x="899" y="276" on="1"/>
        <pt x="943" y="276" on="0"/>
        <pt x="1006" y="318" on="0"/>
        <pt x="1049" y="387" on="0"/>
        <pt x="1077" y="473" on="0"/>
        <pt x="1085" y="518" on="1"/>
        <pt x="1167" y="936" on="1"/>
        <pt x="1161" y="950" on="0"/>
        <pt x="1138" y="971" on="0"/>
        <pt x="1108" y="986" on="0"/>
        <pt x="1075" y="993" on="0"/>
        <pt x="1059" y="993" on="1"/>
        <pt x="1007" y="993" on="0"/>
        <pt x="924" y="941" on="0"/>
        <pt x="859" y="856" on="0"/>
        <pt x="813" y="747" on="0"/>
        <pt x="782" y="635" on="0"/>
        <pt x="768" y="528" on="0"/>
      </contour>
    </TTGlyph>
    <TTGlyph name="atilde" xMin="92" yMin="-20" xMax="1161" yMax="1565">
      <component glyphName="a" x="0" y="0" flags="0x1204"/>
      <component glyphName="tilde" x="27" y="0" flags="0x1004"/>
    </TTGlyph>
    <TTGlyph name="b" xMin="35" yMin="-20" xMax="1233" yMax="1556">
      <contour>
        <pt x="1233" y="553" on="1"/>
        <pt x="1233" y="404" on="0"/>
        <pt x="1178" y="188" on="0"/>
        <pt x="1072" y="47" on="0"/>
        <pt x="915" y="-20" on="0"/>
        <pt x="813" y="-20" on="1"/>
        <pt x="754" y="-20" on="0"/>
        <pt x="658" y="6" on="0"/>
        <pt x="581" y="54" on="0"/>
        <pt x="522" y="120" on="0"/>
        <pt x="500" y="160" on="1"/>
        <pt x="481" y="160" on="1"/>
        <pt x="424" y="0" on="1"/>
        <pt x="35" y="0" on="1"/>
        <pt x="35" y="109" on="1"/>
        <pt x="49" y="109" on="1"/>
        <pt x="78" y="109" on="0"/>
        <pt x="134" y="119" on="0"/>
        <pt x="178" y="149" on="0"/>
        <pt x="205" y="205" on="0"/>
        <pt x="205" y="252" on="1"/>
        <pt x="205" y="1311" on="1"/>
        <pt x="205" y="1355" on="0"/>
        <pt x="179" y="1408" on="0"/>
        <pt x="135" y="1438" on="0"/>
        <pt x="76" y="1448" on="0"/>
        <pt x="43" y="1448" on="1"/>
        <pt x="35" y="1448" on="1"/>
        <pt x="35" y="1556" on="1"/>
        <pt x="516" y="1556" on="1"/>
        <pt x="516" y="1206" on="1"/>
        <pt x="516" y="1174" on="0"/>
        <pt x="511" y="1088" on="0"/>
        <pt x="508" y="1050" on="1"/>
        <pt x="504" y="1005" on="0"/>
        <pt x="500" y="958" on="1"/>
        <pt x="514" y="958" on="1"/>
        <pt x="558" y="1034" on="0"/>
        <pt x="705" y="1122" on="0"/>
        <pt x="821" y="1122" on="1"/>
        <pt x="921" y="1122" on="0"/>
        <pt x="1074" y="1055" on="0"/>
        <pt x="1179" y="916" on="0"/>
        <pt x="1233" y="701" on="0"/>
      </contour>
      <contour>
        <pt x="725" y="971" on="1"/>
        <pt x="664" y="971" on="0"/>
        <pt x="584" y="920" on="0"/>
        <pt x="536" y="816" on="0"/>
        <pt x="516" y="659" on="0"/>
        <pt x="516" y="553" on="1"/>
        <pt x="516" y="452" on="0"/>
        <pt x="536" y="295" on="0"/>
        <pt x="584" y="188" on="0"/>
        <pt x="666" y="133" on="0"/>
        <pt x="727" y="133" on="1"/>
        <pt x="828" y="133" on="0"/>
        <pt x="918" y="351" on="0"/>
        <pt x="918" y="555" on="1"/>
        <pt x="918" y="764" on="0"/>
        <pt x="828" y="971" on="0"/>
      </contour>
    </TTGlyph>
    <TTGlyph name="backslash" xMin="0" yMin="-248" xMax="590" yMax="1556">
      <contour>
        <pt x="0" y="1556" on="1"/>
        <pt x="145" y="1556" on="1"/>
        <pt x="590" y="-248" on="1"/>
        <pt x="442" y="-248" on="1"/>
      </contour>
    </TTGlyph>
    <TTGlyph name="bar" xMin="498" yMin="-492" xMax="645" yMax="1556">
      <contour>
        <pt x="645" y="-492" on="1"/>
        <pt x="498" y="-492" on="1"/>
        <pt x="498" y="1556" on="1"/>
        <pt x="645" y="1556" on="1"/>
      </contour>
    </TTGlyph>
    <TTGlyph name="braceleft" xMin="61" yMin="-256" xMax="844" yMax="1556">
      <contour>
        <pt x="649" y="-256" on="1"/>
        <pt x="563" y="-256" on="0"/>
        <pt x="432" y="-214" on="0"/>
        <pt x="344" y="-135" on="0"/>
        <pt x="299" y="-23" on="0"/>
        <pt x="299" y="47" on="1"/>
        <pt x="299" y="397" on="1"/>
        <pt x="299" y="456" on="0"/>
        <pt x="262" y="529" on="0"/>
        <pt x="198" y="571" on="0"/>
        <pt x="111" y="588" on="0"/>
        <pt x="61" y="590" on="1"/>
        <pt x="61" y="715" on="1"/>
        <pt x="111" y="717" on="0"/>
        <pt x="198" y="733" on="0"/>
        <pt x="262" y="775" on="0"/>
        <pt x="299" y="848" on="0"/>
        <pt x="299" y="905" on="1"/>
        <pt x="299" y="1257" on="1"/>
        <pt x="299" y="1401" on="0"/>
        <pt x="476" y="1556" on="0"/>
        <pt x="649" y="1556" on="1"/>
        <pt x="844" y="1556" on="1"/>
        <pt x="844" y="1448" on="1"/>
        <pt x="764" y="1448" on="1"/>
        <pt x="720" y="1448" on="0"/>
        <pt x="664" y="1422" on="0"/>
        <pt x="631" y="1372" on="0"/>
        <pt x="618" y="1297" on="0"/>
        <pt x="618" y="1249" on="1"/>
        <pt x="618" y="901" on="1"/>
        <pt x="618" y="808" on="0"/>
        <pt x="512" y="689" on="0"/>
        <pt x="393" y="662" on="1"/>
        <pt x="393" y="645" on="1"/>
        <pt x="511" y="616" on="0"/>
        <pt x="618" y="496" on="0"/>
        <pt x="618" y="403" on="1"/>
        <pt x="618" y="53" on="1"/>
        <pt x="618" y="5" on="0"/>
        <pt x="631" y="-70" on="0"/>
        <pt x="664" y="-121" on="0"/>
        <pt x="720" y="-147" on="0"/>
        <pt x="764" y="-147" on="1"/>
        <pt x="844" y="-147" on="1"/>
        <pt x="844" y="-256" on="1"/>
      </contour>
    </TTGlyph>
    <TTGlyph name="braceright" xMin="61" yMin="-256" xMax="844" yMax="1556">
      <contour>
        <pt x="61" y="-256" on="1"/>
        <pt x="61" y="-147" on="1"/>
        <pt x="141" y="-147" on="1"/>
        <pt x="185" y="-147" on="0"/>
        <pt x="241" y="-121" on="0"/>
        <pt x="274" y="-70" on="0"/>
        <pt x="287" y="5" on="0"/>
        <pt x="287" y="53" on="1"/>
        <pt x="287" y="403" on="1"/>
        <pt x="287" y="496" on="0"/>
        <pt x="394" y="616" on="0"/>
        <pt x="512" y="645" on="1"/>
        <pt x="512" y="662" on="1"/>
        <pt x="393" y="689" on="0"/>
        <pt x="287" y="808" on="0"/>
        <pt x="287" y="901" on="1"/>
        <pt x="287" y="1249" on="1"/>
        <pt x="287" y="1297" on="0"/>
        <pt x="274" y="1372" on="0"/>
        <pt x="241" y="1422" on="0"/>
        <pt x="185" y="1448" on="0"/>
        <pt x="141" y="1448" on="1"/>
        <pt x="61" y="1448" on="1"/>
        <pt x="61" y="1556" on="1"/>
        <pt x="256" y="1556" on="1"/>
        <pt x="429" y="1556" on="0"/>
        <pt x="606" y="1401" on="0"/>
        <pt x="606" y="1257" on="1"/>
        <pt x="606" y="905" on="1"/>
        <pt x="606" y="848" on="0"/>
        <pt x="643" y="775" on="0"/>
        <pt x="707" y="733" on="0"/>
        <pt x="794" y="717" on="0"/>
        <pt x="844" y="715" on="1"/>
        <pt x="844" y="590" on="1"/>
        <pt x="794" y="588" on="0"/>
        <pt x="707" y="571" on="0"/>
        <pt x="643" y="529" on="0"/>
        <pt x="606" y="456" on="0"/>
        <pt x="606" y="397" on="1"/>
        <pt x="606" y="47" on="1"/>
        <pt x="606" y="-23" on="0"/>
        <pt x="561" y="-135" on="0"/>
        <pt x="473" y="-214" on="0"/>
        <pt x="342" y="-256" on="0"/>
        <pt x="256" y="-256" on="1"/>
      </contour>
    </TTGlyph>
    <TTGlyph name="bracketleft" xMin="205" yMin="-262" xMax="772" yMax="1556">
      <contour>
        <pt x="205" y="-262" on="1"/>
        <pt x="205" y="1556" on="1"/>
        <pt x="772" y="1556" on="1"/>
        <pt x="772" y="1448" on="1"/>
        <pt x="684" y="1448" on="1"/>
        <pt x="650" y="1448" on="0"/>
        <pt x="588" y="1438" on="0"/>
        <pt x="543" y="1407" on="0"/>
        <pt x="516" y="1349" on="0"/>
        <pt x="516" y="1300" on="1"/>
        <pt x="516" y="-6" on="1"/>
        <pt x="516" y="-54" on="0"/>
        <pt x="543" y="-113" on="0"/>
        <pt x="588" y="-144" on="0"/>
        <pt x="650" y="-154" on="0"/>
        <pt x="684" y="-154" on="1"/>
        <pt x="772" y="-154" on="1"/>
        <pt x="772" y="-262" on="1"/>
      </contour>
    </TTGlyph>
    <TTGlyph name="bracketright" xMin="76" yMin="-262" xMax="643" yMax="1556">
      <contour>
        <pt x="643" y="1556" on="1"/>
        <pt x="643" y="-262" on="1"/>
        <pt x="76" y="-262" on="1"/>
        <pt x="76" y="-154" on="1"/>
        <pt x="164" y="-154" on="1"/>
        <pt x="199" y="-154" on="0"/>
        <pt x="260" y="-144" on="0"/>
        <pt x="305" y="-113" on="0"/>
        <pt x="332" y="-54" on="0"/>
        <pt x="332" y="-6" on="1"/>
        <pt x="332" y="1300" on="1"/>
        <pt x="332" y="1349" on="0"/>
        <pt x="305" y="1407" on="0"/>
        <pt x="260" y="1438" on="0"/>
        <pt x="199" y="1448" on="0"/>
        <pt x="164" y="1448" on="1"/>
        <pt x="76" y="1448" on="1"/>
        <pt x="76" y="1556" on="1"/>
      </contour>
    </TTGlyph>
    <TTGlyph name="brokenbar" xMin="498" yMin="-492" xMax="645" yMax="1556">
      <contour>
        <pt x="645" y="737" on="1"/>
        <pt x="498" y="737" on="1"/>
        <pt x="498" y="1556" on="1"/>
        <pt x="645" y="1556" on="1"/>
      </contour>
      <contour>
        <pt x="645" y="-492" on="1"/>
        <pt x="498" y="-492" on="1"/>
        <pt x="498" y="328" on="1"/>
        <pt x="645" y="328" on="1"/>
      </contour>
    </TTGlyph>
    <TTGlyph name="bullet" xMin="115" yMin="406" xMax="705" yMax="1053">
      <contour>
        <pt x="115" y="729" on="1"/>
        <pt x="115" y="821" on="0"/>
        <pt x="159" y="946" on="0"/>
        <pt x="238" y="1021" on="0"/>
        <pt x="346" y="1053" on="0"/>
        <pt x="410" y="1053" on="1"/>
        <pt x="470" y="1053" on="0"/>
        <pt x="578" y="1021" on="0"/>
        <pt x="658" y="946" on="0"/>
        <pt x="705" y="821" on="0"/>
        <pt x="705" y="729" on="1"/>
        <pt x="705" y="638" on="0"/>
        <pt x="658" y="514" on="0"/>
        <pt x="578" y="438" on="0"/>
        <pt x="470" y="406" on="0"/>
        <pt x="410" y="406" on="1"/>
        <pt x="346" y="406" on="0"/>
        <pt x="238" y="438" on="0"/>
        <pt x="159" y="514" on="0"/>
        <pt x="115" y="638" on="0"/>
      </contour>
    </TTGlyph>
    <TTGlyph name="c" xMin="96" yMin="-20" xMax="1004" yMax="1124">
      <contour>
        <pt x="604" y="-20" on="1"/>
        <pt x="491" y="-20" on="0"/>
        <pt x="304" y="38" on="0"/>
        <pt x="170" y="172" on="0"/>
        <pt x="96" y="388" on="0"/>
        <pt x="96" y="545" on="1"/>
        <pt x="96" y="711" on="0"/>
        <pt x="173" y="933" on="0"/>
        <pt x="308" y="1067" on="0"/>
        <pt x="492" y="1124" on="0"/>
        <pt x="598" y="1124" on="1"/>
        <pt x="697" y="1124" on="0"/>
        <pt x="849" y="1091" on="0"/>
        <pt x="951" y="1033" on="0"/>
        <pt x="1004" y="954" on="0"/>
        <pt x="1004" y="909" on="1"/>
        <pt x="1004" y="876" on="0"/>
        <pt x="981" y="813" on="0"/>
        <pt x="922" y="765" on="0"/>
        <pt x="819" y="735" on="0"/>
        <pt x="739" y="735" on="1"/>
        <pt x="739" y="788" on="0"/>
        <pt x="726" y="884" on="0"/>
        <pt x="696" y="956" on="0"/>
        <pt x="645" y="999" on="0"/>
        <pt x="606" y="999" on="1"/>
        <pt x="561" y="999" on="0"/>
        <pt x="490" y="956" on="0"/>
        <pt x="439" y="852" on="0"/>
        <pt x="412" y="678" on="0"/>
        <pt x="412" y="547" on="1"/>
        <pt x="412" y="339" on="0"/>
        <pt x="526" y="133" on="0"/>
        <pt x="655" y="133" on="1"/>
        <pt x="708" y="133" on="0"/>
        <pt x="801" y="158" on="0"/>
        <pt x="877" y="203" on="0"/>
        <pt x="934" y="264" on="0"/>
        <pt x="952" y="299" on="1"/>
        <pt x="977" y="284" on="0"/>
        <pt x="1001" y="233" on="0"/>
        <pt x="1001" y="205" on="1"/>
        <pt x="1001" y="166" on="0"/>
        <pt x="955" y="86" on="0"/>
        <pt x="858" y="21" on="0"/>
        <pt x="708" y="-20" on="0"/>
      </contour>
    </TTGlyph>
    <TTGlyph name="ccedilla" xMin="96" yMin="-492" xMax="1004" yMax="1124">
      <component glyphName="c" x="0" y="0" flags="0x1204"/>
      <component glyphName="cedilla" x="268" y="0" flags="0x1004"/>
    </TTGlyph>
    <TTGlyph name="cedilla" xMin="102" yMin="-492" xMax="571" yMax="18">
      <contour>
        <pt x="571" y="-258" on="1"/>
        <pt x="571" y="-312" on="0"/>
        <pt x="529" y="-399" on="0"/>
        <pt x="453" y="-460" on="0"/>
        <pt x="346" y="-492" on="0"/>
        <pt x="281" y="-492" on="1"/>
        <pt x="265" y="-492" on="0"/>
        <pt x="219" y="-489" on="0"/>
        <pt x="169" y="-483" on="0"/>
        <pt x="121" y="-474" on="0"/>
        <pt x="102" y="-469" on="1"/>
        <pt x="102" y="-344" on="1"/>
        <pt x="140" y="-352" on="0"/>
        <pt x="214" y="-360" on="0"/>
        <pt x="242" y="-360" on="1"/>
        <pt x="300" y="-360" on="0"/>
        <pt x="367" y="-319" on="0"/>
        <pt x="367" y="-266" on="1"/>
        <pt x="367" y="-236" on="0"/>
        <pt x="344" y="-198" on="0"/>
        <pt x="302" y="-175" on="0"/>
        <pt x="246" y="-164" on="0"/>
        <pt x="213" y="-162" on="1"/>
        <pt x="256" y="18" on="1"/>
        <pt x="373" y="18" on="1"/>
        <pt x="352" y="-70" on="1"/>
        <pt x="402" y="-74" on="0"/>
        <pt x="483" y="-103" on="0"/>
        <pt x="540" y="-151" on="0"/>
        <pt x="571" y="-218" on="0"/>
      </contour>
    </TTGlyph>
    <TTGlyph name="cent" xMin="117" yMin="0" xMax="1061" yMax="1462">
      <contour>
        <pt x="571" y="170" on="1"/>
        <pt x="468" y="177" on="0"/>
        <pt x="301" y="246" on="0"/>
        <pt x="182" y="380" on="0"/>
        <pt x="117" y="587" on="0"/>
        <pt x="117" y="733" on="1"/>
        <pt x="117" y="886" on="0"/>
        <pt x="185" y="1099" on="0"/>
        <pt x="306" y="1235" on="0"/>
        <pt x="473" y="1303" on="0"/>
        <pt x="571" y="1311" on="1"/>
        <pt x="571" y="1462" on="1"/>
        <pt x="698" y="1462" on="1"/>
        <pt x="698" y="1311" on="1"/>
        <pt x="786" y="1306" on="0"/>
        <pt x="922" y="1269" on="0"/>
        <pt x="1014" y="1212" on="0"/>
        <pt x="1061" y="1139" on="0"/>
        <pt x="1061" y="1098" on="1"/>
        <pt x="1061" y="1065" on="0"/>
        <pt x="1038" y="1002" on="0"/>
        <pt x="979" y="954" on="0"/>
        <pt x="877" y="924" on="0"/>
        <pt x="797" y="924" on="1"/>
        <pt x="797" y="967" on="0"/>
        <pt x="787" y="1049" on="0"/>
        <pt x="764" y="1117" on="0"/>
        <pt x="726" y="1166" on="0"/>
        <pt x="698" y="1178" on="1"/>
        <pt x="698" y="322" on="1"/>
        <pt x="750" y="323" on="0"/>
        <pt x="841" y="350" on="0"/>
        <pt x="916" y="393" on="0"/>
        <pt x="973" y="452" on="0"/>
        <pt x="991" y="487" on="1"/>
        <pt x="1017" y="472" on="0"/>
        <pt x="1042" y="421" on="0"/>
        <pt x="1042" y="393" on="1"/>
        <pt x="1042" y="358" on="0"/>
        <pt x="1001" y="284" on="0"/>
        <pt x="917" y="221" on="0"/>
        <pt x="787" y="176" on="0"/>
        <pt x="698" y="170" on="1"/>
        <pt x="698" y="0" on="1"/>
        <pt x="571" y="0" on="1"/>
      </contour>
      <contour>
        <pt x="430" y="735" on="1"/>
        <pt x="430" y="577" on="0"/>
        <pt x="497" y="383" on="0"/>
        <pt x="571" y="346" on="1"/>
        <pt x="571" y="1174" on="1"/>
        <pt x="538" y="1159" on="0"/>
        <pt x="486" y="1096" on="0"/>
        <pt x="449" y="991" on="0"/>
        <pt x="430" y="839" on="0"/>
      </contour>
    </TTGlyph>
    <TTGlyph name="circumflex" xMin="227" yMin="1241" xMax="954" yMax="1569">
      <contour>
        <pt x="227" y="1268" on="1"/>
        <pt x="251" y="1297" on="0"/>
        <pt x="316" y="1373" on="0"/>
        <pt x="380" y="1454" on="0"/>
        <pt x="437" y="1535" on="0"/>
        <pt x="453" y="1569" on="1"/>
        <pt x="729" y="1569" on="1"/>
        <pt x="745" y="1535" on="0"/>
        <pt x="802" y="1454" on="0"/>
        <pt x="866" y="1373" on="0"/>
        <pt x="930" y="1297" on="0"/>
        <pt x="954" y="1268" on="1"/>
        <pt x="954" y="1241" on="1"/>
        <pt x="813" y="1241" on="1"/>
        <pt x="792" y="1258" on="0"/>
        <pt x="734" y="1304" on="0"/>
        <pt x="672" y="1354" on="0"/>
        <pt x="613" y="1404" on="0"/>
        <pt x="590" y="1425" on="1"/>
        <pt x="567" y="1404" on="0"/>
        <pt x="508" y="1354" on="0"/>
        <pt x="447" y="1304" on="0"/>
        <pt x="390" y="1258" on="0"/>
        <pt x="369" y="1241" on="1"/>
        <pt x="227" y="1241" on="1"/>
      </contour>
    </TTGlyph>
    <TTGlyph name="colon" xMin="143" yMin="-16" xMax="479" yMax="1116">
      <contour>
        <pt x="143" y="147" on="1"/>
        <pt x="143" y="194" on="0"/>
        <pt x="169" y="257" on="0"/>
        <pt x="214" y="295" on="0"/>
        <pt x="276" y="311" on="0"/>
        <pt x="311" y="311" on="1"/>
        <pt x="345" y="311" on="0"/>
        <pt x="406" y="295" on="0"/>
        <pt x="452" y="257" on="0"/>
        <pt x="479" y="194" on="0"/>
        <pt x="479" y="147" on="1"/>
        <pt x="479" y="101" on="0"/>
        <pt x="452" y="39" on="0"/>
        <pt x="406" y="1" on="0"/>
        <pt x="345" y="-16" on="0"/>
        <pt x="311" y="-16" on="1"/>
        <pt x="276" y="-16" on="0"/>
        <pt x="214" y="1" on="0"/>
        <pt x="169" y="39" on="0"/>
        <pt x="143" y="101" on="0"/>
      </contour>
      <contour>
        <pt x="143" y="952" on="1"/>
        <pt x="143" y="999" on="0"/>
        <pt x="169" y="1062" on="0"/>
        <pt x="214" y="1100" on="0"/>
        <pt x="276" y="1116" on="0"/>
        <pt x="311" y="1116" on="1"/>
        <pt x="345" y="1116" on="0"/>
        <pt x="406" y="1100" on="0"/>
        <pt x="452" y="1062" on="0"/>
        <pt x="479" y="999" on="0"/>
        <pt x="479" y="952" on="1"/>
        <pt x="479" y="906" on="0"/>
        <pt x="452" y="843" on="0"/>
        <pt x="406" y="805" on="0"/>
        <pt x="345" y="788" on="0"/>
        <pt x="311" y="788" on="1"/>
        <pt x="276" y="788" on="0"/>
        <pt x="214" y="805" on="0"/>
        <pt x="169" y="843" on="0"/>
        <pt x="143" y="906" on="0"/>
      </contour>
    </TTGlyph>
    <TTGlyph name="comma" xMin="92" yMin="-315" xMax="459" yMax="311">
      <contour>
        <pt x="459" y="86" on="1"/>
        <pt x="459" y="21" on="0"/>
        <pt x="419" y="-101" on="0"/>
        <pt x="331" y="-205" on="0"/>
        <pt x="192" y="-288" on="0"/>
        <pt x="92" y="-315" on="1"/>
        <pt x="92" y="-209" on="1"/>
        <pt x="137" y="-193" on="0"/>
        <pt x="204" y="-161" on="0"/>
        <pt x="249" y="-124" on="0"/>
        <pt x="272" y="-79" on="0"/>
        <pt x="272" y="-49" on="1"/>
        <pt x="272" y="-30" on="0"/>
        <pt x="250" y="-5" on="0"/>
        <pt x="217" y="17" on="0"/>
        <pt x="178" y="40" on="0"/>
        <pt x="145" y="76" on="0"/>
        <pt x="123" y="129" on="0"/>
        <pt x="123" y="170" on="1"/>
        <pt x="123" y="239" on="0"/>
        <pt x="207" y="311" on="0"/>
        <pt x="270" y="311" on="1"/>
        <pt x="357" y="311" on="0"/>
        <pt x="459" y="191" on="0"/>
      </contour>
    </TTGlyph>
    <TTGlyph name="copyright" xMin="113" yMin="-20" xMax="1618" yMax="1485">
      <contour>
        <pt x="113" y="731" on="1"/>
        <pt x="113" y="835" on="0"/>
        <pt x="167" y="1028" on="0"/>
        <pt x="264" y="1195" on="0"/>
        <pt x="401" y="1333" on="0"/>
        <pt x="568" y="1431" on="0"/>
        <pt x="760" y="1485" on="0"/>
        <pt x="864" y="1485" on="1"/>
        <pt x="968" y="1485" on="0"/>
        <pt x="1161" y="1431" on="0"/>
        <pt x="1328" y="1333" on="0"/>
        <pt x="1466" y="1195" on="0"/>
        <pt x="1564" y="1028" on="0"/>
        <pt x="1618" y="835" on="0"/>
        <pt x="1618" y="731" on="1"/>
        <pt x="1618" y="627" on="0"/>
        <pt x="1564" y="435" on="0"/>
        <pt x="1466" y="268" on="0"/>
        <pt x="1328" y="131" on="0"/>
        <pt x="1161" y="33" on="0"/>
        <pt x="968" y="-20" on="0"/>
        <pt x="864" y="-20" on="1"/>
        <pt x="760" y="-20" on="0"/>
        <pt x="568" y="33" on="0"/>
        <pt x="401" y="131" on="0"/>
        <pt x="264" y="268" on="0"/>
        <pt x="167" y="435" on="0"/>
        <pt x="113" y="627" on="0"/>
      </contour>
      <contour>
        <pt x="225" y="731" on="1"/>
        <pt x="225" y="643" on="0"/>
        <pt x="271" y="480" on="0"/>
        <pt x="354" y="338" on="0"/>
        <pt x="471" y="221" on="0"/>
        <pt x="613" y="138" on="0"/>
        <pt x="776" y="92" on="0"/>
        <pt x="864" y="92" on="1"/>
        <pt x="953" y="92" on="0"/>
        <pt x="1117" y="138" on="0"/>
        <pt x="1259" y="221" on="0"/>
        <pt x="1376" y="338" on="0"/>
        <pt x="1459" y="480" on="0"/>
        <pt x="1505" y="643" on="0"/>
        <pt x="1505" y="731" on="1"/>
        <pt x="1505" y="819" on="0"/>
        <pt x="1459" y="983" on="0"/>
        <pt x="1376" y="1126" on="0"/>
        <pt x="1259" y="1243" on="0"/>
        <pt x="1117" y="1326" on="0"/>
        <pt x="953" y="1372" on="0"/>
        <pt x="864" y="1372" on="1"/>
        <pt x="776" y="1372" on="0"/>
        <pt x="613" y="1326" on="0"/>
        <pt x="471" y="1243" on="0"/>
        <pt x="354" y="1126" on="0"/>
        <pt x="271" y="983" on="0"/>
        <pt x="225" y="820" on="0"/>
      </contour>
      <contour>
        <pt x="901" y="365" on="1"/>
        <pt x="948" y="365" on="0"/>
        <pt x="1028" y="389" on="0"/>
        <pt x="1092" y="429" on="0"/>
        <pt x="1139" y="479" on="0"/>
        <pt x="1153" y="504" on="1"/>
        <pt x="1165" y="495" on="0"/>
        <pt x="1182" y="462" on="0"/>
        <pt x="1182" y="440" on="1"/>
        <pt x="1182" y="412" on="0"/>
        <pt x="1143" y="354" on="0"/>
        <pt x="1066" y="306" on="0"/>
        <pt x="951" y="276" on="0"/>
        <pt x="874" y="276" on="1"/>
        <pt x="772" y="276" on="0"/>
        <pt x="619" y="342" on="0"/>
        <pt x="516" y="462" on="0"/>
        <pt x="465" y="630" on="0"/>
        <pt x="465" y="733" on="1"/>
        <pt x="465" y="833" on="0"/>
        <pt x="521" y="999" on="0"/>
        <pt x="632" y="1119" on="0"/>
        <pt x="795" y="1186" on="0"/>
        <pt x="903" y="1186" on="1"/>
        <pt x="974" y="1186" on="0"/>
        <pt x="1079" y="1163" on="0"/>
        <pt x="1149" y="1124" on="0"/>
        <pt x="1184" y="1071" on="0"/>
        <pt x="1184" y="1040" on="1"/>
        <pt x="1184" y="1018" on="0"/>
        <pt x="1162" y="982" on="0"/>
        <pt x="1124" y="957" on="0"/>
        <pt x="1073" y="944" on="0"/>
        <pt x="1044" y="944" on="1"/>
        <pt x="1044" y="973" on="0"/>
        <pt x="1029" y="1028" on="0"/>
        <pt x="995" y="1073" on="0"/>
        <pt x="940" y="1100" on="0"/>
        <pt x="899" y="1100" on="1"/>
        <pt x="827" y="1100" on="0"/>
        <pt x="726" y="1052" on="0"/>
        <pt x="662" y="958" on="0"/>
        <pt x="633" y="822" on="0"/>
        <pt x="633" y="733" on="1"/>
        <pt x="633" y="556" on="0"/>
        <pt x="771" y="365" on="0"/>
      </contour>
    </TTGlyph>
    <TTGlyph name="currency" xMin="135" yMin="299" xMax="1006" yMax="1169">
      <contour>
        <pt x="195" y="729" on="1"/>
        <pt x="195" y="788" on="0"/>
        <pt x="228" y="897" on="0"/>
        <pt x="260" y="942" on="1"/>
        <pt x="137" y="1065" on="1"/>
        <pt x="240" y="1167" on="1"/>
        <pt x="362" y="1044" on="1"/>
        <pt x="407" y="1073" on="0"/>
        <pt x="511" y="1106" on="0"/>
        <pt x="569" y="1106" on="1"/>
        <pt x="626" y="1106" on="0"/>
        <pt x="731" y="1073" on="0"/>
        <pt x="776" y="1042" on="1"/>
        <pt x="903" y="1169" on="1"/>
        <pt x="1006" y="1065" on="1"/>
        <pt x="881" y="938" on="1"/>
        <pt x="912" y="893" on="0"/>
        <pt x="946" y="788" on="0"/>
        <pt x="946" y="729" on="1"/>
        <pt x="946" y="670" on="0"/>
        <pt x="914" y="567" on="0"/>
        <pt x="885" y="522" on="1"/>
        <pt x="1006" y="401" on="1"/>
        <pt x="903" y="299" on="1"/>
        <pt x="782" y="420" on="1"/>
        <pt x="736" y="389" on="0"/>
        <pt x="628" y="354" on="0"/>
        <pt x="569" y="354" on="1"/>
        <pt x="511" y="354" on="0"/>
        <pt x="403" y="387" on="0"/>
        <pt x="358" y="418" on="1"/>
        <pt x="240" y="299" on="1"/>
        <pt x="135" y="403" on="1"/>
        <pt x="254" y="522" on="1"/>
        <pt x="195" y="613" on="0"/>
      </contour>
      <contour>
        <pt x="334" y="729" on="1"/>
        <pt x="334" y="680" on="0"/>
        <pt x="371" y="594" on="0"/>
        <pt x="434" y="529" on="0"/>
        <pt x="520" y="492" on="0"/>
        <pt x="569" y="492" on="1"/>
        <pt x="620" y="492" on="0"/>
        <pt x="707" y="529" on="0"/>
        <pt x="770" y="594" on="0"/>
        <pt x="805" y="680" on="0"/>
        <pt x="805" y="729" on="1"/>
        <pt x="805" y="780" on="0"/>
        <pt x="770" y="867" on="0"/>
        <pt x="707" y="932" on="0"/>
        <pt x="620" y="969" on="0"/>
        <pt x="569" y="969" on="1"/>
        <pt x="520" y="969" on="0"/>
        <pt x="434" y="932" on="0"/>
        <pt x="371" y="867" on="0"/>
        <pt x="334" y="780" on="0"/>
      </contour>
    </TTGlyph>
    <TTGlyph name="d" xMin="94" yMin="-20" xMax="1300" yMax="1556">
      <contour>
        <pt x="1122" y="252" on="1"/>
        <pt x="1122" y="205" on="0"/>
        <pt x="1150" y="149" on="0"/>
        <pt x="1197" y="119" on="0"/>
        <pt x="1258" y="109" on="0"/>
        <pt x="1292" y="109" on="1"/>
        <pt x="1300" y="109" on="1"/>
        <pt x="1300" y="0" on="1"/>
        <pt x="903" y="0" on="1"/>
        <pt x="846" y="160" on="1"/>
        <pt x="827" y="160" on="1"/>
        <pt x="804" y="118" on="0"/>
        <pt x="745" y="52" on="0"/>
        <pt x="668" y="5" on="0"/>
        <pt x="572" y="-20" on="0"/>
        <pt x="512" y="-20" on="1"/>
        <pt x="412" y="-20" on="0"/>
        <pt x="256" y="47" on="0"/>
        <pt x="149" y="186" on="0"/>
        <pt x="94" y="400" on="0"/>
        <pt x="94" y="547" on="1"/>
        <pt x="94" y="695" on="0"/>
        <pt x="149" y="912" on="0"/>
        <pt x="255" y="1053" on="0"/>
        <pt x="409" y="1122" on="0"/>
        <pt x="508" y="1122" on="1"/>
        <pt x="566" y="1122" on="0"/>
        <pt x="659" y="1097" on="0"/>
        <pt x="734" y="1054" on="0"/>
        <pt x="792" y="994" on="0"/>
        <pt x="813" y="958" on="1"/>
        <pt x="827" y="958" on="1"/>
        <pt x="823" y="1015" on="0"/>
        <pt x="819" y="1065" on="1"/>
        <pt x="818" y="1086" on="0"/>
        <pt x="815" y="1130" on="0"/>
        <pt x="812" y="1169" on="0"/>
        <pt x="811" y="1199" on="0"/>
        <pt x="811" y="1208" on="1"/>
        <pt x="811" y="1321" on="1"/>
        <pt x="811" y="1363" on="0"/>
        <pt x="784" y="1414" on="0"/>
        <pt x="739" y="1440" on="0"/>
        <pt x="679" y="1448" on="0"/>
        <pt x="645" y="1448" on="1"/>
        <pt x="629" y="1448" on="1"/>
        <pt x="629" y="1556" on="1"/>
        <pt x="1122" y="1556" on="1"/>
      </contour>
      <contour>
        <pt x="600" y="133" on="1"/>
        <pt x="661" y="133" on="0"/>
        <pt x="742" y="184" on="0"/>
        <pt x="791" y="288" on="0"/>
        <pt x="811" y="445" on="0"/>
        <pt x="811" y="551" on="1"/>
        <pt x="811" y="652" on="0"/>
        <pt x="791" y="809" on="0"/>
        <pt x="742" y="916" on="0"/>
        <pt x="661" y="971" on="0"/>
        <pt x="600" y="971" on="1"/>
        <pt x="549" y="971" on="0"/>
        <pt x="476" y="916" on="0"/>
        <pt x="431" y="808" on="0"/>
        <pt x="410" y="651" on="0"/>
        <pt x="410" y="549" on="1"/>
        <pt x="410" y="340" on="0"/>
        <pt x="497" y="133" on="0"/>
      </contour>
    </TTGlyph>
    <TTGlyph name="degree" xMin="98" yMin="842" xMax="719" yMax="1462">
      <contour>
        <pt x="98" y="1151" on="1"/>
        <pt x="98" y="1216" on="0"/>
        <pt x="147" y="1329" on="0"/>
        <pt x="231" y="1413" on="0"/>
        <pt x="344" y="1462" on="0"/>
        <pt x="408" y="1462" on="1"/>
        <pt x="473" y="1462" on="0"/>
        <pt x="586" y="1413" on="0"/>
        <pt x="670" y="1329" on="0"/>
        <pt x="719" y="1216" on="0"/>
        <pt x="719" y="1151" on="1"/>
        <pt x="719" y="1087" on="0"/>
        <pt x="670" y="974" on="0"/>
        <pt x="586" y="890" on="0"/>
        <pt x="473" y="842" on="0"/>
        <pt x="408" y="842" on="1"/>
        <pt x="344" y="842" on="0"/>
        <pt x="231" y="890" on="0"/>
        <pt x="147" y="974" on="0"/>
        <pt x="98" y="1087" on="0"/>
      </contour>
      <contour>
        <pt x="240" y="1151" on="1"/>
        <pt x="240" y="1117" on="0"/>
        <pt x="266" y="1055" on="0"/>
        <pt x="312" y="1008" on="0"/>
        <pt x="373" y="981" on="0"/>
        <pt x="408" y="981" on="1"/>
        <pt x="444" y="981" on="0"/>
        <pt x="506" y="1008" on="0"/>
        <pt x="552" y="1055" on="0"/>
        <pt x="578" y="1117" on="0"/>
        <pt x="578" y="1151" on="1"/>
        <pt x="578" y="1187" on="0"/>
        <pt x="552" y="1250" on="0"/>
        <pt x="506" y="1296" on="0"/>
        <pt x="444" y="1323" on="0"/>
        <pt x="408" y="1323" on="1"/>
        <pt x="373" y="1323" on="0"/>
        <pt x="312" y="1296" on="0"/>
        <pt x="266" y="1250" on="0"/>
        <pt x="240" y="1187" on="0"/>
      </contour>
    </TTGlyph>
    <TTGlyph name="dieresis" xMin="258" yMin="1282" xMax="922" yMax="1536">
      <contour>
        <pt x="258" y="1409" on="1"/>
        <pt x="258" y="1444" on="0"/>
        <pt x="278" y="1493" on="0"/>
        <pt x="311" y="1523" on="0"/>
        <pt x="355" y="1536" on="0"/>
        <pt x="379" y="1536" on="1"/>
        <pt x="403" y="1536" on="0"/>
        <pt x="447" y="1523" on="0"/>
        <pt x="481" y="1493" on="0"/>
        <pt x="502" y="1444" on="0"/>
        <pt x="502" y="1409" on="1"/>
        <pt x="502" y="1375" on="0"/>
        <pt x="481" y="1326" on="0"/>
        <pt x="447" y="1296" on="0"/>
        <pt x="403" y="1282" on="0"/>
        <pt x="379" y="1282" on="1"/>
        <pt x="355" y="1282" on="0"/>
        <pt x="311" y="1296" on="0"/>
        <pt x="278" y="1326" on="0"/>
        <pt x="258" y="1375" on="0"/>
      </contour>
      <contour>
        <pt x="678" y="1409" on="1"/>
        <pt x="678" y="1444" on="0"/>
        <pt x="698" y="1493" on="0"/>
        <pt x="732" y="1523" on="0"/>
        <pt x="776" y="1536" on="0"/>
        <pt x="801" y="1536" on="1"/>
        <pt x="824" y="1536" on="0"/>
        <pt x="867" y="1523" on="0"/>
        <pt x="901" y="1493" on="0"/>
        <pt x="922" y="1444" on="0"/>
        <pt x="922" y="1409" on="1"/>
        <pt x="922" y="1375" on="0"/>
        <pt x="901" y="1326" on="0"/>
        <pt x="867" y="1296" on="0"/>
        <pt x="824" y="1282" on="0"/>
        <pt x="801" y="1282" on="1"/>
        <pt x="776" y="1282" on="0"/>
        <pt x="732" y="1296" on="0"/>
        <pt x="698" y="1326" on="0"/>
        <pt x="678" y="1375" on="0"/>
      </contour>
    </TTGlyph>
    <TTGlyph name="divide" xMin="133" yMin="219" xMax="1012" yMax="1245">
      <contour>
        <pt x="459" y="1120" on="1"/>
        <pt x="459" y="1155" on="0"/>
        <pt x="476" y="1203" on="0"/>
        <pt x="507" y="1232" on="0"/>
        <pt x="549" y="1245" on="0"/>
        <pt x="573" y="1245" on="1"/>
        <pt x="597" y="1245" on="0"/>
        <pt x="639" y="1232" on="0"/>
        <pt x="670" y="1203" on="0"/>
        <pt x="688" y="1155" on="0"/>
        <pt x="688" y="1120" on="1"/>
        <pt x="688" y="1086" on="0"/>
        <pt x="670" y="1038" on="0"/>
        <pt x="639" y="1008" on="0"/>
        <pt x="597" y="995" on="0"/>
        <pt x="573" y="995" on="1"/>
        <pt x="524" y="995" on="0"/>
        <pt x="459" y="1051" on="0"/>
      </contour>
      <contour>
        <pt x="459" y="344" on="1"/>
        <pt x="459" y="379" on="0"/>
        <pt x="476" y="427" on="0"/>
        <pt x="507" y="456" on="0"/>
        <pt x="549" y="469" on="0"/>
        <pt x="573" y="469" on="1"/>
        <pt x="597" y="469" on="0"/>
        <pt x="639" y="456" on="0"/>
        <pt x="670" y="427" on="0"/>
        <pt x="688" y="379" on="0"/>
        <pt x="688" y="344" on="1"/>
        <pt x="688" y="310" on="0"/>
        <pt x="670" y="262" on="0"/>
        <pt x="639" y="232" on="0"/>
        <pt x="597" y="219" on="0"/>
        <pt x="573" y="219" on="1"/>
        <pt x="524" y="219" on="0"/>
        <pt x="459" y="275" on="0"/>
      </contour>
      <contour>
        <pt x="1012" y="659" on="1"/>
        <pt x="133" y="659" on="1"/>
        <pt x="133" y="805" on="1"/>
        <pt x="1012" y="805" on="1"/>
      </contour>
    </TTGlyph>
    <TTGlyph name="dollar" xMin="100" yMin="-162" xMax="1042" yMax="1556">
      <contour>
        <pt x="639" y="1556" on="1"/>
        <pt x="639" y="1401" on="1"/>
        <pt x="730" y="1398" on="0"/>
        <pt x="862" y="1364" on="0"/>
        <pt x="948" y="1309" on="0"/>
        <pt x="989" y="1237" on="0"/>
        <pt x="989" y="1196" on="1"/>
        <pt x="989" y="1131" on="0"/>
        <pt x="877" y="1047" on="0"/>
        <pt x="764" y="1047" on="1"/>
        <pt x="764" y="1077" on="0"/>
        <pt x="750" y="1147" on="0"/>
        <pt x="720" y="1212" on="0"/>
        <pt x="673" y="1265" on="0"/>
        <pt x="639" y="1280" on="1"/>
        <pt x="639" y="881" on="1"/>
        <pt x="645" y="878" on="0"/>
        <pt x="679" y="865" on="0"/>
        <pt x="690" y="860" on="1"/>
        <pt x="784" y="823" on="0"/>
        <pt x="918" y="745" on="0"/>
        <pt x="1003" y="653" on="0"/>
        <pt x="1042" y="546" on="0"/>
        <pt x="1042" y="481" on="1"/>
        <pt x="1042" y="403" on="0"/>
        <pt x="987" y="270" on="0"/>
        <pt x="884" y="168" on="0"/>
        <pt x="734" y="103" on="0"/>
        <pt x="639" y="92" on="1"/>
        <pt x="639" y="-162" on="1"/>
        <pt x="524" y="-162" on="1"/>
        <pt x="524" y="88" on="1"/>
        <pt x="407" y="91" on="0"/>
        <pt x="245" y="145" on="0"/>
        <pt x="144" y="227" on="0"/>
        <pt x="100" y="327" on="0"/>
        <pt x="100" y="375" on="1"/>
        <pt x="100" y="420" on="0"/>
        <pt x="133" y="482" on="0"/>
        <pt x="187" y="521" on="0"/>
        <pt x="256" y="539" on="0"/>
        <pt x="293" y="539" on="1"/>
        <pt x="293" y="462" on="0"/>
        <pt x="326" y="342" on="0"/>
        <pt x="387" y="257" on="0"/>
        <pt x="472" y="205" on="0"/>
        <pt x="524" y="197" on="1"/>
        <pt x="524" y="639" on="1"/>
        <pt x="489" y="653" on="1"/>
        <pt x="391" y="693" on="0"/>
        <pt x="260" y="775" on="0"/>
        <pt x="179" y="868" on="0"/>
        <pt x="145" y="976" on="0"/>
        <pt x="145" y="1042" on="1"/>
        <pt x="145" y="1116" on="0"/>
        <pt x="201" y="1239" on="0"/>
        <pt x="301" y="1331" on="0"/>
        <pt x="440" y="1390" on="0"/>
        <pt x="524" y="1399" on="1"/>
        <pt x="524" y="1556" on="1"/>
      </contour>
      <contour>
        <pt x="799" y="389" on="1"/>
        <pt x="799" y="454" on="0"/>
        <pt x="719" y="546" on="0"/>
        <pt x="639" y="588" on="1"/>
        <pt x="639" y="201" on="1"/>
        <pt x="716" y="218" on="0"/>
        <pt x="799" y="320" on="0"/>
      </contour>
      <contour>
        <pt x="385" y="1128" on="1"/>
        <pt x="385" y="1101" on="0"/>
        <pt x="397" y="1051" on="0"/>
        <pt x="429" y="1004" on="0"/>
        <pt x="483" y="959" on="0"/>
        <pt x="524" y="936" on="1"/>
        <pt x="524" y="1290" on="1"/>
        <pt x="464" y="1279" on="0"/>
        <pt x="385" y="1198" on="0"/>
      </contour>
    </TTGlyph>
    <TTGlyph name="dotlessi" xMin="35" yMin="0" xMax="686" yMax="1098">
      <contour>
        <pt x="59" y="109" on="1"/>
        <pt x="82" y="109" on="0"/>
        <pt x="133" y="118" on="0"/>
        <pt x="176" y="146" on="0"/>
        <pt x="205" y="198" on="0"/>
        <pt x="205" y="242" on="1"/>
        <pt x="205" y="864" on="1"/>
        <pt x="205" y="905" on="0"/>
        <pt x="176" y="954" on="0"/>
        <pt x="132" y="981" on="0"/>
        <pt x="81" y="989" on="0"/>
        <pt x="59" y="989" on="1"/>
        <pt x="35" y="989" on="1"/>
        <pt x="35" y="1098" on="1"/>
        <pt x="516" y="1098" on="1"/>
        <pt x="516" y="242" on="1"/>
        <pt x="516" y="198" on="0"/>
        <pt x="545" y="146" on="0"/>
        <pt x="588" y="118" on="0"/>
        <pt x="640" y="109" on="0"/>
        <pt x="662" y="109" on="1"/>
        <pt x="686" y="109" on="1"/>
        <pt x="686" y="0" on="1"/>
        <pt x="35" y="0" on="1"/>
        <pt x="35" y="109" on="1"/>
      </contour>
    </TTGlyph>
    <TTGlyph name="e" xMin="96" yMin="-20" xMax="1083" yMax="1124">
      <contour>
        <pt x="608" y="991" on="1"/>
        <pt x="522" y="991" on="0"/>
        <pt x="421" y="821" on="0"/>
        <pt x="416" y="657" on="1"/>
        <pt x="770" y="657" on="1"/>
        <pt x="770" y="735" on="0"/>
        <pt x="752" y="859" on="0"/>
        <pt x="713" y="945" on="0"/>
        <pt x="652" y="991" on="0"/>
      </contour>
      <contour>
        <pt x="627" y="-20" on="1"/>
        <pt x="497" y="-20" on="0"/>
        <pt x="298" y="56" on="0"/>
        <pt x="164" y="200" on="0"/>
        <pt x="96" y="409" on="0"/>
        <pt x="96" y="543" on="1"/>
        <pt x="96" y="687" on="0"/>
        <pt x="164" y="905" on="0"/>
        <pt x="294" y="1051" on="0"/>
        <pt x="483" y="1124" on="0"/>
        <pt x="604" y="1124" on="1"/>
        <pt x="715" y="1124" on="0"/>
        <pt x="893" y="1061" on="0"/>
        <pt x="1017" y="937" on="0"/>
        <pt x="1083" y="753" on="0"/>
        <pt x="1083" y="631" on="1"/>
        <pt x="1083" y="526" on="1"/>
        <pt x="412" y="526" on="1"/>
        <pt x="415" y="423" on="0"/>
        <pt x="454" y="275" on="0"/>
        <pt x="523" y="179" on="0"/>
        <pt x="622" y="133" on="0"/>
        <pt x="686" y="133" on="1"/>
        <pt x="739" y="133" on="0"/>
        <pt x="829" y="158" on="0"/>
        <pt x="902" y="203" on="0"/>
        <pt x="957" y="264" on="0"/>
        <pt x="975" y="299" on="1"/>
        <pt x="1030" y="269" on="0"/>
        <pt x="1030" y="199" on="1"/>
        <pt x="1030" y="155" on="0"/>
        <pt x="982" y="76" on="0"/>
        <pt x="882" y="16" on="0"/>
        <pt x="731" y="-20" on="0"/>
      </contour>
    </TTGlyph>
    <TTGlyph name="eacute" xMin="96" yMin="-20" xMax="1083" yMax="1569">
      <component glyphName="e" x="0" y="0" flags="0x1204"/>
      <component glyphName="acute" x="143" y="0" flags="0x1004"/>
    </TTGlyph>
    <TTGlyph name="ecircumflex" xMin="96" yMin="-20" xMax="1083" yMax="1569">
      <component glyphName="e" x="0" y="0" flags="0x1204"/>
      <component glyphName="circumflex" x="27" y="0" flags="0x1004"/>
    </TTGlyph>
    <TTGlyph name="edieresis" xMin="96" yMin="-20" xMax="1083" yMax="1536">
      <component glyphName="e" x="0" y="0" flags="0x1204"/>
      <component glyphName="dieresis" x="23" y="0" flags="0x1004"/>
    </TTGlyph>
    <TTGlyph name="egrave" xMin="96" yMin="-20" xMax="1083" yMax="1569">
      <component glyphName="e" x="0" y="0" flags="0x1204"/>
      <component glyphName="grave" x="-71" y="0" flags="0x1004"/>
    </TTGlyph>
    <TTGlyph name="eight" xMin="61" yMin="-20" xMax="1083" yMax="1483">
      <contour>
        <pt x="61" y="373" on="1"/>
        <pt x="61" y="439" on="0"/>
        <pt x="104" y="545" on="0"/>
        <pt x="184" y="632" on="0"/>
        <pt x="295" y="705" on="0"/>
        <pt x="362" y="739" on="1"/>
        <pt x="240" y="810" on="0"/>
        <pt x="109" y="990" on="0"/>
        <pt x="109" y="1110" on="1"/>
        <pt x="109" y="1181" on="0"/>
        <pt x="158" y="1316" on="0"/>
        <pt x="270" y="1420" on="0"/>
        <pt x="452" y="1483" on="0"/>
        <pt x="584" y="1483" on="1"/>
        <pt x="692" y="1483" on="0"/>
        <pt x="855" y="1429" on="0"/>
        <pt x="965" y="1333" on="0"/>
        <pt x="1020" y="1202" on="0"/>
        <pt x="1020" y="1124" on="1"/>
        <pt x="1020" y="1063" on="0"/>
        <pt x="981" y="969" on="0"/>
        <pt x="909" y="892" on="0"/>
        <pt x="807" y="826" on="0"/>
        <pt x="743" y="793" on="1"/>
        <pt x="835" y="748" on="0"/>
        <pt x="965" y="657" on="0"/>
        <pt x="1046" y="558" on="0"/>
        <pt x="1083" y="449" on="0"/>
        <pt x="1083" y="387" on="1"/>
        <pt x="1083" y="290" on="0"/>
        <pt x="1012" y="139" on="0"/>
        <pt x="877" y="35" on="0"/>
        <pt x="683" y="-20" on="0"/>
        <pt x="559" y="-20" on="1"/>
        <pt x="431" y="-20" on="0"/>
        <pt x="243" y="42" on="0"/>
        <pt x="120" y="148" on="0"/>
        <pt x="61" y="292" on="0"/>
      </contour>
      <contour>
        <pt x="569" y="96" on="1"/>
        <pt x="622" y="96" on="0"/>
        <pt x="707" y="134" on="0"/>
        <pt x="767" y="202" on="0"/>
        <pt x="799" y="296" on="0"/>
        <pt x="799" y="352" on="1"/>
        <pt x="799" y="402" on="0"/>
        <pt x="765" y="483" on="0"/>
        <pt x="692" y="554" on="0"/>
        <pt x="579" y="621" on="0"/>
        <pt x="500" y="657" on="1"/>
        <pt x="466" y="635" on="0"/>
        <pt x="406" y="578" on="0"/>
        <pt x="363" y="507" on="0"/>
        <pt x="338" y="419" on="0"/>
        <pt x="338" y="365" on="1"/>
        <pt x="338" y="305" on="0"/>
        <pt x="371" y="206" on="0"/>
        <pt x="432" y="135" on="0"/>
        <pt x="517" y="96" on="0"/>
      </contour>
      <contour>
        <pt x="762" y="1128" on="1"/>
        <pt x="762" y="1172" on="0"/>
        <pt x="737" y="1257" on="0"/>
        <pt x="689" y="1323" on="0"/>
        <pt x="618" y="1364" on="0"/>
        <pt x="571" y="1364" on="1"/>
        <pt x="529" y="1364" on="0"/>
        <pt x="464" y="1329" on="0"/>
        <pt x="420" y="1268" on="0"/>
        <pt x="397" y="1184" on="0"/>
        <pt x="397" y="1135" on="1"/>
        <pt x="397" y="1082" on="0"/>
        <pt x="426" y="1002" on="0"/>
        <pt x="482" y="938" on="0"/>
        <pt x="564" y="887" on="0"/>
        <pt x="618" y="862" on="1"/>
        <pt x="656" y="884" on="0"/>
        <pt x="710" y="934" on="0"/>
        <pt x="745" y="998" on="0"/>
        <pt x="762" y="1077" on="0"/>
      </contour>
    </TTGlyph>
    <TTGlyph name="emdash" xMin="-10" yMin="477" xMax="2058" yMax="623">
      <contour>
        <pt x="2058" y="477" on="1"/>
        <pt x="-10" y="477" on="1"/>
        <pt x="-10" y="623" on="1"/>
        <pt x="2058" y="623" on="1"/>
      </contour>
    </TTGlyph>
    <TTGlyph name="endash" xMin="-10" yMin="477" xMax="1034" yMax="623">
      <contour>
        <pt x="1034" y="477" on="1"/>
        <pt x="-10" y="477" on="1"/>
        <pt x="-10" y="623" on="1"/>
        <pt x="1034" y="623" on="1"/>
      </contour>
    </TTGlyph>
    <TTGlyph name="equal" xMin="129" yMin="461" xMax="1016" yMax="1001">
      <contour>
        <pt x="1016" y="604" on="1"/>
        <pt x="1016" y="461" on="1"/>
        <pt x="129" y="461" on="1"/>
        <pt x="129" y="604" on="1"/>
      </contour>
      <contour>
        <pt x="1016" y="1001" on="1"/>
        <pt x="1016" y="858" on="1"/>
        <pt x="129" y="858" on="1"/>
        <pt x="129" y="1001" on="1"/>
      </contour>
    </TTGlyph>
    <TTGlyph name="eth" xMin="96" yMin="-20" xMax="1157" yMax="1561">
      <contour>
        <pt x="1157" y="596" on="1"/>
        <pt x="1157" y="284" on="0"/>
        <pt x="886" y="-20" on="0"/>
        <pt x="623" y="-20" on="1"/>
        <pt x="501" y="-20" on="0"/>
        <pt x="306" y="46" on="0"/>
        <pt x="169" y="181" on="0"/>
        <pt x="96" y="385" on="0"/>
        <pt x="96" y="522" on="1"/>
        <pt x="96" y="658" on="0"/>
        <pt x="161" y="861" on="0"/>
        <pt x="287" y="996" on="0"/>
        <pt x="471" y="1063" on="0"/>
        <pt x="590" y="1063" on="1"/>
        <pt x="658" y="1063" on="0"/>
        <pt x="775" y="1031" on="0"/>
        <pt x="813" y="1008" on="1"/>
        <pt x="802" y="1041" on="0"/>
        <pt x="774" y="1106" on="0"/>
        <pt x="734" y="1171" on="0"/>
        <pt x="678" y="1236" on="0"/>
        <pt x="639" y="1268" on="1"/>
        <pt x="350" y="1120" on="1"/>
        <pt x="350" y="1253" on="1"/>
        <pt x="532" y="1348" on="1"/>
        <pt x="481" y="1380" on="0"/>
        <pt x="366" y="1417" on="0"/>
        <pt x="291" y="1430" on="1"/>
        <pt x="291" y="1559" on="1"/>
        <pt x="329" y="1556" on="0"/>
        <pt x="434" y="1533" on="0"/>
        <pt x="546" y="1498" on="0"/>
        <pt x="653" y="1454" on="0"/>
        <pt x="692" y="1430" on="1"/>
        <pt x="950" y="1561" on="1"/>
        <pt x="950" y="1425" on="1"/>
        <pt x="807" y="1352" on="1"/>
        <pt x="885" y="1291" on="0"/>
        <pt x="1014" y="1132" on="0"/>
        <pt x="1106" y="940" on="0"/>
        <pt x="1157" y="719" on="0"/>
      </contour>
      <contour>
        <pt x="414" y="520" on="1"/>
        <pt x="414" y="419" on="0"/>
        <pt x="437" y="265" on="0"/>
        <pt x="488" y="162" on="0"/>
        <pt x="570" y="109" on="0"/>
        <pt x="629" y="109" on="1"/>
        <pt x="687" y="109" on="0"/>
        <pt x="768" y="162" on="0"/>
        <pt x="819" y="265" on="0"/>
        <pt x="842" y="419" on="0"/>
        <pt x="842" y="520" on="1"/>
        <pt x="842" y="625" on="0"/>
        <pt x="819" y="780" on="0"/>
        <pt x="768" y="882" on="0"/>
        <pt x="686" y="932" on="0"/>
        <pt x="627" y="932" on="1"/>
        <pt x="569" y="932" on="0"/>
        <pt x="487" y="883" on="0"/>
        <pt x="437" y="782" on="0"/>
        <pt x="414" y="627" on="0"/>
      </contour>
    </TTGlyph>
    <TTGlyph name="exclam" xMin="213" yMin="-16" xMax="569" yMax="1462">
      <contour>
        <pt x="213" y="1462" on="1"/>
        <pt x="569" y="1462" on="1"/>
        <pt x="449" y="467" on="1"/>
        <pt x="334" y="467" on="1"/>
      </contour>
      <contour>
        <pt x="225" y="147" on="1"/>
        <pt x="225" y="194" on="0"/>
        <pt x="251" y="257" on="0"/>
        <pt x="296" y="295" on="0"/>
        <pt x="358" y="311" on="0"/>
        <pt x="393" y="311" on="1"/>
        <pt x="427" y="311" on="0"/>
        <pt x="488" y="295" on="0"/>
        <pt x="534" y="257" on="0"/>
        <pt x="561" y="194" on="0"/>
        <pt x="561" y="147" on="1"/>
        <pt x="561" y="101" on="0"/>
        <pt x="534" y="39" on="0"/>
        <pt x="488" y="1" on="0"/>
        <pt x="427" y="-16" on="0"/>
        <pt x="393" y="-16" on="1"/>
        <pt x="358" y="-16" on="0"/>
        <pt x="296" y="1" on="0"/>
        <pt x="251" y="39" on="0"/>
        <pt x="225" y="101" on="0"/>
      </contour>
    </TTGlyph>
    <TTGlyph name="exclamdown" xMin="213" yMin="-369" xMax="569" yMax="1110">
      <contour>
        <pt x="569" y="-369" on="1"/>
        <pt x="213" y="-369" on="1"/>
        <pt x="334" y="627" on="1"/>
        <pt x="449" y="627" on="1"/>
      </contour>
      <contour>
        <pt x="557" y="946" on="1"/>
        <pt x="557" y="899" on="0"/>
        <pt x="531" y="836" on="0"/>
        <pt x="486" y="798" on="0"/>
        <pt x="424" y="782" on="0"/>
        <pt x="389" y="782" on="1"/>
        <pt x="355" y="782" on="0"/>
        <pt x="294" y="798" on="0"/>
        <pt x="248" y="836" on="0"/>
        <pt x="221" y="899" on="0"/>
        <pt x="221" y="946" on="1"/>
        <pt x="221" y="992" on="0"/>
        <pt x="248" y="1055" on="0"/>
        <pt x="294" y="1093" on="0"/>
        <pt x="355" y="1110" on="0"/>
        <pt x="389" y="1110" on="1"/>
        <pt x="424" y="1110" on="0"/>
        <pt x="486" y="1093" on="0"/>
        <pt x="531" y="1055" on="0"/>
        <pt x="557" y="992" on="0"/>
      </contour>
    </TTGlyph>
    <TTGlyph name="f" xMin="39" yMin="0" xMax="989" yMax="1575">
      <contour>
        <pt x="39" y="0" on="1"/>
        <pt x="39" y="109" on="1"/>
        <pt x="84" y="109" on="1"/>
        <pt x="106" y="109" on="0"/>
        <pt x="157" y="118" on="0"/>
        <pt x="200" y="146" on="0"/>
        <pt x="229" y="198" on="0"/>
        <pt x="229" y="242" on="1"/>
        <pt x="229" y="958" on="1"/>
        <pt x="47" y="958" on="1"/>
        <pt x="47" y="1098" on="1"/>
        <pt x="229" y="1098" on="1"/>
        <pt x="229" y="1174" on="1"/>
        <pt x="229" y="1269" on="0"/>
        <pt x="278" y="1418" on="0"/>
        <pt x="381" y="1521" on="0"/>
        <pt x="539" y="1575" on="0"/>
        <pt x="647" y="1575" on="1"/>
        <pt x="746" y="1575" on="0"/>
        <pt x="878" y="1552" on="0"/>
        <pt x="956" y="1511" on="0"/>
        <pt x="989" y="1457" on="0"/>
        <pt x="989" y="1425" on="1"/>
        <pt x="989" y="1356" on="0"/>
        <pt x="864" y="1292" on="0"/>
        <pt x="737" y="1292" on="1"/>
        <pt x="737" y="1317" on="0"/>
        <pt x="727" y="1375" on="0"/>
        <pt x="703" y="1425" on="0"/>
        <pt x="664" y="1458" on="0"/>
        <pt x="635" y="1458" on="1"/>
        <pt x="610" y="1458" on="0"/>
        <pt x="574" y="1431" on="0"/>
        <pt x="551" y="1372" on="0"/>
        <pt x="541" y="1278" on="0"/>
        <pt x="541" y="1210" on="1"/>
        <pt x="541" y="1098" on="1"/>
        <pt x="823" y="1098" on="1"/>
        <pt x="823" y="958" on="1"/>
        <pt x="541" y="958" on="1"/>
        <pt x="541" y="242" on="1"/>
        <pt x="541" y="198" on="0"/>
        <pt x="570" y="146" on="0"/>
        <pt x="613" y="118" on="0"/>
        <pt x="664" y="109" on="0"/>
        <pt x="686" y="109" on="1"/>
        <pt x="782" y="109" on="1"/>
        <pt x="782" y="0" on="1"/>
      </contour>
    </TTGlyph>
    <TTGlyph name="five" xMin="82" yMin="-20" xMax="1036" yMax="1462">
      <contour>
        <pt x="471" y="123" on="1"/>
        <pt x="522" y="123" on="0"/>
        <pt x="613" y="155" on="0"/>
        <pt x="682" y="230" on="0"/>
        <pt x="723" y="357" on="0"/>
        <pt x="723" y="451" on="1"/>
        <pt x="723" y="604" on="0"/>
        <pt x="577" y="754" on="0"/>
        <pt x="444" y="754" on="1"/>
        <pt x="405" y="754" on="0"/>
        <pt x="342" y="748" on="0"/>
        <pt x="288" y="737" on="0"/>
        <pt x="240" y="724" on="0"/>
        <pt x="217" y="717" on="1"/>
        <pt x="123" y="754" on="1"/>
        <pt x="188" y="1462" on="1"/>
        <pt x="963" y="1462" on="1"/>
        <pt x="973" y="1090" on="1"/>
        <pt x="856" y="1090" on="1"/>
        <pt x="840" y="1159" on="1"/>
        <pt x="835" y="1177" on="0"/>
        <pt x="823" y="1206" on="0"/>
        <pt x="802" y="1226" on="0"/>
        <pt x="770" y="1237" on="0"/>
        <pt x="745" y="1237" on="1"/>
        <pt x="319" y="1237" on="1"/>
        <pt x="319" y="1236" on="0"/>
        <pt x="316" y="1203" on="0"/>
        <pt x="312" y="1149" on="0"/>
        <pt x="306" y="1081" on="0"/>
        <pt x="303" y="1046" on="1"/>
        <pt x="287" y="858" on="1"/>
        <pt x="303" y="864" on="0"/>
        <pt x="354" y="875" on="0"/>
        <pt x="414" y="884" on="0"/>
        <pt x="481" y="889" on="0"/>
        <pt x="512" y="889" on="1"/>
        <pt x="631" y="889" on="0"/>
        <pt x="824" y="834" on="0"/>
        <pt x="961" y="725" on="0"/>
        <pt x="1036" y="561" on="0"/>
        <pt x="1036" y="451" on="1"/>
        <pt x="1036" y="318" on="0"/>
        <pt x="939" y="137" on="0"/>
        <pt x="785" y="27" on="0"/>
        <pt x="595" y="-20" on="0"/>
        <pt x="502" y="-20" on="1"/>
        <pt x="387" y="-20" on="0"/>
        <pt x="227" y="21" on="0"/>
        <pt x="127" y="90" on="0"/>
        <pt x="82" y="179" on="0"/>
        <pt x="82" y="227" on="1"/>
        <pt x="82" y="299" on="0"/>
        <pt x="171" y="369" on="0"/>
        <pt x="246" y="369" on="1"/>
        <pt x="246" y="325" on="0"/>
        <pt x="269" y="237" on="0"/>
        <pt x="322" y="167" on="0"/>
        <pt x="408" y="123" on="0"/>
      </contour>
    </TTGlyph>
    <TTGlyph name="four" xMin="27" yMin="0" xMax="1106" yMax="1462">
      <contour>
        <pt x="893" y="381" on="1"/>
        <pt x="893" y="256" on="1"/>
        <pt x="893" y="208" on="0"/>
        <pt x="920" y="150" on="0"/>
        <pt x="965" y="119" on="0"/>
        <pt x="1027" y="109" on="0"/>
        <pt x="1061" y="109" on="1"/>
        <pt x="1087" y="109" on="1"/>
        <pt x="1087" y="0" on="1"/>
        <pt x="369" y="0" on="1"/>
        <pt x="369" y="109" on="1"/>
        <pt x="426" y="109" on="1"/>
        <pt x="461" y="109" on="0"/>
        <pt x="522" y="119" on="0"/>
        <pt x="567" y="150" on="0"/>
        <pt x="594" y="208" on="0"/>
        <pt x="594" y="256" on="1"/>
        <pt x="594" y="381" on="1"/>
        <pt x="27" y="381" on="1"/>
        <pt x="27" y="506" on="1"/>
        <pt x="608" y="1462" on="1"/>
        <pt x="893" y="1462" on="1"/>
        <pt x="893" y="516" on="1"/>
        <pt x="1106" y="516" on="1"/>
        <pt x="1106" y="381" on="1"/>
      </contour>
      <contour>
        <pt x="594" y="874" on="1"/>
        <pt x="594" y="964" on="0"/>
        <pt x="600" y="1172" on="0"/>
        <pt x="608" y="1268" on="1"/>
        <pt x="598" y="1244" on="0"/>
        <pt x="554" y="1160" on="0"/>
        <pt x="504" y="1071" on="0"/>
        <pt x="458" y="992" on="0"/>
        <pt x="446" y="973" on="1"/>
        <pt x="170" y="516" on="1"/>
        <pt x="594" y="516" on="1"/>
      </contour>
    </TTGlyph>
    <TTGlyph name="foursuperior" xMin="33" yMin="588" xMax="784" yMax="1473">
      <contour>
        <pt x="625" y="827" on="1"/>
        <pt x="625" y="756" on="1"/>
        <pt x="625" y="730" on="0"/>
        <pt x="639" y="699" on="0"/>
        <pt x="663" y="683" on="0"/>
        <pt x="694" y="678" on="0"/>
        <pt x="711" y="678" on="1"/>
        <pt x="752" y="678" on="1"/>
        <pt x="752" y="588" on="1"/>
        <pt x="281" y="588" on="1"/>
        <pt x="281" y="678" on="1"/>
        <pt x="338" y="678" on="1"/>
        <pt x="355" y="678" on="0"/>
        <pt x="385" y="683" on="0"/>
        <pt x="408" y="699" on="0"/>
        <pt x="422" y="730" on="0"/>
        <pt x="422" y="756" on="1"/>
        <pt x="422" y="827" on="1"/>
        <pt x="33" y="827" on="1"/>
        <pt x="33" y="909" on="1"/>
        <pt x="440" y="1473" on="1"/>
        <pt x="625" y="1473" on="1"/>
        <pt x="625" y="936" on="1"/>
        <pt x="784" y="936" on="1"/>
        <pt x="784" y="827" on="1"/>
      </contour>
      <contour>
        <pt x="422" y="1182" on="1"/>
        <pt x="422" y="1214" on="0"/>
        <pt x="427" y="1277" on="0"/>
        <pt x="432" y="1315" on="1"/>
        <pt x="424" y="1298" on="0"/>
        <pt x="406" y="1265" on="0"/>
        <pt x="401" y="1257" on="1"/>
        <pt x="168" y="936" on="1"/>
        <pt x="422" y="936" on="1"/>
      </contour>
    </TTGlyph>
    <TTGlyph name="fraction" xMin="-381" yMin="0" xMax="508" yMax="1462">
      <contour>
        <pt x="-221" y="0" on="1"/>
        <pt x="-381" y="0" on="1"/>
        <pt x="350" y="1462" on="1"/>
        <pt x="508" y="1462" on="1"/>
      </contour>
    </TTGlyph>
    <TTGlyph name="g" xMin="4" yMin="-492" xMax="1137" yMax="1176">
      <contour>
        <pt x="1137" y="1059" on="1"/>
        <pt x="1137" y="1036" on="0"/>
        <pt x="1123" y="993" on="0"/>
        <pt x="1090" y="961" on="0"/>
        <pt x="1033" y="942" on="0"/>
        <pt x="991" y="942" on="1"/>
        <pt x="991" y="963" on="0"/>
        <pt x="978" y="995" on="0"/>
        <pt x="956" y="1017" on="0"/>
        <pt x="928" y="1028" on="0"/>
        <pt x="913" y="1028" on="1"/>
        <pt x="896" y="1028" on="0"/>
        <pt x="857" y="1014" on="0"/>
        <pt x="846" y="1006" on="1"/>
        <pt x="867" y="983" on="0"/>
        <pt x="903" y="924" on="0"/>
        <pt x="930" y="856" on="0"/>
        <pt x="946" y="783" on="0"/>
        <pt x="946" y="745" on="1"/>
        <pt x="946" y="668" on="0"/>
        <pt x="897" y="537" on="0"/>
        <pt x="795" y="441" on="0"/>
        <pt x="639" y="387" on="0"/>
        <pt x="532" y="387" on="1"/>
        <pt x="521" y="387" on="0"/>
        <pt x="487" y="388" on="0"/>
        <pt x="453" y="389" on="0"/>
        <pt x="422" y="392" on="0"/>
        <pt x="414" y="393" on="1"/>
        <pt x="401" y="386" on="0"/>
        <pt x="374" y="365" on="0"/>
        <pt x="353" y="339" on="0"/>
        <pt x="340" y="307" on="0"/>
        <pt x="340" y="289" on="1"/>
        <pt x="340" y="255" on="0"/>
        <pt x="393" y="223" on="0"/>
        <pt x="436" y="223" on="1"/>
        <pt x="684" y="223" on="1"/>
        <pt x="786" y="223" on="0"/>
        <pt x="934" y="180" on="0"/>
        <pt x="1031" y="100" on="0"/>
        <pt x="1077" y="-17" on="0"/>
        <pt x="1077" y="-90" on="1"/>
        <pt x="1077" y="-185" on="0"/>
        <pt x="1005" y="-334" on="0"/>
        <pt x="858" y="-437" on="0"/>
        <pt x="635" y="-492" on="0"/>
        <pt x="483" y="-492" on="1"/>
        <pt x="241" y="-492" on="0"/>
        <pt x="4" y="-347" on="0"/>
        <pt x="4" y="-207" on="1"/>
        <pt x="4" y="-97" on="0"/>
        <pt x="146" y="20" on="0"/>
        <pt x="281" y="31" on="1"/>
        <pt x="253" y="42" on="0"/>
        <pt x="199" y="74" on="0"/>
        <pt x="157" y="119" on="0"/>
        <pt x="131" y="177" on="0"/>
        <pt x="131" y="213" on="1"/>
        <pt x="131" y="247" on="0"/>
        <pt x="158" y="305" on="0"/>
        <pt x="206" y="358" on="0"/>
        <pt x="273" y="405" on="0"/>
        <pt x="313" y="428" on="1"/>
        <pt x="268" y="444" on="0"/>
        <pt x="191" y="501" on="0"/>
        <pt x="136" y="581" on="0"/>
        <pt x="104" y="683" on="0"/>
        <pt x="104" y="745" on="1"/>
        <pt x="104" y="925" on="0"/>
        <pt x="313" y="1124" on="0"/>
        <pt x="532" y="1124" on="1"/>
        <pt x="605" y="1124" on="0"/>
        <pt x="730" y="1087" on="0"/>
        <pt x="776" y="1061" on="1"/>
        <pt x="793" y="1079" on="0"/>
        <pt x="834" y="1120" on="0"/>
        <pt x="886" y="1154" on="0"/>
        <pt x="950" y="1176" on="0"/>
        <pt x="989" y="1176" on="1"/>
        <pt x="1026" y="1176" on="0"/>
        <pt x="1081" y="1157" on="0"/>
        <pt x="1118" y="1125" on="0"/>
        <pt x="1137" y="1083" on="0"/>
      </contour>
      <contour>
        <pt x="246" y="-203" on="1"/>
        <pt x="246" y="-288" on="0"/>
        <pt x="369" y="-369" on="0"/>
        <pt x="487" y="-369" on="1"/>
        <pt x="667" y="-369" on="0"/>
        <pt x="831" y="-265" on="0"/>
        <pt x="831" y="-164" on="1"/>
        <pt x="831" y="-99" on="0"/>
        <pt x="749" y="-47" on="0"/>
        <pt x="666" y="-47" on="1"/>
        <pt x="428" y="-47" on="1"/>
        <pt x="397" y="-47" on="0"/>
        <pt x="333" y="-58" on="0"/>
        <pt x="280" y="-92" on="0"/>
        <pt x="246" y="-153" on="0"/>
      </contour>
      <contour>
        <pt x="383" y="745" on="1"/>
        <pt x="383" y="691" on="0"/>
        <pt x="398" y="604" on="0"/>
        <pt x="432" y="542" on="0"/>
        <pt x="486" y="508" on="0"/>
        <pt x="526" y="508" on="1"/>
        <pt x="567" y="508" on="0"/>
        <pt x="621" y="541" on="0"/>
        <pt x="653" y="604" on="0"/>
        <pt x="666" y="693" on="0"/>
        <pt x="666" y="748" on="1"/>
        <pt x="666" y="805" on="0"/>
        <pt x="652" y="898" on="0"/>
        <pt x="619" y="964" on="0"/>
        <pt x="565" y="1001" on="0"/>
        <pt x="524" y="1001" on="1"/>
        <pt x="484" y="1001" on="0"/>
        <pt x="430" y="963" on="0"/>
        <pt x="397" y="895" on="0"/>
        <pt x="383" y="801" on="0"/>
      </contour>
    </TTGlyph>
    <TTGlyph name="germandbls" xMin="12" yMin="-20" xMax="1364" yMax="1577">
      <contour>
        <pt x="205" y="1118" on="1"/>
        <pt x="205" y="1246" on="0"/>
        <pt x="287" y="1422" on="0"/>
        <pt x="430" y="1530" on="0"/>
        <pt x="624" y="1577" on="0"/>
        <pt x="737" y="1577" on="1"/>
        <pt x="879" y="1577" on="0"/>
        <pt x="1077" y="1503" on="0"/>
        <pt x="1202" y="1358" on="0"/>
        <pt x="1259" y="1145" on="0"/>
        <pt x="1260" y="1006" on="1"/>
        <pt x="1145" y="1006" on="1"/>
        <pt x="1095" y="1006" on="0"/>
        <pt x="1008" y="994" on="0"/>
        <pt x="943" y="962" on="0"/>
        <pt x="905" y="909" on="0"/>
        <pt x="905" y="868" on="1"/>
        <pt x="905" y="832" on="0"/>
        <pt x="930" y="778" on="0"/>
        <pt x="984" y="731" on="0"/>
        <pt x="1071" y="684" on="0"/>
        <pt x="1133" y="655" on="1"/>
        <pt x="1197" y="625" on="0"/>
        <pt x="1285" y="550" on="0"/>
        <pt x="1340" y="464" on="0"/>
        <pt x="1364" y="372" on="0"/>
        <pt x="1364" y="324" on="1"/>
        <pt x="1364" y="237" on="0"/>
        <pt x="1309" y="108" on="0"/>
        <pt x="1206" y="22" on="0"/>
        <pt x="1056" y="-20" on="0"/>
        <pt x="961" y="-20" on="1"/>
        <pt x="868" y="-20" on="0"/>
        <pt x="701" y="17" on="0"/>
        <pt x="635" y="55" on="1"/>
        <pt x="635" y="303" on="1"/>
        <pt x="745" y="303" on="1"/>
        <pt x="752" y="262" on="0"/>
        <pt x="787" y="188" on="0"/>
        <pt x="840" y="133" on="0"/>
        <pt x="910" y="100" on="0"/>
        <pt x="952" y="100" on="1"/>
        <pt x="1021" y="100" on="0"/>
        <pt x="1102" y="172" on="0"/>
        <pt x="1102" y="238" on="1"/>
        <pt x="1102" y="274" on="0"/>
        <pt x="1083" y="335" on="0"/>
        <pt x="1036" y="391" on="0"/>
        <pt x="956" y="445" on="0"/>
        <pt x="895" y="473" on="1"/>
        <pt x="820" y="508" on="0"/>
        <pt x="721" y="589" on="0"/>
        <pt x="662" y="681" on="0"/>
        <pt x="637" y="781" on="0"/>
        <pt x="637" y="834" on="1"/>
        <pt x="637" y="905" on="0"/>
        <pt x="686" y="1008" on="0"/>
        <pt x="775" y="1077" on="0"/>
        <pt x="897" y="1114" on="0"/>
        <pt x="969" y="1118" on="1"/>
        <pt x="968" y="1212" on="0"/>
        <pt x="937" y="1343" on="0"/>
        <pt x="879" y="1425" on="0"/>
        <pt x="796" y="1462" on="0"/>
        <pt x="743" y="1462" on="1"/>
        <pt x="691" y="1462" on="0"/>
        <pt x="606" y="1428" on="0"/>
        <pt x="546" y="1357" on="0"/>
        <pt x="514" y="1248" on="0"/>
        <pt x="514" y="1174" on="1"/>
        <pt x="514" y="0" on="1"/>
        <pt x="12" y="0" on="1"/>
        <pt x="12" y="109" on="1"/>
        <pt x="100" y="109" on="1"/>
        <pt x="122" y="109" on="0"/>
        <pt x="160" y="118" on="0"/>
        <pt x="189" y="146" on="0"/>
        <pt x="205" y="198" on="0"/>
        <pt x="205" y="242" on="1"/>
        <pt x="205" y="956" on="1"/>
        <pt x="41" y="956" on="1"/>
        <pt x="41" y="1098" on="1"/>
        <pt x="205" y="1098" on="1"/>
      </contour>
    </TTGlyph>
    <TTGlyph name="grave" xMin="332" yMin="1241" xMax="852" yMax="1569">
      <contour>
        <pt x="713" y="1241" on="1"/>
        <pt x="665" y="1269" on="0"/>
        <pt x="548" y="1352" on="0"/>
        <pt x="439" y="1440" on="0"/>
        <pt x="351" y="1521" on="0"/>
        <pt x="332" y="1548" on="1"/>
        <pt x="332" y="1569" on="1"/>
        <pt x="653" y="1569" on="1"/>
        <pt x="669" y="1535" on="0"/>
        <pt x="719" y="1454" on="0"/>
        <pt x="774" y="1373" on="0"/>
        <pt x="830" y="1297" on="0"/>
        <pt x="852" y="1268" on="1"/>
        <pt x="852" y="1241" on="1"/>
      </contour>
    </TTGlyph>
    <TTGlyph name="greater" xMin="133" yMin="213" xMax="1012" yMax="1253">
      <contour>
        <pt x="133" y="213" on="1"/>
        <pt x="133" y="375" on="1"/>
        <pt x="793" y="731" on="1"/>
        <pt x="133" y="1092" on="1"/>
        <pt x="133" y="1253" on="1"/>
        <pt x="1012" y="774" on="1"/>
        <pt x="1012" y="690" on="1"/>
      </contour>
    </TTGlyph>
    <TTGlyph name="guillemotleft" xMin="133" yMin="143" xMax="1001" yMax="963">
      <contour>
        <pt x="133" y="606" on="1"/>
        <pt x="446" y="963" on="1"/>
        <pt x="590" y="963" on="1"/>
        <pt x="383" y="553" on="1"/>
        <pt x="590" y="143" on="1"/>
        <pt x="446" y="143" on="1"/>
        <pt x="133" y="500" on="1"/>
      </contour>
      <contour>
        <pt x="545" y="606" on="1"/>
        <pt x="858" y="963" on="1"/>
        <pt x="1001" y="963" on="1"/>
        <pt x="795" y="553" on="1"/>
        <pt x="1001" y="143" on="1"/>
        <pt x="858" y="143" on="1"/>
        <pt x="545" y="500" on="1"/>
      </contour>
    </TTGlyph>
    <TTGlyph name="guillemotright" xMin="133" yMin="143" xMax="1001" yMax="963">
      <contour>
        <pt x="1001" y="500" on="1"/>
        <pt x="688" y="143" on="1"/>
        <pt x="545" y="143" on="1"/>
        <pt x="752" y="553" on="1"/>
        <pt x="545" y="963" on="1"/>
        <pt x="688" y="963" on="1"/>
        <pt x="1001" y="606" on="1"/>
      </contour>
      <contour>
        <pt x="590" y="500" on="1"/>
        <pt x="276" y="143" on="1"/>
        <pt x="133" y="143" on="1"/>
        <pt x="340" y="553" on="1"/>
        <pt x="133" y="963" on="1"/>
        <pt x="276" y="963" on="1"/>
        <pt x="590" y="606" on="1"/>
      </contour>
    </TTGlyph>
    <TTGlyph name="guilsinglleft" xMin="133" yMin="143" xMax="590" yMax="963">
      <contour>
        <pt x="133" y="606" on="1"/>
        <pt x="446" y="963" on="1"/>
        <pt x="590" y="963" on="1"/>
        <pt x="383" y="553" on="1"/>
        <pt x="590" y="143" on="1"/>
        <pt x="446" y="143" on="1"/>
        <pt x="133" y="500" on="1"/>
      </contour>
    </TTGlyph>
    <TTGlyph name="guilsinglright" xMin="133" yMin="143" xMax="590" yMax="963">
      <contour>
        <pt x="590" y="500" on="1"/>
        <pt x="276" y="143" on="1"/>
        <pt x="133" y="143" on="1"/>
        <pt x="340" y="553" on="1"/>
        <pt x="133" y="963" on="1"/>
        <pt x="276" y="963" on="1"/>
        <pt x="590" y="606" on="1"/>
      </contour>
    </TTGlyph>
    <TTGlyph name="h" xMin="35" yMin="0" xMax="1313" yMax="1556">
      <contour>
        <pt x="858" y="0" on="1"/>
        <pt x="858" y="674" on="1"/>
        <pt x="858" y="740" on="0"/>
        <pt x="841" y="843" on="0"/>
        <pt x="802" y="913" on="0"/>
        <pt x="739" y="950" on="0"/>
        <pt x="694" y="950" on="1"/>
        <pt x="643" y="950" on="0"/>
        <pt x="575" y="898" on="0"/>
        <pt x="534" y="811" on="0"/>
        <pt x="516" y="696" on="0"/>
        <pt x="516" y="633" on="1"/>
        <pt x="516" y="242" on="1"/>
        <pt x="516" y="199" on="0"/>
        <pt x="537" y="147" on="0"/>
        <pt x="575" y="118" on="0"/>
        <pt x="630" y="109" on="0"/>
        <pt x="664" y="109" on="1"/>
        <pt x="670" y="109" on="1"/>
        <pt x="670" y="0" on="1"/>
        <pt x="41" y="0" on="1"/>
        <pt x="41" y="109" on="1"/>
        <pt x="45" y="109" on="1"/>
        <pt x="80" y="109" on="0"/>
        <pt x="138" y="118" on="0"/>
        <pt x="181" y="148" on="0"/>
        <pt x="205" y="204" on="0"/>
        <pt x="205" y="250" on="1"/>
        <pt x="205" y="1323" on="1"/>
        <pt x="205" y="1364" on="0"/>
        <pt x="176" y="1413" on="0"/>
        <pt x="132" y="1440" on="0"/>
        <pt x="81" y="1448" on="0"/>
        <pt x="59" y="1448" on="1"/>
        <pt x="35" y="1448" on="1"/>
        <pt x="35" y="1556" on="1"/>
        <pt x="516" y="1556" on="1"/>
        <pt x="516" y="1219" on="1"/>
        <pt x="516" y="1179" on="0"/>
        <pt x="511" y="1087" on="0"/>
        <pt x="508" y="1048" on="1"/>
        <pt x="504" y="1002" on="0"/>
        <pt x="500" y="958" on="1"/>
        <pt x="518" y="958" on="1"/>
        <pt x="549" y="1016" on="0"/>
        <pt x="618" y="1082" on="0"/>
        <pt x="696" y="1115" on="0"/>
        <pt x="783" y="1124" on="0"/>
        <pt x="831" y="1124" on="1"/>
        <pt x="910" y="1124" on="0"/>
        <pt x="1036" y="1078" on="0"/>
        <pt x="1123" y="982" on="0"/>
        <pt x="1169" y="833" on="0"/>
        <pt x="1169" y="729" on="1"/>
        <pt x="1169" y="254" on="1"/>
        <pt x="1169" y="206" on="0"/>
        <pt x="1186" y="149" on="0"/>
        <pt x="1220" y="119" on="0"/>
        <pt x="1272" y="109" on="0"/>
        <pt x="1307" y="109" on="1"/>
        <pt x="1313" y="109" on="1"/>
        <pt x="1313" y="0" on="1"/>
      </contour>
    </TTGlyph>
    <TTGlyph name="hyphen" xMin="51" yMin="451" xMax="584" yMax="666">
      <contour>
        <pt x="51" y="451" on="1"/>
        <pt x="51" y="666" on="1"/>
        <pt x="584" y="666" on="1"/>
        <pt x="584" y="451" on="1"/>
      </contour>
    </TTGlyph>
    <TTGlyph name="i" xMin="35" yMin="0" xMax="686" yMax="1577">
      <contour>
        <pt x="176" y="1430" on="1"/>
        <pt x="176" y="1469" on="0"/>
        <pt x="203" y="1525" on="0"/>
        <pt x="250" y="1560" on="0"/>
        <pt x="313" y="1577" on="0"/>
        <pt x="350" y="1577" on="1"/>
        <pt x="385" y="1577" on="0"/>
        <pt x="449" y="1560" on="0"/>
        <pt x="497" y="1525" on="0"/>
        <pt x="526" y="1469" on="0"/>
        <pt x="526" y="1430" on="1"/>
        <pt x="526" y="1392" on="0"/>
        <pt x="497" y="1336" on="0"/>
        <pt x="449" y="1300" on="0"/>
        <pt x="385" y="1282" on="0"/>
        <pt x="350" y="1282" on="1"/>
        <pt x="313" y="1282" on="0"/>
        <pt x="250" y="1300" on="0"/>
        <pt x="203" y="1336" on="0"/>
        <pt x="176" y="1392" on="0"/>
      </contour>
      <contour>
        <pt x="59" y="109" on="1"/>
        <pt x="82" y="109" on="0"/>
        <pt x="133" y="118" on="0"/>
        <pt x="176" y="146" on="0"/>
        <pt x="205" y="198" on="0"/>
        <pt x="205" y="242" on="1"/>
        <pt x="205" y="864" on="1"/>
        <pt x="205" y="905" on="0"/>
        <pt x="176" y="954" on="0"/>
        <pt x="132" y="981" on="0"/>
        <pt x="81" y="989" on="0"/>
        <pt x="59" y="989" on="1"/>
        <pt x="35" y="989" on="1"/>
        <pt x="35" y="1098" on="1"/>
        <pt x="516" y="1098" on="1"/>
        <pt x="516" y="242" on="1"/>
        <pt x="516" y="198" on="0"/>
        <pt x="545" y="146" on="0"/>
        <pt x="588" y="118" on="0"/>
        <pt x="640" y="109" on="0"/>
        <pt x="662" y="109" on="1"/>
        <pt x="686" y="109" on="1"/>
        <pt x="686" y="0" on="1"/>
        <pt x="35" y="0" on="1"/>
        <pt x="35" y="109" on="1"/>
      </contour>
    </TTGlyph>
    <TTGlyph name="iacute" xMin="35" yMin="0" xMax="787" yMax="1569">
      <component glyphName="dotlessi" x="0" y="0" flags="0x1204"/>
      <component glyphName="acute" x="-63" y="0" flags="0x1004"/>
    </TTGlyph>
    <TTGlyph name="icircumflex" xMin="-30" yMin="0" xMax="697" yMax="1569">
      <component glyphName="dotlessi" x="0" y="0" flags="0x1204"/>
      <component glyphName="circumflex" x="-257" y="0" flags="0x1004"/>
    </TTGlyph>
    <TTGlyph name="idieresis" xMin="-1" yMin="0" xMax="686" yMax="1536">
      <component glyphName="dotlessi" x="0" y="0" flags="0x1204"/>
      <component glyphName="dieresis" x="-259" y="0" flags="0x1004"/>
    </TTGlyph>
    <TTGlyph name="igrave" xMin="-11" yMin="0" xMax="686" yMax="1569">
      <component glyphName="dotlessi" x="0" y="0" flags="0x1204"/>
      <component glyphName="grave" x="-343" y="0" flags="0x1004"/>
    </TTGlyph>
    <TTGlyph name="j" xMin="-41" yMin="-492" xMax="528" yMax="1577">
      <contour>
        <pt x="516" y="1098" on="1"/>
        <pt x="516" y="-16" on="1"/>
        <pt x="516" y="-154" on="0"/>
        <pt x="439" y="-337" on="0"/>
        <pt x="302" y="-446" on="0"/>
        <pt x="113" y="-492" on="0"/>
        <pt x="0" y="-492" on="1"/>
        <pt x="-41" y="-492" on="1"/>
        <pt x="-41" y="-365" on="1"/>
        <pt x="-27" y="-365" on="1"/>
        <pt x="29" y="-365" on="0"/>
        <pt x="116" y="-329" on="0"/>
        <pt x="175" y="-245" on="0"/>
        <pt x="205" y="-105" on="0"/>
        <pt x="205" y="0" on="1"/>
        <pt x="205" y="854" on="1"/>
        <pt x="205" y="898" on="0"/>
        <pt x="179" y="951" on="0"/>
        <pt x="134" y="980" on="0"/>
        <pt x="74" y="989" on="0"/>
        <pt x="41" y="989" on="1"/>
        <pt x="35" y="989" on="1"/>
        <pt x="35" y="1098" on="1"/>
      </contour>
      <contour>
        <pt x="178" y="1430" on="1"/>
        <pt x="178" y="1469" on="0"/>
        <pt x="205" y="1525" on="0"/>
        <pt x="252" y="1560" on="0"/>
        <pt x="315" y="1577" on="0"/>
        <pt x="352" y="1577" on="1"/>
        <pt x="387" y="1577" on="0"/>
        <pt x="451" y="1560" on="0"/>
        <pt x="499" y="1525" on="0"/>
        <pt x="528" y="1469" on="0"/>
        <pt x="528" y="1430" on="1"/>
        <pt x="528" y="1392" on="0"/>
        <pt x="499" y="1336" on="0"/>
        <pt x="451" y="1300" on="0"/>
        <pt x="387" y="1282" on="0"/>
        <pt x="352" y="1282" on="1"/>
        <pt x="315" y="1282" on="0"/>
        <pt x="252" y="1300" on="0"/>
        <pt x="205" y="1336" on="0"/>
        <pt x="178" y="1392" on="0"/>
      </contour>
    </TTGlyph>
    <TTGlyph name="k" xMin="35" yMin="0" xMax="1303" yMax="1556">
      <contour>
        <pt x="1303" y="0" on="1"/>
        <pt x="1274" y="0" on="1"/>
        <pt x="1162" y="0" on="0"/>
        <pt x="1010" y="10" on="0"/>
        <pt x="900" y="46" on="0"/>
        <pt x="820" y="119" on="0"/>
        <pt x="780" y="182" on="1"/>
        <pt x="598" y="469" on="1"/>
        <pt x="516" y="408" on="1"/>
        <pt x="516" y="242" on="1"/>
        <pt x="516" y="198" on="0"/>
        <pt x="545" y="146" on="0"/>
        <pt x="588" y="118" on="0"/>
        <pt x="640" y="109" on="0"/>
        <pt x="662" y="109" on="1"/>
        <pt x="686" y="109" on="1"/>
        <pt x="686" y="0" on="1"/>
        <pt x="35" y="0" on="1"/>
        <pt x="35" y="109" on="1"/>
        <pt x="59" y="109" on="1"/>
        <pt x="82" y="109" on="0"/>
        <pt x="133" y="118" on="0"/>
        <pt x="176" y="146" on="0"/>
        <pt x="205" y="198" on="0"/>
        <pt x="205" y="242" on="1"/>
        <pt x="205" y="1323" on="1"/>
        <pt x="205" y="1364" on="0"/>
        <pt x="176" y="1413" on="0"/>
        <pt x="132" y="1440" on="0"/>
        <pt x="81" y="1448" on="0"/>
        <pt x="59" y="1448" on="1"/>
        <pt x="35" y="1448" on="1"/>
        <pt x="35" y="1556" on="1"/>
        <pt x="516" y="1556" on="1"/>
        <pt x="516" y="766" on="1"/>
        <pt x="516" y="738" on="0"/>
        <pt x="513" y="665" on="0"/>
        <pt x="511" y="632" on="1"/>
        <pt x="508" y="593" on="0"/>
        <pt x="506" y="553" on="1"/>
        <pt x="764" y="842" on="1"/>
        <pt x="798" y="880" on="0"/>
        <pt x="819" y="925" on="0"/>
        <pt x="819" y="940" on="1"/>
        <pt x="819" y="966" on="0"/>
        <pt x="764" y="995" on="0"/>
        <pt x="713" y="995" on="1"/>
        <pt x="713" y="1098" on="1"/>
        <pt x="1229" y="1098" on="1"/>
        <pt x="1229" y="995" on="1"/>
        <pt x="1158" y="995" on="0"/>
        <pt x="1021" y="912" on="0"/>
        <pt x="940" y="821" on="1"/>
        <pt x="811" y="674" on="1"/>
        <pt x="1083" y="268" on="1"/>
        <pt x="1137" y="187" on="0"/>
        <pt x="1247" y="109" on="0"/>
        <pt x="1296" y="109" on="1"/>
        <pt x="1303" y="109" on="1"/>
      </contour>
    </TTGlyph>
    <TTGlyph name="l" xMin="35" yMin="0" xMax="686" yMax="1556">
      <contour>
        <pt x="59" y="109" on="1"/>
        <pt x="82" y="109" on="0"/>
        <pt x="133" y="118" on="0"/>
        <pt x="176" y="146" on="0"/>
        <pt x="205" y="198" on="0"/>
        <pt x="205" y="242" on="1"/>
        <pt x="205" y="1323" on="1"/>
        <pt x="205" y="1364" on="0"/>
        <pt x="176" y="1413" on="0"/>
        <pt x="132" y="1440" on="0"/>
        <pt x="81" y="1448" on="0"/>
        <pt x="59" y="1448" on="1"/>
        <pt x="35" y="1448" on="1"/>
        <pt x="35" y="1556" on="1"/>
        <pt x="516" y="1556" on="1"/>
        <pt x="516" y="242" on="1"/>
        <pt x="516" y="198" on="0"/>
        <pt x="545" y="146" on="0"/>
        <pt x="588" y="118" on="0"/>
        <pt x="640" y="109" on="0"/>
        <pt x="662" y="109" on="1"/>
        <pt x="686" y="109" on="1"/>
        <pt x="686" y="0" on="1"/>
        <pt x="35" y="0" on="1"/>
        <pt x="35" y="109" on="1"/>
      </contour>
    </TTGlyph>
    <TTGlyph name="less" xMin="133" yMin="213" xMax="1012" yMax="1253">
      <contour>
        <pt x="133" y="690" on="1"/>
        <pt x="133" y="774" on="1"/>
        <pt x="1012" y="1253" on="1"/>
        <pt x="1012" y="1092" on="1"/>
        <pt x="352" y="731" on="1"/>
        <pt x="1012" y="375" on="1"/>
        <pt x="1012" y="213" on="1"/>
      </contour>
    </TTGlyph>
    <TTGlyph name="logicalnot" xMin="133" yMin="293" xMax="1012" yMax="805">
      <contour>
        <pt x="1012" y="805" on="1"/>
        <pt x="1012" y="293" on="1"/>
        <pt x="864" y="293" on="1"/>
        <pt x="864" y="659" on="1"/>
        <pt x="133" y="659" on="1"/>
        <pt x="133" y="805" on="1"/>
      </contour>
    </TTGlyph>
    <TTGlyph name="m" xMin="41" yMin="0" xMax="1966" yMax="1124">
      <contour>
        <pt x="858" y="0" on="1"/>
        <pt x="858" y="674" on="1"/>
        <pt x="858" y="740" on="0"/>
        <pt x="841" y="843" on="0"/>
        <pt x="802" y="913" on="0"/>
        <pt x="739" y="950" on="0"/>
        <pt x="694" y="950" on="1"/>
        <pt x="643" y="950" on="0"/>
        <pt x="575" y="898" on="0"/>
        <pt x="534" y="811" on="0"/>
        <pt x="516" y="696" on="0"/>
        <pt x="516" y="633" on="1"/>
        <pt x="516" y="242" on="1"/>
        <pt x="516" y="199" on="0"/>
        <pt x="537" y="147" on="0"/>
        <pt x="575" y="118" on="0"/>
        <pt x="630" y="109" on="0"/>
        <pt x="664" y="109" on="1"/>
        <pt x="670" y="109" on="1"/>
        <pt x="670" y="0" on="1"/>
        <pt x="41" y="0" on="1"/>
        <pt x="41" y="109" on="1"/>
        <pt x="45" y="109" on="1"/>
        <pt x="80" y="109" on="0"/>
        <pt x="138" y="118" on="0"/>
        <pt x="181" y="148" on="0"/>
        <pt x="205" y="204" on="0"/>
        <pt x="205" y="250" on="1"/>
        <pt x="205" y="862" on="1"/>
        <pt x="205" y="905" on="0"/>
        <pt x="184" y="957" on="0"/>
        <pt x="145" y="986" on="0"/>
        <pt x="91" y="995" on="0"/>
        <pt x="57" y="995" on="1"/>
        <pt x="51" y="995" on="1"/>
        <pt x="51" y="1098" on="1"/>
        <pt x="481" y="1098" on="1"/>
        <pt x="508" y="952" on="1"/>
        <pt x="518" y="952" on="1"/>
        <pt x="549" y="1010" on="0"/>
        <pt x="618" y="1078" on="0"/>
        <pt x="696" y="1114" on="0"/>
        <pt x="783" y="1124" on="0"/>
        <pt x="831" y="1124" on="1"/>
        <pt x="944" y="1124" on="0"/>
        <pt x="1104" y="1043" on="0"/>
        <pt x="1141" y="952" on="1"/>
        <pt x="1159" y="952" on="1"/>
        <pt x="1190" y="1010" on="0"/>
        <pt x="1263" y="1078" on="0"/>
        <pt x="1346" y="1114" on="0"/>
        <pt x="1437" y="1124" on="0"/>
        <pt x="1485" y="1124" on="1"/>
        <pt x="1564" y="1124" on="0"/>
        <pt x="1690" y="1078" on="0"/>
        <pt x="1777" y="982" on="0"/>
        <pt x="1823" y="833" on="0"/>
        <pt x="1823" y="729" on="1"/>
        <pt x="1823" y="254" on="1"/>
        <pt x="1823" y="206" on="0"/>
        <pt x="1840" y="149" on="0"/>
        <pt x="1874" y="119" on="0"/>
        <pt x="1926" y="109" on="0"/>
        <pt x="1960" y="109" on="1"/>
        <pt x="1966" y="109" on="1"/>
        <pt x="1966" y="0" on="1"/>
        <pt x="1511" y="0" on="1"/>
        <pt x="1511" y="674" on="1"/>
        <pt x="1511" y="806" on="0"/>
        <pt x="1438" y="950" on="0"/>
        <pt x="1348" y="950" on="1"/>
        <pt x="1300" y="950" on="0"/>
        <pt x="1232" y="903" on="0"/>
        <pt x="1189" y="823" on="0"/>
        <pt x="1169" y="716" on="0"/>
        <pt x="1169" y="657" on="1"/>
        <pt x="1169" y="254" on="1"/>
        <pt x="1169" y="206" on="0"/>
        <pt x="1186" y="149" on="0"/>
        <pt x="1220" y="119" on="0"/>
        <pt x="1272" y="109" on="0"/>
        <pt x="1307" y="109" on="1"/>
        <pt x="1313" y="109" on="1"/>
        <pt x="1313" y="0" on="1"/>
      </contour>
    </TTGlyph>
    <TTGlyph name="mu" xMin="166" yMin="-492" xMax="1309" yMax="1098">
      <contour>
        <pt x="573" y="-20" on="1"/>
        <pt x="488" y="-20" on="0"/>
        <pt x="368" y="43" on="0"/>
        <pt x="328" y="100" on="1"/>
        <pt x="328" y="15" on="0"/>
        <pt x="342" y="-129" on="0"/>
        <pt x="388" y="-237" on="0"/>
        <pt x="475" y="-304" on="0"/>
        <pt x="547" y="-313" on="1"/>
        <pt x="547" y="-352" on="0"/>
        <pt x="521" y="-417" on="0"/>
        <pt x="472" y="-465" on="0"/>
        <pt x="402" y="-492" on="0"/>
        <pt x="358" y="-492" on="1"/>
        <pt x="320" y="-492" on="0"/>
        <pt x="250" y="-464" on="0"/>
        <pt x="197" y="-401" on="0"/>
        <pt x="166" y="-298" on="0"/>
        <pt x="166" y="-223" on="1"/>
        <pt x="166" y="-162" on="0"/>
        <pt x="172" y="-29" on="0"/>
        <pt x="181" y="133" on="0"/>
        <pt x="189" y="333" on="0"/>
        <pt x="190" y="461" on="1"/>
        <pt x="190" y="1098" on="1"/>
        <pt x="502" y="1098" on="1"/>
        <pt x="502" y="422" on="1"/>
        <pt x="502" y="367" on="0"/>
        <pt x="517" y="269" on="0"/>
        <pt x="552" y="196" on="0"/>
        <pt x="612" y="154" on="0"/>
        <pt x="657" y="154" on="1"/>
        <pt x="700" y="154" on="0"/>
        <pt x="769" y="200" on="0"/>
        <pt x="818" y="283" on="0"/>
        <pt x="844" y="400" on="0"/>
        <pt x="844" y="471" on="1"/>
        <pt x="844" y="1098" on="1"/>
        <pt x="1155" y="1098" on="1"/>
        <pt x="1155" y="283" on="1"/>
        <pt x="1155" y="189" on="0"/>
        <pt x="1223" y="109" on="0"/>
        <pt x="1294" y="109" on="1"/>
        <pt x="1309" y="109" on="1"/>
        <pt x="1309" y="0" on="1"/>
        <pt x="1130" y="0" on="1"/>
        <pt x="1025" y="0" on="0"/>
        <pt x="890" y="98" on="0"/>
        <pt x="864" y="178" on="1"/>
        <pt x="854" y="178" on="1"/>
        <pt x="830" y="133" on="0"/>
        <pt x="777" y="59" on="0"/>
        <pt x="711" y="8" on="0"/>
        <pt x="627" y="-20" on="0"/>
      </contour>
    </TTGlyph>
    <TTGlyph name="multiply" xMin="166" yMin="328" xMax="977" yMax="1141">
      <contour>
        <pt x="571" y="631" on="1"/>
        <pt x="270" y="328" on="1"/>
        <pt x="166" y="432" on="1"/>
        <pt x="467" y="735" on="1"/>
        <pt x="166" y="1036" on="1"/>
        <pt x="270" y="1139" on="1"/>
        <pt x="571" y="838" on="1"/>
        <pt x="872" y="1141" on="1"/>
        <pt x="977" y="1036" on="1"/>
        <pt x="674" y="733" on="1"/>
        <pt x="977" y="430" on="1"/>
        <pt x="874" y="328" on="1"/>
      </contour>
    </TTGlyph>
    <TTGlyph name="n" xMin="41" yMin="0" xMax="1313" yMax="1124">
      <contour>
        <pt x="858" y="0" on="1"/>
        <pt x="858" y="674" on="1"/>
        <pt x="858" y="740" on="0"/>
        <pt x="841" y="843" on="0"/>
        <pt x="802" y="913" on="0"/>
        <pt x="739" y="950" on="0"/>
        <pt x="694" y="950" on="1"/>
        <pt x="643" y="950" on="0"/>
        <pt x="575" y="898" on="0"/>
        <pt x="534" y="811" on="0"/>
        <pt x="516" y="696" on="0"/>
        <pt x="516" y="633" on="1"/>
        <pt x="516" y="242" on="1"/>
        <pt x="516" y="199" on="0"/>
        <pt x="537" y="147" on="0"/>
        <pt x="575" y="118" on="0"/>
        <pt x="630" y="109" on="0"/>
        <pt x="664" y="109" on="1"/>
        <pt x="670" y="109" on="1"/>
        <pt x="670" y="0" on="1"/>
        <pt x="41" y="0" on="1"/>
        <pt x="41" y="109" on="1"/>
        <pt x="45" y="109" on="1"/>
        <pt x="80" y="109" on="0"/>
        <pt x="138" y="118" on="0"/>
        <pt x="181" y="148" on="0"/>
        <pt x="205" y="204" on="0"/>
        <pt x="205" y="250" on="1"/>
        <pt x="205" y="856" on="1"/>
        <pt x="205" y="899" on="0"/>
        <pt x="184" y="951" on="0"/>
        <pt x="145" y="980" on="0"/>
        <pt x="91" y="989" on="0"/>
        <pt x="57" y="989" on="1"/>
        <pt x="51" y="989" on="1"/>
        <pt x="51" y="1098" on="1"/>
        <pt x="481" y="1098" on="1"/>
        <pt x="508" y="952" on="1"/>
        <pt x="518" y="952" on="1"/>
        <pt x="549" y="1010" on="0"/>
        <pt x="618" y="1078" on="0"/>
        <pt x="696" y="1114" on="0"/>
        <pt x="783" y="1124" on="0"/>
        <pt x="831" y="1124" on="1"/>
        <pt x="910" y="1124" on="0"/>
        <pt x="1036" y="1078" on="0"/>
        <pt x="1123" y="982" on="0"/>
        <pt x="1169" y="833" on="0"/>
        <pt x="1169" y="729" on="1"/>
        <pt x="1169" y="254" on="1"/>
        <pt x="1169" y="206" on="0"/>
        <pt x="1186" y="149" on="0"/>
        <pt x="1220" y="119" on="0"/>
        <pt x="1272" y="109" on="0"/>
        <pt x="1307" y="109" on="1"/>
        <pt x="1313" y="109" on="1"/>
        <pt x="1313" y="0" on="1"/>
      </contour>
    </TTGlyph>
    <TTGlyph name="nine" xMin="72" yMin="-20" xMax="1053" yMax="1483">
      <contour>
        <pt x="465" y="-20" on="1"/>
        <pt x="372" y="-20" on="0"/>
        <pt x="244" y="19" on="0"/>
        <pt x="164" y="84" on="0"/>
        <pt x="129" y="167" on="0"/>
        <pt x="129" y="211" on="1"/>
        <pt x="129" y="256" on="0"/>
        <pt x="177" y="317" on="0"/>
        <pt x="229" y="328" on="1"/>
        <pt x="244" y="282" on="0"/>
        <pt x="286" y="202" on="0"/>
        <pt x="345" y="143" on="0"/>
        <pt x="424" y="109" on="0"/>
        <pt x="475" y="109" on="1"/>
        <pt x="613" y="109" on="0"/>
        <pt x="762" y="407" on="0"/>
        <pt x="772" y="702" on="1"/>
        <pt x="748" y="672" on="0"/>
        <pt x="689" y="622" on="0"/>
        <pt x="615" y="584" on="0"/>
        <pt x="526" y="563" on="0"/>
        <pt x="473" y="563" on="1"/>
        <pt x="385" y="563" on="0"/>
        <pt x="238" y="618" on="0"/>
        <pt x="131" y="725" on="0"/>
        <pt x="72" y="884" on="0"/>
        <pt x="72" y="987" on="1"/>
        <pt x="72" y="1098" on="0"/>
        <pt x="136" y="1280" on="0"/>
        <pt x="257" y="1411" on="0"/>
        <pt x="431" y="1483" on="0"/>
        <pt x="541" y="1483" on="1"/>
        <pt x="652" y="1483" on="0"/>
        <pt x="840" y="1403" on="0"/>
        <pt x="977" y="1235" on="0"/>
        <pt x="1053" y="975" on="0"/>
        <pt x="1053" y="795" on="1"/>
        <pt x="1053" y="626" on="0"/>
        <pt x="987" y="329" on="0"/>
        <pt x="846" y="108" on="0"/>
        <pt x="623" y="-20" on="0"/>
      </contour>
      <contour>
        <pt x="561" y="711" on="1"/>
        <pt x="635" y="711" on="0"/>
        <pt x="741" y="786" on="0"/>
        <pt x="772" y="848" on="1"/>
        <pt x="771" y="979" on="0"/>
        <pt x="738" y="1167" on="0"/>
        <pt x="681" y="1288" on="0"/>
        <pt x="601" y="1346" on="0"/>
        <pt x="553" y="1346" on="1"/>
        <pt x="465" y="1346" on="0"/>
        <pt x="369" y="1173" on="0"/>
        <pt x="369" y="999" on="1"/>
        <pt x="369" y="857" on="0"/>
        <pt x="465" y="711" on="0"/>
      </contour>
    </TTGlyph>
    <TTGlyph name="ntilde" xMin="41" yMin="0" xMax="1313" yMax="1565">
      <component glyphName="n" x="0" y="0" flags="0x1204"/>
      <component glyphName="tilde" x="80" y="0" flags="0x1004"/>
    </TTGlyph>
    <TTGlyph name="numbersign" xMin="57" yMin="0" xMax="1087" yMax="1462">
      <contour>
        <pt x="1022" y="551" on="1"/>
        <pt x="1022" y="410" on="1"/>
        <pt x="766" y="410" on="1"/>
        <pt x="690" y="0" on="1"/>
        <pt x="545" y="0" on="1"/>
        <pt x="621" y="410" on="1"/>
        <pt x="408" y="410" on="1"/>
        <pt x="330" y="0" on="1"/>
        <pt x="184" y="0" on="1"/>
        <pt x="262" y="410" on="1"/>
        <pt x="57" y="410" on="1"/>
        <pt x="57" y="551" on="1"/>
        <pt x="289" y="551" on="1"/>
        <pt x="360" y="922" on="1"/>
        <pt x="123" y="922" on="1"/>
        <pt x="123" y="1065" on="1"/>
        <pt x="387" y="1065" on="1"/>
        <pt x="459" y="1462" on="1"/>
        <pt x="606" y="1462" on="1"/>
        <pt x="532" y="1065" on="1"/>
        <pt x="745" y="1065" on="1"/>
        <pt x="821" y="1462" on="1"/>
        <pt x="967" y="1462" on="1"/>
        <pt x="891" y="1065" on="1"/>
        <pt x="1087" y="1065" on="1"/>
        <pt x="1087" y="922" on="1"/>
        <pt x="864" y="922" on="1"/>
        <pt x="795" y="551" on="1"/>
      </contour>
      <contour>
        <pt x="434" y="551" on="1"/>
        <pt x="649" y="551" on="1"/>
        <pt x="721" y="922" on="1"/>
        <pt x="506" y="922" on="1"/>
      </contour>
    </TTGlyph>
    <TTGlyph name="o" xMin="96" yMin="-20" xMax="1159" yMax="1124">
      <contour>
        <pt x="1159" y="553" on="1"/>
        <pt x="1159" y="264" on="0"/>
        <pt x="888" y="-20" on="0"/>
        <pt x="625" y="-20" on="1"/>
        <pt x="502" y="-20" on="0"/>
        <pt x="306" y="51" on="0"/>
        <pt x="169" y="193" on="0"/>
        <pt x="96" y="409" on="0"/>
        <pt x="96" y="553" on="1"/>
        <pt x="96" y="842" on="0"/>
        <pt x="367" y="1124" on="0"/>
        <pt x="631" y="1124" on="1"/>
        <pt x="754" y="1124" on="0"/>
        <pt x="949" y="1054" on="0"/>
        <pt x="1086" y="912" on="0"/>
        <pt x="1159" y="697" on="0"/>
      </contour>
      <contour>
        <pt x="414" y="553" on="1"/>
        <pt x="414" y="444" on="0"/>
        <pt x="437" y="278" on="0"/>
        <pt x="488" y="166" on="0"/>
        <pt x="570" y="109" on="0"/>
        <pt x="629" y="109" on="1"/>
        <pt x="688" y="109" on="0"/>
        <pt x="769" y="166" on="0"/>
        <pt x="820" y="278" on="0"/>
        <pt x="842" y="444" on="0"/>
        <pt x="842" y="553" on="1"/>
        <pt x="842" y="663" on="0"/>
        <pt x="819" y="828" on="0"/>
        <pt x="768" y="938" on="0"/>
        <pt x="686" y="993" on="0"/>
        <pt x="627" y="993" on="1"/>
        <pt x="568" y="993" on="0"/>
        <pt x="486" y="938" on="0"/>
        <pt x="436" y="828" on="0"/>
        <pt x="414" y="663" on="0"/>
      </contour>
    </TTGlyph>
    <TTGlyph name="oacute" xMin="96" yMin="-20" xMax="1159" yMax="1569">
      <component glyphName="o" x="0" y="0" flags="0x1204"/>
      <component glyphName="acute" x="174" y="0" flags="0x1004"/>
    </TTGlyph>
    <TTGlyph name="ocircumflex" xMin="96" yMin="-20" xMax="1159" yMax="1569">
      <component glyphName="o" x="0" y="0" flags="0x1204"/>
      <component glyphName="circumflex" x="35" y="0" flags="0x1004"/>
    </TTGlyph>
    <TTGlyph name="odieresis" xMin="96" yMin="-20" xMax="1159" yMax="1536">
      <component glyphName="o" x="0" y="0" flags="0x1204"/>
      <component glyphName="dieresis" x="35" y="0" flags="0x1004"/>
    </TTGlyph>
    <TTGlyph name="ograve" xMin="96" yMin="-20" xMax="1159" yMax="1569">
      <component glyphName="o" x="0" y="0" flags="0x1204"/>
      <component glyphName="grave" x="-95" y="0" flags="0x1004"/>
    </TTGlyph>
    <TTGlyph name="one" xMin="86" yMin="0" xMax="1044" yMax="1470">
      <contour>
        <pt x="199" y="0" on="1"/>
        <pt x="199" y="109" on="1"/>
        <pt x="367" y="109" on="1"/>
        <pt x="393" y="109" on="0"/>
        <pt x="431" y="122" on="0"/>
        <pt x="457" y="152" on="0"/>
        <pt x="469" y="203" on="0"/>
        <pt x="469" y="242" on="1"/>
        <pt x="469" y="1268" on="1"/>
        <pt x="430" y="1220" on="0"/>
        <pt x="361" y="1142" on="0"/>
        <pt x="297" y="1086" on="0"/>
        <pt x="236" y="1055" on="0"/>
        <pt x="205" y="1055" on="1"/>
        <pt x="180" y="1055" on="0"/>
        <pt x="137" y="1076" on="0"/>
        <pt x="105" y="1116" on="0"/>
        <pt x="86" y="1172" on="0"/>
        <pt x="86" y="1206" on="1"/>
        <pt x="117" y="1214" on="0"/>
        <pt x="185" y="1237" on="0"/>
        <pt x="262" y="1274" on="0"/>
        <pt x="350" y="1327" on="0"/>
        <pt x="401" y="1364" on="1"/>
        <pt x="545" y="1470" on="1"/>
        <pt x="774" y="1470" on="1"/>
        <pt x="774" y="242" on="1"/>
        <pt x="774" y="210" on="0"/>
        <pt x="783" y="160" on="0"/>
        <pt x="806" y="126" on="0"/>
        <pt x="847" y="109" on="0"/>
        <pt x="879" y="109" on="1"/>
        <pt x="1044" y="109" on="1"/>
        <pt x="1044" y="0" on="1"/>
      </contour>
    </TTGlyph>
    <TTGlyph name="onehalf" xMin="11" yMin="0" xMax="1665" yMax="1473">
      <component glyphName="onesuperior" x="-85" y="0" flags="0x1004"/>
      <component glyphName="fraction" x="758" y="0" flags="0x1004"/>
      <component glyphName="twosuperior" x="930" y="-585" flags="0x1004"/>
    </TTGlyph>
    <TTGlyph name="onequarter" xMin="11" yMin="0" xMax="1681" yMax="1473">
      <component glyphName="onesuperior" x="-85" y="0" flags="0x1004"/>
      <component glyphName="fraction" x="799" y="0" flags="0x1004"/>
      <component glyphName="foursuperior" x="897" y="-587" flags="0x1004"/>
    </TTGlyph>
    <TTGlyph name="onesuperior" xMin="96" yMin="588" xMax="707" yMax="1473">
      <contour>
        <pt x="528" y="1473" on="1"/>
        <pt x="528" y="756" on="1"/>
        <pt x="528" y="730" on="0"/>
        <pt x="543" y="699" on="0"/>
        <pt x="569" y="683" on="0"/>
        <pt x="604" y="678" on="0"/>
        <pt x="623" y="678" on="1"/>
        <pt x="707" y="678" on="1"/>
        <pt x="707" y="588" on="1"/>
        <pt x="129" y="588" on="1"/>
        <pt x="129" y="678" on="1"/>
        <pt x="233" y="678" on="1"/>
        <pt x="253" y="678" on="0"/>
        <pt x="286" y="683" on="0"/>
        <pt x="312" y="699" on="0"/>
        <pt x="326" y="730" on="0"/>
        <pt x="326" y="756" on="1"/>
        <pt x="326" y="1337" on="1"/>
        <pt x="278" y="1280" on="0"/>
        <pt x="203" y="1210" on="0"/>
        <pt x="166" y="1210" on="1"/>
        <pt x="137" y="1210" on="0"/>
        <pt x="96" y="1269" on="0"/>
        <pt x="96" y="1311" on="1"/>
        <pt x="133" y="1320" on="0"/>
        <pt x="224" y="1361" on="0"/>
        <pt x="285" y="1405" on="1"/>
        <pt x="377" y="1473" on="1"/>
      </contour>
    </TTGlyph>
    <TTGlyph name="ordfeminine" xMin="59" yMin="778" xMax="817" yMax="1473">
      <contour>
        <pt x="295" y="991" on="1"/>
        <pt x="295" y="937" on="0"/>
        <pt x="341" y="893" on="0"/>
        <pt x="373" y="893" on="1"/>
        <pt x="436" y="893" on="0"/>
        <pt x="498" y="972" on="0"/>
        <pt x="498" y="1034" on="1"/>
        <pt x="498" y="1118" on="1"/>
        <pt x="451" y="1116" on="1"/>
        <pt x="366" y="1113" on="0"/>
        <pt x="295" y="1050" on="0"/>
      </contour>
      <contour>
        <pt x="416" y="1384" on="1"/>
        <pt x="391" y="1384" on="0"/>
        <pt x="361" y="1365" on="0"/>
        <pt x="344" y="1330" on="0"/>
        <pt x="338" y="1284" on="0"/>
        <pt x="338" y="1257" on="1"/>
        <pt x="232" y="1257" on="0"/>
        <pt x="115" y="1298" on="0"/>
        <pt x="115" y="1346" on="1"/>
        <pt x="115" y="1381" on="0"/>
        <pt x="163" y="1429" on="0"/>
        <pt x="246" y="1459" on="0"/>
        <pt x="357" y="1473" on="0"/>
        <pt x="420" y="1473" on="1"/>
        <pt x="575" y="1473" on="0"/>
        <pt x="729" y="1376" on="0"/>
        <pt x="729" y="1260" on="1"/>
        <pt x="729" y="958" on="1"/>
        <pt x="729" y="913" on="0"/>
        <pt x="768" y="881" on="0"/>
        <pt x="817" y="881" on="1"/>
        <pt x="817" y="791" on="1"/>
        <pt x="578" y="791" on="1"/>
        <pt x="528" y="891" on="1"/>
        <pt x="514" y="891" on="1"/>
        <pt x="496" y="869" on="0"/>
        <pt x="450" y="828" on="0"/>
        <pt x="393" y="796" on="0"/>
        <pt x="324" y="778" on="0"/>
        <pt x="283" y="778" on="1"/>
        <pt x="179" y="778" on="0"/>
        <pt x="59" y="884" on="0"/>
        <pt x="59" y="987" on="1"/>
        <pt x="59" y="1089" on="0"/>
        <pt x="231" y="1186" on="0"/>
        <pt x="406" y="1194" on="1"/>
        <pt x="498" y="1198" on="1"/>
        <pt x="498" y="1253" on="1"/>
        <pt x="498" y="1282" on="0"/>
        <pt x="492" y="1331" on="0"/>
        <pt x="475" y="1365" on="0"/>
        <pt x="443" y="1384" on="0"/>
      </contour>
    </TTGlyph>
    <TTGlyph name="ordmasculine" xMin="72" yMin="778" xMax="823" yMax="1473">
      <contour>
        <pt x="311" y="1126" on="1"/>
        <pt x="311" y="1005" on="0"/>
        <pt x="372" y="881" on="0"/>
        <pt x="449" y="881" on="1"/>
        <pt x="524" y="881" on="0"/>
        <pt x="586" y="1005" on="0"/>
        <pt x="586" y="1126" on="1"/>
        <pt x="586" y="1247" on="0"/>
        <pt x="522" y="1366" on="0"/>
        <pt x="446" y="1366" on="1"/>
        <pt x="371" y="1366" on="0"/>
        <pt x="311" y="1247" on="0"/>
      </contour>
      <contour>
        <pt x="823" y="1126" on="1"/>
        <pt x="823" y="950" on="0"/>
        <pt x="632" y="778" on="0"/>
        <pt x="446" y="778" on="1"/>
        <pt x="268" y="778" on="0"/>
        <pt x="72" y="951" on="0"/>
        <pt x="72" y="1126" on="1"/>
        <pt x="72" y="1302" on="0"/>
        <pt x="264" y="1473" on="0"/>
        <pt x="451" y="1473" on="1"/>
        <pt x="537" y="1473" on="0"/>
        <pt x="675" y="1430" on="0"/>
        <pt x="771" y="1344" on="0"/>
        <pt x="823" y="1214" on="0"/>
      </contour>
    </TTGlyph>
    <TTGlyph name="oslash" xMin="96" yMin="-82" xMax="1159" yMax="1180">
      <contour>
        <pt x="1159" y="553" on="1"/>
        <pt x="1159" y="264" on="0"/>
        <pt x="888" y="-20" on="0"/>
        <pt x="625" y="-20" on="1"/>
        <pt x="487" y="-20" on="0"/>
        <pt x="383" y="23" on="1"/>
        <pt x="317" y="-82" on="1"/>
        <pt x="172" y="-82" on="1"/>
        <pt x="274" y="86" on="1"/>
        <pt x="188" y="157" on="0"/>
        <pt x="96" y="389" on="0"/>
        <pt x="96" y="553" on="1"/>
        <pt x="96" y="842" on="0"/>
        <pt x="367" y="1124" on="0"/>
        <pt x="631" y="1124" on="1"/>
        <pt x="703" y="1124" on="0"/>
        <pt x="831" y="1100" on="0"/>
        <pt x="885" y="1075" on="1"/>
        <pt x="950" y="1180" on="1"/>
        <pt x="1094" y="1180" on="1"/>
        <pt x="989" y="1008" on="1"/>
        <pt x="1071" y="936" on="0"/>
        <pt x="1159" y="712" on="0"/>
      </contour>
      <contour>
        <pt x="414" y="553" on="1"/>
        <pt x="414" y="490" on="0"/>
        <pt x="420" y="381" on="0"/>
        <pt x="428" y="336" on="1"/>
        <pt x="780" y="907" on="1"/>
        <pt x="728" y="993" on="0"/>
        <pt x="627" y="993" on="1"/>
        <pt x="568" y="993" on="0"/>
        <pt x="486" y="938" on="0"/>
        <pt x="436" y="828" on="0"/>
        <pt x="414" y="663" on="0"/>
      </contour>
      <contour>
        <pt x="842" y="553" on="1"/>
        <pt x="842" y="609" on="0"/>
        <pt x="836" y="706" on="0"/>
        <pt x="829" y="750" on="1"/>
        <pt x="481" y="184" on="1"/>
        <pt x="532" y="109" on="0"/>
        <pt x="629" y="109" on="1"/>
        <pt x="688" y="109" on="0"/>
        <pt x="769" y="166" on="0"/>
        <pt x="820" y="278" on="0"/>
        <pt x="842" y="444" on="0"/>
      </contour>
    </TTGlyph>
    <TTGlyph name="otilde" xMin="96" yMin="-20" xMax="1159" yMax="1565">
      <component glyphName="o" x="0" y="0" flags="0x1204"/>
      <component glyphName="tilde" x="33" y="0" flags="0x1004"/>
    </TTGlyph>
    <TTGlyph name="overscore" xMin="-10" yMin="1556" xMax="950" yMax="1677">
      <contour>
        <pt x="950" y="1556" on="1"/>
        <pt x="-10" y="1556" on="1"/>
        <pt x="-10" y="1677" on="1"/>
        <pt x="950" y="1677" on="1"/>
      </contour>
    </TTGlyph>
    <TTGlyph name="p" xMin="27" yMin="-492" xMax="1225" yMax="1118">
      <contour>
        <pt x="51" y="-383" on="1"/>
        <pt x="74" y="-383" on="0"/>
        <pt x="125" y="-374" on="0"/>
        <pt x="168" y="-346" on="0"/>
        <pt x="197" y="-294" on="0"/>
        <pt x="197" y="-250" on="1"/>
        <pt x="197" y="846" on="1"/>
        <pt x="197" y="893" on="0"/>
        <pt x="176" y="949" on="0"/>
        <pt x="139" y="979" on="0"/>
        <pt x="88" y="989" on="0"/>
        <pt x="59" y="989" on="1"/>
        <pt x="45" y="989" on="1"/>
        <pt x="45" y="1098" on="1"/>
        <pt x="446" y="1098" on="1"/>
        <pt x="483" y="938" on="1"/>
        <pt x="492" y="938" on="1"/>
        <pt x="514" y="978" on="0"/>
        <pt x="573" y="1044" on="0"/>
        <pt x="650" y="1092" on="0"/>
        <pt x="746" y="1118" on="0"/>
        <pt x="805" y="1118" on="1"/>
        <pt x="907" y="1118" on="0"/>
        <pt x="1064" y="1051" on="0"/>
        <pt x="1170" y="910" on="0"/>
        <pt x="1225" y="694" on="0"/>
        <pt x="1225" y="545" on="1"/>
        <pt x="1225" y="397" on="0"/>
        <pt x="1171" y="182" on="0"/>
        <pt x="1066" y="42" on="0"/>
        <pt x="913" y="-25" on="0"/>
        <pt x="813" y="-25" on="1"/>
        <pt x="696" y="-25" on="0"/>
        <pt x="550" y="64" on="0"/>
        <pt x="506" y="139" on="1"/>
        <pt x="492" y="139" on="1"/>
        <pt x="496" y="92" on="0"/>
        <pt x="500" y="47" on="1"/>
        <pt x="503" y="9" on="0"/>
        <pt x="508" y="-77" on="0"/>
        <pt x="508" y="-109" on="1"/>
        <pt x="508" y="-250" on="1"/>
        <pt x="508" y="-294" on="0"/>
        <pt x="537" y="-346" on="0"/>
        <pt x="580" y="-374" on="0"/>
        <pt x="631" y="-383" on="0"/>
        <pt x="653" y="-383" on="1"/>
        <pt x="698" y="-383" on="1"/>
        <pt x="698" y="-492" on="1"/>
        <pt x="27" y="-492" on="1"/>
        <pt x="27" y="-383" on="1"/>
      </contour>
      <contour>
        <pt x="717" y="127" on="1"/>
        <pt x="820" y="127" on="0"/>
        <pt x="909" y="334" on="0"/>
        <pt x="909" y="543" on="1"/>
        <pt x="909" y="747" on="0"/>
        <pt x="820" y="965" on="0"/>
        <pt x="719" y="965" on="1"/>
        <pt x="658" y="965" on="0"/>
        <pt x="576" y="910" on="0"/>
        <pt x="528" y="803" on="0"/>
        <pt x="508" y="646" on="0"/>
        <pt x="508" y="545" on="1"/>
        <pt x="508" y="439" on="0"/>
        <pt x="528" y="282" on="0"/>
        <pt x="576" y="178" on="0"/>
        <pt x="656" y="127" on="0"/>
      </contour>
    </TTGlyph>
    <TTGlyph name="paragraph" xMin="82" yMin="-227" xMax="1202" yMax="1556">
      <contour>
        <pt x="860" y="1430" on="1"/>
        <pt x="688" y="1430" on="1"/>
        <pt x="688" y="-227" on="1"/>
        <pt x="346" y="-227" on="1"/>
        <pt x="346" y="-119" on="1"/>
        <pt x="373" y="-119" on="1"/>
        <pt x="408" y="-119" on="0"/>
        <pt x="469" y="-110" on="0"/>
        <pt x="514" y="-79" on="0"/>
        <pt x="541" y="-21" on="0"/>
        <pt x="541" y="27" on="1"/>
        <pt x="541" y="791" on="1"/>
        <pt x="395" y="791" on="1"/>
        <pt x="305" y="791" on="0"/>
        <pt x="185" y="856" on="0"/>
        <pt x="113" y="967" on="0"/>
        <pt x="82" y="1112" on="0"/>
        <pt x="82" y="1192" on="1"/>
        <pt x="82" y="1274" on="0"/>
        <pt x="116" y="1408" on="0"/>
        <pt x="192" y="1504" on="0"/>
        <pt x="312" y="1556" on="0"/>
        <pt x="399" y="1556" on="1"/>
        <pt x="1202" y="1556" on="1"/>
        <pt x="1202" y="1448" on="1"/>
        <pt x="1176" y="1448" on="1"/>
        <pt x="1141" y="1448" on="0"/>
        <pt x="1080" y="1438" on="0"/>
        <pt x="1034" y="1407" on="0"/>
        <pt x="1008" y="1349" on="0"/>
        <pt x="1008" y="1300" on="1"/>
        <pt x="1008" y="27" on="1"/>
        <pt x="1008" y="-21" on="0"/>
        <pt x="1034" y="-79" on="0"/>
        <pt x="1080" y="-110" on="0"/>
        <pt x="1141" y="-119" on="0"/>
        <pt x="1176" y="-119" on="1"/>
        <pt x="1202" y="-119" on="1"/>
        <pt x="1202" y="-227" on="1"/>
        <pt x="860" y="-227" on="1"/>
      </contour>
    </TTGlyph>
    <TTGlyph name="parenleft" xMin="117" yMin="-285" xMax="754" yMax="1581">
      <contour>
        <pt x="446" y="651" on="1"/>
        <pt x="446" y="529" on="0"/>
        <pt x="471" y="294" on="0"/>
        <pt x="539" y="85" on="0"/>
        <pt x="659" y="-91" on="0"/>
        <pt x="754" y="-154" on="1"/>
        <pt x="754" y="-285" on="1"/>
        <pt x="583" y="-216" on="0"/>
        <pt x="341" y="-31" on="0"/>
        <pt x="188" y="203" on="0"/>
        <pt x="117" y="485" on="0"/>
        <pt x="117" y="651" on="1"/>
        <pt x="117" y="816" on="0"/>
        <pt x="188" y="1097" on="0"/>
        <pt x="341" y="1329" on="0"/>
        <pt x="583" y="1513" on="0"/>
        <pt x="754" y="1581" on="1"/>
        <pt x="754" y="1452" on="1"/>
        <pt x="659" y="1389" on="0"/>
        <pt x="539" y="1214" on="0"/>
        <pt x="471" y="1006" on="0"/>
        <pt x="446" y="773" on="0"/>
      </contour>
    </TTGlyph>
    <TTGlyph name="parenright" xMin="66" yMin="-285" xMax="702" yMax="1581">
      <contour>
        <pt x="373" y="651" on="1"/>
        <pt x="373" y="773" on="0"/>
        <pt x="348" y="1006" on="0"/>
        <pt x="281" y="1214" on="0"/>
        <pt x="161" y="1389" on="0"/>
        <pt x="66" y="1452" on="1"/>
        <pt x="66" y="1581" on="1"/>
        <pt x="237" y="1513" on="0"/>
        <pt x="479" y="1329" on="0"/>
        <pt x="632" y="1097" on="0"/>
        <pt x="702" y="816" on="0"/>
        <pt x="702" y="651" on="1"/>
        <pt x="702" y="485" on="0"/>
        <pt x="632" y="203" on="0"/>
        <pt x="479" y="-31" on="0"/>
        <pt x="237" y="-216" on="0"/>
        <pt x="66" y="-285" on="1"/>
        <pt x="66" y="-154" on="1"/>
        <pt x="161" y="-91" on="0"/>
        <pt x="281" y="85" on="0"/>
        <pt x="348" y="294" on="0"/>
        <pt x="373" y="529" on="0"/>
      </contour>
    </TTGlyph>
    <TTGlyph name="percent" xMin="70" yMin="-20" xMax="1786" yMax="1483">
      <contour>
        <pt x="807" y="1030" on="1"/>
        <pt x="807" y="927" on="0"/>
        <pt x="761" y="759" on="0"/>
        <pt x="670" y="639" on="0"/>
        <pt x="531" y="573" on="0"/>
        <pt x="438" y="573" on="1"/>
        <pt x="341" y="573" on="0"/>
        <pt x="201" y="639" on="0"/>
        <pt x="112" y="759" on="0"/>
        <pt x="70" y="927" on="0"/>
        <pt x="70" y="1030" on="1"/>
        <pt x="70" y="1133" on="0"/>
        <pt x="112" y="1300" on="0"/>
        <pt x="202" y="1419" on="0"/>
        <pt x="342" y="1483" on="0"/>
        <pt x="440" y="1483" on="1"/>
        <pt x="532" y="1483" on="0"/>
        <pt x="670" y="1419" on="0"/>
        <pt x="762" y="1300" on="0"/>
        <pt x="807" y="1133" on="0"/>
      </contour>
      <contour>
        <pt x="301" y="1030" on="1"/>
        <pt x="301" y="946" on="0"/>
        <pt x="316" y="815" on="0"/>
        <pt x="348" y="724" on="0"/>
        <pt x="401" y="676" on="0"/>
        <pt x="438" y="676" on="1"/>
        <pt x="477" y="676" on="0"/>
        <pt x="528" y="724" on="0"/>
        <pt x="560" y="815" on="0"/>
        <pt x="573" y="946" on="0"/>
        <pt x="573" y="1030" on="1"/>
        <pt x="573" y="1112" on="0"/>
        <pt x="560" y="1241" on="0"/>
        <pt x="529" y="1331" on="0"/>
        <pt x="478" y="1378" on="0"/>
        <pt x="440" y="1378" on="1"/>
        <pt x="402" y="1378" on="0"/>
        <pt x="349" y="1331" on="0"/>
        <pt x="316" y="1241" on="0"/>
        <pt x="301" y="1112" on="0"/>
      </contour>
      <contour>
        <pt x="651" y="0" on="1"/>
        <pt x="492" y="0" on="1"/>
        <pt x="1198" y="1462" on="1"/>
        <pt x="1356" y="1462" on="1"/>
      </contour>
      <contour>
        <pt x="1786" y="436" on="1"/>
        <pt x="1786" y="333" on="0"/>
        <pt x="1740" y="165" on="0"/>
        <pt x="1649" y="45" on="0"/>
        <pt x="1510" y="-20" on="0"/>
        <pt x="1417" y="-20" on="1"/>
        <pt x="1320" y="-20" on="0"/>
        <pt x="1180" y="45" on="0"/>
        <pt x="1091" y="165" on="0"/>
        <pt x="1049" y="333" on="0"/>
        <pt x="1049" y="436" on="1"/>
        <pt x="1049" y="539" on="0"/>
        <pt x="1091" y="706" on="0"/>
        <pt x="1181" y="825" on="0"/>
        <pt x="1321" y="889" on="0"/>
        <pt x="1419" y="889" on="1"/>
        <pt x="1511" y="889" on="0"/>
        <pt x="1649" y="825" on="0"/>
        <pt x="1741" y="706" on="0"/>
        <pt x="1786" y="539" on="0"/>
      </contour>
      <contour>
        <pt x="1280" y="436" on="1"/>
        <pt x="1280" y="352" on="0"/>
        <pt x="1295" y="221" on="0"/>
        <pt x="1327" y="130" on="0"/>
        <pt x="1380" y="82" on="0"/>
        <pt x="1417" y="82" on="1"/>
        <pt x="1456" y="82" on="0"/>
        <pt x="1507" y="130" on="0"/>
        <pt x="1539" y="221" on="0"/>
        <pt x="1552" y="352" on="0"/>
        <pt x="1552" y="436" on="1"/>
        <pt x="1552" y="518" on="0"/>
        <pt x="1539" y="647" on="0"/>
        <pt x="1508" y="737" on="0"/>
        <pt x="1457" y="784" on="0"/>
        <pt x="1419" y="784" on="1"/>
        <pt x="1381" y="784" on="0"/>
        <pt x="1328" y="737" on="0"/>
        <pt x="1295" y="647" on="0"/>
        <pt x="1280" y="518" on="0"/>
      </contour>
    </TTGlyph>
    <TTGlyph name="period" xMin="143" yMin="-16" xMax="479" yMax="311">
      <contour>
        <pt x="143" y="147" on="1"/>
        <pt x="143" y="194" on="0"/>
        <pt x="169" y="257" on="0"/>
        <pt x="214" y="295" on="0"/>
        <pt x="276" y="311" on="0"/>
        <pt x="311" y="311" on="1"/>
        <pt x="345" y="311" on="0"/>
        <pt x="406" y="295" on="0"/>
        <pt x="452" y="257" on="0"/>
        <pt x="479" y="194" on="0"/>
        <pt x="479" y="147" on="1"/>
        <pt x="479" y="101" on="0"/>
        <pt x="452" y="39" on="0"/>
        <pt x="406" y="1" on="0"/>
        <pt x="345" y="-16" on="0"/>
        <pt x="311" y="-16" on="1"/>
        <pt x="276" y="-16" on="0"/>
        <pt x="214" y="1" on="0"/>
        <pt x="169" y="39" on="0"/>
        <pt x="143" y="101" on="0"/>
      </contour>
    </TTGlyph>
    <TTGlyph name="periodcentered" xMin="143" yMin="563" xMax="479" yMax="891">
      <contour>
        <pt x="143" y="727" on="1"/>
        <pt x="143" y="774" on="0"/>
        <pt x="169" y="837" on="0"/>
        <pt x="214" y="875" on="0"/>
        <pt x="276" y="891" on="0"/>
        <pt x="311" y="891" on="1"/>
        <pt x="345" y="891" on="0"/>
        <pt x="406" y="875" on="0"/>
        <pt x="452" y="837" on="0"/>
        <pt x="479" y="774" on="0"/>
        <pt x="479" y="727" on="1"/>
        <pt x="479" y="681" on="0"/>
        <pt x="452" y="618" on="0"/>
        <pt x="406" y="580" on="0"/>
        <pt x="345" y="563" on="0"/>
        <pt x="311" y="563" on="1"/>
        <pt x="276" y="563" on="0"/>
        <pt x="214" y="580" on="0"/>
        <pt x="169" y="618" on="0"/>
        <pt x="143" y="681" on="0"/>
      </contour>
    </TTGlyph>
    <TTGlyph name="plus" xMin="133" yMin="293" xMax="1012" yMax="1171">
      <contour>
        <pt x="645" y="659" on="1"/>
        <pt x="645" y="293" on="1"/>
        <pt x="498" y="293" on="1"/>
        <pt x="498" y="659" on="1"/>
        <pt x="133" y="659" on="1"/>
        <pt x="133" y="805" on="1"/>
        <pt x="498" y="805" on="1"/>
        <pt x="498" y="1171" on="1"/>
        <pt x="645" y="1171" on="1"/>
        <pt x="645" y="805" on="1"/>
        <pt x="1012" y="805" on="1"/>
        <pt x="1012" y="659" on="1"/>
      </contour>
    </TTGlyph>
    <TTGlyph name="plusminus" xMin="133" yMin="0" xMax="1012" yMax="1171">
      <contour>
        <pt x="1012" y="0" on="1"/>
        <pt x="133" y="0" on="1"/>
        <pt x="133" y="145" on="1"/>
        <pt x="1012" y="145" on="1"/>
      </contour>
      <contour>
        <pt x="645" y="659" on="1"/>
        <pt x="645" y="293" on="1"/>
        <pt x="498" y="293" on="1"/>
        <pt x="498" y="659" on="1"/>
        <pt x="133" y="659" on="1"/>
        <pt x="133" y="805" on="1"/>
        <pt x="498" y="805" on="1"/>
        <pt x="498" y="1171" on="1"/>
        <pt x="645" y="1171" on="1"/>
        <pt x="645" y="805" on="1"/>
        <pt x="1012" y="805" on="1"/>
        <pt x="1012" y="659" on="1"/>
      </contour>
    </TTGlyph>
</ttFont>
